SplineFontDB: 3.0
FontName: Barrio-Regular
FullName: Barrio-Regular
FamilyName: Barrio
Weight: Regular
Copyright: Copyright (c) 2013, Omnibus-Type (www.omnibus-type.com omnibus.type@gmail.com) with Reserved Font Name 'Barrio'
Version: 001.003
ItalicAngle: 0
UnderlinePosition: -49.8047
UnderlineWidth: 49.8047
Ascent: 762
Descent: 238
sfntRevision: 0x000100c4
LayerCount: 2
Layer: 0 1 "Back"  1
Layer: 1 1 "Fore"  0
XUID: [1021 809 -2065993493 1412352]
FSType: 8
OS2Version: 3
OS2_WeightWidthSlopeOnly: 0
OS2_UseTypoMetrics: 1
CreationTime: 1388081994
ModificationTime: 1388327651
PfmFamily: 81
TTFWeight: 400
TTFWidth: 5
LineGap: 0
VLineGap: 0
Panose: 0 0 5 0 0 0 0 0 0 0
OS2TypoAscent: 762
OS2TypoAOffset: 0
OS2TypoDescent: -238
OS2TypoDOffset: 0
OS2TypoLinegap: 200
OS2WinAscent: 962
OS2WinAOffset: 0
OS2WinDescent: 238
OS2WinDOffset: 0
HheadAscent: 962
HheadAOffset: 0
HheadDescent: -238
HheadDOffset: 0
OS2SubXSize: 650
OS2SubYSize: 600
OS2SubXOff: 0
OS2SubYOff: 75
OS2SupXSize: 650
OS2SupYSize: 600
OS2SupXOff: 0
OS2SupYOff: 350
OS2StrikeYSize: 50
OS2StrikeYPos: 295
OS2Vendor: 'UKWN'
OS2CodePages: 20000093.00000000
OS2UnicodeRanges: 00000007.00000000.00000000.00000000
Lookup: 1 0 0 "'aalt' Access All Alternates lookup 0"  {"'aalt' Access All Alternates lookup 0 subtable"  } ['aalt' ('DFLT' <'dflt' > 'grek' <'dflt' > 'latn' <'CAT ' 'ESP ' 'MOL ' 'PLK ' 'ROM ' 'TRK ' 'dflt' > ) ]
Lookup: 3 0 0 "'aalt' Access All Alternates lookup 1"  {"'aalt' Access All Alternates lookup 1 subtable"  } ['aalt' ('DFLT' <'dflt' > 'grek' <'dflt' > 'latn' <'CAT ' 'ESP ' 'MOL ' 'PLK ' 'ROM ' 'TRK ' 'dflt' > ) ]
Lookup: 1 0 0 "'locl' Localized Forms in Latin lookup 2"  {"'locl' Localized Forms in Latin lookup 2 subtable"  } ['locl' ('latn' <'TRK ' > ) ]
Lookup: 1 0 0 "'locl' Localized Forms in Latin lookup 3"  {"'locl' Localized Forms in Latin lookup 3 subtable"  } ['locl' ('latn' <'AZE ' > ) ]

StartChar: .notdef
Encoding: 65536 -1 0
Width: 500
Flags: MW
HStem: 4 63 646 57 653 48<156 164>
VStem: 57 52 388 57<160 322 247 322>
LayerCount: 2
UndoRedoHistory
Layer: 0
Undoes
EndUndoes
Redoes
EndRedoes
EndUndoRedoHistory
UndoRedoHistory
Layer: 1
Undoes
EndUndoes
Redoes
EndRedoes
EndUndoRedoHistory
Fore
SplineSet
180 701 m 1,0,1
 202 701 202 701 225 701 c 128,-1,2
 248 701 248 701 263.5 700 c 128,-1,3
 279 699 279 699 282 699 c 0,4,5
 319 699 319 699 358.5 701 c 128,-1,6
 398 703 398 703 414 703 c 0,7,8
 441 703 441 703 453 700 c 0,9,10
 463 697 463 697 463 690 c 0,11,12
 463 688 463 688 461 682 c 0,13,14
 461 681 461 681 458 655.5 c 128,-1,15
 455 630 455 630 452 603 c 0,16,17
 450 573 450 573 447.5 459 c 128,-1,18
 445 345 445 345 445 300 c 0,19,20
 445 274 445 274 442 184 c 128,-1,21
 439 94 439 94 439 88 c 0,22,23
 439 84 439 84 438.5 70 c 128,-1,24
 438 56 438 56 438 48 c 0,25,26
 438 33 438 33 440 19 c 1,27,28
 441 16 441 16 441 13 c 128,-1,29
 441 10 441 10 440 8.5 c 128,-1,30
 439 7 439 7 438 6.5 c 128,-1,31
 437 6 437 6 434.5 6 c 128,-1,32
 432 6 432 6 431 6 c 0,33,34
 421 4 421 4 395 4 c 0,35,36
 277 4 277 4 158 1 c 1,37,38
 98 1 98 1 80 2 c 1,39,40
 62 0 62 0 58 16 c 0,41,42
 57 24 57 24 57 65 c 0,43,44
 57 83 57 83 56 230.5 c 128,-1,45
 55 378 55 378 55 411 c 0,46,47
 55 448 55 448 56 555 c 128,-1,48
 57 662 57 662 57 670 c 0,49,50
 57 682 57 682 58.5 688.5 c 128,-1,51
 60 695 60 695 63.5 697.5 c 128,-1,52
 67 700 67 700 69.5 700.5 c 128,-1,53
 72 701 72 701 78 701 c 2,54,-1
 180 701 l 1,0,1
177 652 m 1,55,56
 171 653 171 653 161 653 c 0,57,58
 148 653 148 653 136 651 c 1,59,-1
 143 636 l 1,60,61
 151 611 151 611 168 572.5 c 128,-1,62
 185 534 185 534 199 512 c 1,63,64
 208 491 208 491 252 400 c 1,65,66
 300 499 300 499 305 512 c 1,67,68
 320 533 320 533 336.5 572 c 128,-1,69
 353 611 353 611 361 636 c 1,70,-1
 367 648 l 1,71,72
 341 646 341 646 327 646 c 0,73,74
 314 646 314 646 309 647 c 1,75,76
 287 649 287 649 280 649 c 1,77,78
 268 651 268 651 177 652 c 1,55,56
394 421 m 1,79,80
 394 430 394 430 393.5 449 c 128,-1,81
 393 468 393 468 393 476 c 2,82,-1
 395 588 l 1,83,84
 348 497 348 497 334 461 c 1,85,86
 327 448 327 448 280 342 c 1,87,-1
 315 270 l 1,88,89
 338 215 338 215 388 114 c 1,90,-1
 388 160 l 1,91,-1
 388 267 l 2,92,93
 388 284 388 284 389 293 c 0,94,95
 391 323 391 323 391 341 c 0,96,97
 391 374 391 374 392 391 c 2,98,-1
 394 421 l 1,79,80
110 378 m 1,99,100
 111 319 111 319 111 313 c 0,101,102
 109 281 109 281 109 252 c 0,103,104
 109 242 109 242 108.5 204.5 c 128,-1,105
 108 167 108 167 108 148 c 0,106,107
 108 113 108 113 109 99 c 1,108,109
 116 113 116 113 133.5 150.5 c 128,-1,110
 151 188 151 188 165.5 218.5 c 128,-1,111
 180 249 180 249 189 270 c 1,112,-1
 224 342 l 1,113,114
 177 448 177 448 170 461 c 1,115,116
 160 487 160 487 118 572 c 1,117,-1
 117 552 l 1,118,-1
 113 453 l 1,119,-1
 110 378 l 1,99,100
243 68 m 0,120,121
 262 71 262 71 345 71 c 2,122,-1
 352 71 l 1,123,124
 322 142 322 142 268 247 c 0,125,126
 267 250 267 250 261.5 260.5 c 128,-1,127
 256 271 256 271 252 280 c 1,128,129
 248 272 248 272 242.5 261 c 128,-1,130
 237 250 237 250 236 247 c 0,131,132
 166 103 166 103 151 68 c 1,133,-1
 178 67 l 1,134,135
 234 67 234 67 243 68 c 0,120,121
EndSplineSet
Validated: 8388609
EndChar

StartChar: A
Encoding: 65 65 1
Width: 506
Flags: MW
HStem: 0 21G<23 27 27 47 426 429 429 485> 242 66<120 165 122 165 155 165 155 185> 700 20G<233 248>
VStem: 21 476
LayerCount: 2
UndoRedoHistory
Layer: 0
Undoes
EndUndoes
Redoes
EndRedoes
EndUndoRedoHistory
UndoRedoHistory
Layer: 1
Undoes
EndUndoes
Redoes
EndRedoes
EndUndoRedoHistory
Fore
SplineSet
36 69 m 2,0,1
 37 72 37 72 40 81.5 c 128,-1,2
 43 91 43 91 45.5 100.5 c 128,-1,3
 48 110 48 110 50 118 c 0,4,5
 53 138 53 138 69 191 c 0,6,7
 71 199 71 199 79 224.5 c 128,-1,8
 87 250 87 250 93 271.5 c 128,-1,9
 99 293 99 293 101 306 c 1,10,11
 104 322 104 322 114.5 356 c 128,-1,12
 125 390 125 390 127 401 c 0,13,14
 127 404 127 404 154 504 c 1,15,16
 173 564 173 564 177 574 c 0,17,18
 178 577 178 577 185.5 598.5 c 128,-1,19
 193 620 193 620 199.5 640 c 128,-1,20
 206 660 206 660 208 672 c 1,21,22
 215 696 215 696 222.5 708 c 128,-1,23
 230 720 230 720 243 720 c 0,24,25
 245 720 245 720 247 719 c 128,-1,26
 249 718 249 718 250.5 715 c 128,-1,27
 252 712 252 712 253.5 709.5 c 128,-1,28
 255 707 255 707 257.5 701.5 c 128,-1,29
 260 696 260 696 261.5 692 c 128,-1,30
 263 688 263 688 265.5 681 c 128,-1,31
 268 674 268 674 270 670 c 0,32,33
 275 659 275 659 283 632.5 c 128,-1,34
 291 606 291 606 298 578.5 c 128,-1,35
 305 551 305 551 306 547 c 0,36,37
 307 537 307 537 331.5 468.5 c 128,-1,38
 356 400 356 400 358 394 c 129,-1,39
 360 388 360 388 372 355.5 c 128,-1,40
 384 323 384 323 395.5 292.5 c 128,-1,41
 407 262 407 262 412 251 c 1,42,43
 451 133 451 133 453 123 c 0,44,45
 456 109 456 109 465 85.5 c 128,-1,46
 474 62 474 62 483.5 39 c 128,-1,47
 493 16 493 16 493 14 c 0,48,49
 496 7 496 7 496 4 c 0,50,51
 496 0 496 0 485 0 c 2,52,-1
 429 0 l 2,53,54
 421 0 421 0 418 9 c 0,55,56
 414 21 414 21 407 45 c 1,57,58
 397 72 397 72 395 90 c 1,59,60
 387 132 387 132 374 158 c 1,61,62
 364 180 364 180 358 201 c 2,63,-1
 349 230 l 1,64,65
 344 241 344 241 341.5 243.5 c 128,-1,66
 339 246 339 246 333 246 c 0,67,68
 312 246 312 246 302 245 c 0,69,70
 268 243 268 243 259 243 c 1,71,72
 251 242 251 242 185 242 c 2,73,-1
 124 242 l 1,74,-1
 122 242 l 2,75,76
 116 242 116 242 113 231 c 1,77,-1
 111 221 l 1,78,-1
 107 202 l 1,79,80
 105 194 105 194 95 149 c 128,-1,81
 85 104 85 104 84 100 c 1,82,83
 82 79 82 79 75 67 c 0,84,85
 74 65 74 65 65 35 c 1,86,87
 63 29 63 29 58 9 c 1,88,89
 55 1 55 1 53 0 c 0,90,91
 51 0 51 0 47 0 c 2,92,-1
 27 0 l 2,93,94
 21 0 21 0 21 6 c 0,95,96
 21 9 21 9 22 13 c 1,97,98
 22 16 22 16 23 18 c 0,99,-1
 24 23 l 0,100,101
 25 28 25 28 27 32 c 1,102,-1
 36 69 l 2,0,1
306 311 m 0,103,104
 319 311 319 311 319 318 c 0,105,106
 319 323 319 323 312 340 c 0,107,108
 308 349 308 349 294.5 393.5 c 128,-1,109
 281 438 281 438 276 453 c 1,110,111
 268 477 268 477 255.5 521 c 128,-1,112
 243 565 243 565 241 577 c 1,113,114
 227 630 227 630 221 630 c 0,115,116
 219 630 219 630 217 624 c 128,-1,117
 215 618 215 618 211 602.5 c 128,-1,118
 207 587 207 587 205 581 c 1,119,120
 202 565 202 565 187.5 514 c 128,-1,121
 173 463 173 463 167 445 c 1,122,123
 163 426 163 426 151.5 383.5 c 128,-1,124
 140 341 140 341 134 325 c 0,125,126
 132 319 132 319 132 318 c 0,127,128
 132 314 132 314 134 312 c 128,-1,129
 136 310 136 310 140 309 c 128,-1,130
 144 308 144 308 146.5 308 c 128,-1,131
 149 308 149 308 154 308 c 128,-1,132
 159 308 159 308 160 308 c 0,133,134
 164 308 164 308 187.5 309 c 128,-1,135
 211 310 211 310 218 310 c 1,136,137
 230 312 230 312 252 312 c 0,138,139
 263 312 263 312 282.5 311.5 c 128,-1,140
 302 311 302 311 306 311 c 0,103,104
EndSplineSet
Validated: 1
Substitution2: "Single Substitution lookup 21 subtable" a
Substitution2: "Single Substitution lookup 20 subtable" ordfeminine
AlternateSubs2: "'aalt' Access All Alternates lookup 1 subtable" ordfeminine a
Position2: "'cpsp' Capital Spacing lookup 0 subtable" dx=5 dy=0 dh=10 dv=0
EndChar

StartChar: Aacute
Encoding: 193 193 2
Width: 505
Flags: MW
HStem: 0 21G<23 27 27 47 426 429 429 485> 242 66<120 165 122 165 155 165 155 185> 700 20G<233 248>
VStem: 21 476
LayerCount: 2
UndoRedoHistory
Layer: 0
Undoes
EndUndoes
Redoes
EndRedoes
EndUndoRedoHistory
UndoRedoHistory
Layer: 1
Undoes
EndUndoes
Redoes
EndRedoes
EndUndoRedoHistory
Fore
SplineSet
299 825 m 1,0,1
 320 832 320 832 334 832 c 1,2,3
 350 834 350 834 354 834 c 0,4,5
 365 834 365 834 369.5 828 c 128,-1,6
 374 822 374 822 371 806 c 1,7,8
 368 795 368 795 351 785 c 128,-1,9
 334 775 334 775 322 772 c 1,10,11
 274 756 274 756 237 739 c 1,12,13
 212 730 212 730 205 730 c 0,14,15
 195 730 195 730 184 737 c 1,16,17
 164 744 164 744 164 759 c 0,18,19
 164 761 164 761 166 769 c 0,20,21
 167 773 167 773 186 782 c 128,-1,22
 205 791 205 791 216 794 c 1,23,24
 222 797 222 797 238 802 c 128,-1,25
 254 807 254 807 277 817 c 1,26,-1
 299 825 l 1,0,1
36 69 m 2,27,28
 37 72 37 72 40 81.5 c 128,-1,29
 43 91 43 91 45.5 100.5 c 128,-1,30
 48 110 48 110 50 118 c 0,31,32
 53 138 53 138 69 191 c 0,33,34
 71 199 71 199 79 224.5 c 128,-1,35
 87 250 87 250 93 271.5 c 128,-1,36
 99 293 99 293 101 306 c 1,37,38
 104 322 104 322 114.5 356 c 128,-1,39
 125 390 125 390 127 401 c 0,40,41
 127 404 127 404 154 504 c 1,42,43
 173 564 173 564 177 574 c 0,44,45
 178 577 178 577 185.5 598.5 c 128,-1,46
 193 620 193 620 199.5 640 c 128,-1,47
 206 660 206 660 208 672 c 1,48,49
 215 696 215 696 222.5 708 c 128,-1,50
 230 720 230 720 243 720 c 0,51,52
 245 720 245 720 247 719 c 128,-1,53
 249 718 249 718 250.5 715 c 128,-1,54
 252 712 252 712 253.5 709.5 c 128,-1,55
 255 707 255 707 257.5 701.5 c 128,-1,56
 260 696 260 696 261.5 692 c 128,-1,57
 263 688 263 688 265.5 681 c 128,-1,58
 268 674 268 674 270 670 c 0,59,60
 275 659 275 659 283 632.5 c 128,-1,61
 291 606 291 606 298 578.5 c 128,-1,62
 305 551 305 551 306 547 c 0,63,64
 307 537 307 537 331.5 468.5 c 128,-1,65
 356 400 356 400 358 394 c 129,-1,66
 360 388 360 388 372 355.5 c 128,-1,67
 384 323 384 323 395.5 292.5 c 128,-1,68
 407 262 407 262 412 251 c 1,69,70
 451 133 451 133 453 123 c 0,71,72
 456 109 456 109 465 85.5 c 128,-1,73
 474 62 474 62 483.5 39 c 128,-1,74
 493 16 493 16 493 14 c 0,75,76
 496 7 496 7 496 4 c 0,77,78
 496 0 496 0 485 0 c 2,79,-1
 429 0 l 2,80,81
 421 0 421 0 418 9 c 0,82,83
 414 21 414 21 407 45 c 1,84,85
 397 72 397 72 395 90 c 1,86,87
 387 132 387 132 374 158 c 1,88,89
 364 180 364 180 358 201 c 2,90,-1
 349 230 l 1,91,92
 344 241 344 241 341.5 243.5 c 128,-1,93
 339 246 339 246 333 246 c 0,94,95
 312 246 312 246 302 245 c 0,96,97
 268 243 268 243 259 243 c 1,98,99
 251 242 251 242 185 242 c 2,100,-1
 124 242 l 1,101,-1
 122 242 l 2,102,103
 116 242 116 242 113 231 c 1,104,-1
 111 221 l 1,105,-1
 107 202 l 1,106,107
 105 194 105 194 95 149 c 128,-1,108
 85 104 85 104 84 100 c 1,109,110
 82 79 82 79 75 67 c 0,111,112
 74 65 74 65 65 35 c 1,113,114
 63 29 63 29 58 9 c 1,115,116
 55 1 55 1 53 0 c 0,117,118
 51 0 51 0 47 0 c 2,119,-1
 27 0 l 2,120,121
 21 0 21 0 21 6 c 0,122,123
 21 9 21 9 22 13 c 1,124,125
 22 16 22 16 23 18 c 0,126,-1
 24 23 l 0,127,128
 25 28 25 28 27 32 c 1,129,-1
 36 69 l 2,27,28
306 311 m 0,130,131
 319 311 319 311 319 318 c 0,132,133
 319 323 319 323 312 340 c 0,134,135
 308 349 308 349 294.5 393.5 c 128,-1,136
 281 438 281 438 276 453 c 1,137,138
 268 477 268 477 255.5 521 c 128,-1,139
 243 565 243 565 241 577 c 1,140,141
 227 630 227 630 221 630 c 0,142,143
 219 630 219 630 217 624 c 128,-1,144
 215 618 215 618 211 602.5 c 128,-1,145
 207 587 207 587 205 581 c 1,146,147
 202 565 202 565 187.5 514 c 128,-1,148
 173 463 173 463 167 445 c 1,149,150
 163 426 163 426 151.5 383.5 c 128,-1,151
 140 341 140 341 134 325 c 0,152,153
 132 319 132 319 132 318 c 0,154,155
 132 314 132 314 134 312 c 128,-1,156
 136 310 136 310 140 309 c 128,-1,157
 144 308 144 308 146.5 308 c 128,-1,158
 149 308 149 308 154 308 c 128,-1,159
 159 308 159 308 160 308 c 0,160,161
 164 308 164 308 187.5 309 c 128,-1,162
 211 310 211 310 218 310 c 1,163,164
 230 312 230 312 252 312 c 0,165,166
 263 312 263 312 282.5 311.5 c 128,-1,167
 302 311 302 311 306 311 c 0,130,131
EndSplineSet
Validated: 1
Substitution2: "Single Substitution lookup 21 subtable" aacute
Substitution2: "'aalt' Access All Alternates lookup 0 subtable" aacute
Position2: "'cpsp' Capital Spacing lookup 0 subtable" dx=5 dy=0 dh=10 dv=0
EndChar

StartChar: Abreve
Encoding: 258 258 3
Width: 506
Flags: MW
HStem: 0 21G<23 27 27 47 426 429 429 485> 242 66<120 165 122 165 155 165 155 185> 700 20G<233 248> 738 54<234 241 232 257>
VStem: 21 476 92 58<829 837>
LayerCount: 2
UndoRedoHistory
Layer: 0
Undoes
EndUndoes
Redoes
EndRedoes
EndUndoRedoHistory
UndoRedoHistory
Layer: 1
Undoes
EndUndoes
Redoes
EndRedoes
EndUndoRedoHistory
Fore
SplineSet
390 832 m 0,0,1
 390 791 390 791 369 775 c 0,2,3
 354 764 354 764 330 751 c 0,4,5
 305 738 305 738 234 738 c 1,6,7
 155 742 155 742 134 753 c 0,8,9
 114 763 114 763 107 780 c 0,10,11
 93 813 93 813 92 836 c 0,12,13
 92 838 92 838 96 838.5 c 128,-1,14
 100 839 100 839 121 839 c 128,-1,15
 142 839 142 839 146 837.5 c 128,-1,16
 150 836 150 836 150 829 c 1,17,18
 154 810 154 810 166 802 c 1,19,20
 177 795 177 795 232 792 c 1,21,22
 259 792 259 792 293 801 c 1,23,24
 329 811 329 811 330 831 c 1,25,26
 333 836 333 836 357 838 c 1,27,28
 390 836 390 836 390 832 c 0,0,1
36 69 m 2,29,30
 37 72 37 72 40 81.5 c 128,-1,31
 43 91 43 91 45.5 100.5 c 128,-1,32
 48 110 48 110 50 118 c 0,33,34
 53 138 53 138 69 191 c 0,35,36
 71 199 71 199 79 224.5 c 128,-1,37
 87 250 87 250 93 271.5 c 128,-1,38
 99 293 99 293 101 306 c 1,39,40
 104 322 104 322 114.5 356 c 128,-1,41
 125 390 125 390 127 401 c 0,42,43
 127 404 127 404 154 504 c 1,44,45
 173 564 173 564 177 574 c 0,46,47
 178 577 178 577 185.5 598.5 c 128,-1,48
 193 620 193 620 199.5 640 c 128,-1,49
 206 660 206 660 208 672 c 1,50,51
 215 696 215 696 222.5 708 c 128,-1,52
 230 720 230 720 243 720 c 0,53,54
 245 720 245 720 247 719 c 128,-1,55
 249 718 249 718 250.5 715 c 128,-1,56
 252 712 252 712 253.5 709.5 c 128,-1,57
 255 707 255 707 257.5 701.5 c 128,-1,58
 260 696 260 696 261.5 692 c 128,-1,59
 263 688 263 688 265.5 681 c 128,-1,60
 268 674 268 674 270 670 c 0,61,62
 275 659 275 659 283 632.5 c 128,-1,63
 291 606 291 606 298 578.5 c 128,-1,64
 305 551 305 551 306 547 c 0,65,66
 307 537 307 537 331.5 468.5 c 128,-1,67
 356 400 356 400 358 394 c 129,-1,68
 360 388 360 388 372 355.5 c 128,-1,69
 384 323 384 323 395.5 292.5 c 128,-1,70
 407 262 407 262 412 251 c 1,71,72
 451 133 451 133 453 123 c 0,73,74
 456 109 456 109 465 85.5 c 128,-1,75
 474 62 474 62 483.5 39 c 128,-1,76
 493 16 493 16 493 14 c 0,77,78
 496 7 496 7 496 4 c 0,79,80
 496 0 496 0 485 0 c 2,81,-1
 429 0 l 2,82,83
 421 0 421 0 418 9 c 0,84,85
 414 21 414 21 407 45 c 1,86,87
 397 72 397 72 395 90 c 1,88,89
 387 132 387 132 374 158 c 1,90,91
 364 180 364 180 358 201 c 2,92,-1
 349 230 l 1,93,94
 344 241 344 241 341.5 243.5 c 128,-1,95
 339 246 339 246 333 246 c 0,96,97
 312 246 312 246 302 245 c 0,98,99
 268 243 268 243 259 243 c 1,100,101
 251 242 251 242 185 242 c 2,102,-1
 124 242 l 1,103,-1
 122 242 l 2,104,105
 116 242 116 242 113 231 c 1,106,-1
 111 221 l 1,107,-1
 107 202 l 1,108,109
 105 194 105 194 95 149 c 128,-1,110
 85 104 85 104 84 100 c 1,111,112
 82 79 82 79 75 67 c 0,113,114
 74 65 74 65 65 35 c 1,115,116
 63 29 63 29 58 9 c 1,117,118
 55 1 55 1 53 0 c 0,119,120
 51 0 51 0 47 0 c 2,121,-1
 27 0 l 2,122,123
 21 0 21 0 21 6 c 0,124,125
 21 9 21 9 22 13 c 1,126,127
 22 16 22 16 23 18 c 0,128,-1
 24 23 l 0,129,130
 25 28 25 28 27 32 c 1,131,-1
 36 69 l 2,29,30
306 311 m 0,132,133
 319 311 319 311 319 318 c 0,134,135
 319 323 319 323 312 340 c 0,136,137
 308 349 308 349 294.5 393.5 c 128,-1,138
 281 438 281 438 276 453 c 1,139,140
 268 477 268 477 255.5 521 c 128,-1,141
 243 565 243 565 241 577 c 1,142,143
 227 630 227 630 221 630 c 0,144,145
 219 630 219 630 217 624 c 128,-1,146
 215 618 215 618 211 602.5 c 128,-1,147
 207 587 207 587 205 581 c 1,148,149
 202 565 202 565 187.5 514 c 128,-1,150
 173 463 173 463 167 445 c 1,151,152
 163 426 163 426 151.5 383.5 c 128,-1,153
 140 341 140 341 134 325 c 0,154,155
 132 319 132 319 132 318 c 0,156,157
 132 314 132 314 134 312 c 128,-1,158
 136 310 136 310 140 309 c 128,-1,159
 144 308 144 308 146.5 308 c 128,-1,160
 149 308 149 308 154 308 c 128,-1,161
 159 308 159 308 160 308 c 0,162,163
 164 308 164 308 187.5 309 c 128,-1,164
 211 310 211 310 218 310 c 1,165,166
 230 312 230 312 252 312 c 0,167,168
 263 312 263 312 282.5 311.5 c 128,-1,169
 302 311 302 311 306 311 c 0,132,133
EndSplineSet
Validated: 8388609
Substitution2: "Single Substitution lookup 21 subtable" abreve
Substitution2: "'aalt' Access All Alternates lookup 0 subtable" abreve
Position2: "'cpsp' Capital Spacing lookup 0 subtable" dx=5 dy=0 dh=10 dv=0
EndChar

StartChar: Acircumflex
Encoding: 194 194 4
Width: 505
Flags: MW
HStem: 0 21G<23 27 27 47 426 429 429 485> 242 66<120 165 122 165 155 165 155 185> 700 20G<233 248>
VStem: 21 476
LayerCount: 2
UndoRedoHistory
Layer: 0
Undoes
EndUndoes
Redoes
EndRedoes
EndUndoRedoHistory
UndoRedoHistory
Layer: 1
Undoes
EndUndoes
Redoes
EndRedoes
EndUndoRedoHistory
Fore
SplineSet
116 778 m 2,0,1
 117 778 117 778 123 781 c 128,-1,2
 129 784 129 784 133 786 c 128,-1,3
 137 788 137 788 145.5 793.5 c 128,-1,4
 154 799 154 799 164 807 c 1,5,6
 204 829 204 829 216 833 c 1,7,8
 225 837 225 837 234 837 c 1,9,10
 238 838 238 838 245 838 c 0,11,12
 250 838 250 838 255 836.5 c 128,-1,13
 260 835 260 835 263 834 c 128,-1,14
 266 833 266 833 272.5 829 c 128,-1,15
 279 825 279 825 283 823 c 1,16,17
 295 814 295 814 350 780 c 0,18,19
 354 778 l 0,20,21
 358 776 358 776 360.5 773.5 c 128,-1,22
 363 771 363 771 367.5 768.5 c 128,-1,23
 372 766 372 766 374.5 763.5 c 128,-1,24
 377 761 377 761 379.5 758 c 128,-1,25
 382 755 382 755 383 752 c 128,-1,26
 384 749 384 749 384 746 c 0,27,28
 380 731 380 731 368 731 c 0,29,30
 360 731 360 731 341 738 c 1,31,-1
 314 745 l 1,32,33
 300 750 300 750 279 763 c 1,34,-1
 247 778 l 1,35,-1
 201 757 l 1,36,37
 180 746 180 746 144 736 c 1,38,39
 124 733 124 733 106 733 c 0,40,41
 95 733 95 733 88.5 738 c 128,-1,42
 82 743 82 743 82 749 c 0,43,44
 82 757 82 757 89 761 c 2,45,-1
 116 778 l 2,0,1
36 69 m 2,46,47
 37 72 37 72 40 81.5 c 128,-1,48
 43 91 43 91 45.5 100.5 c 128,-1,49
 48 110 48 110 50 118 c 0,50,51
 53 138 53 138 69 191 c 0,52,53
 71 199 71 199 79 224.5 c 128,-1,54
 87 250 87 250 93 271.5 c 128,-1,55
 99 293 99 293 101 306 c 1,56,57
 104 322 104 322 114.5 356 c 128,-1,58
 125 390 125 390 127 401 c 0,59,60
 127 404 127 404 154 504 c 1,61,62
 173 564 173 564 177 574 c 0,63,64
 178 577 178 577 185.5 598.5 c 128,-1,65
 193 620 193 620 199.5 640 c 128,-1,66
 206 660 206 660 208 672 c 1,67,68
 215 696 215 696 222.5 708 c 128,-1,69
 230 720 230 720 243 720 c 0,70,71
 245 720 245 720 247 719 c 128,-1,72
 249 718 249 718 250.5 715 c 128,-1,73
 252 712 252 712 253.5 709.5 c 128,-1,74
 255 707 255 707 257.5 701.5 c 128,-1,75
 260 696 260 696 261.5 692 c 128,-1,76
 263 688 263 688 265.5 681 c 128,-1,77
 268 674 268 674 270 670 c 0,78,79
 275 659 275 659 283 632.5 c 128,-1,80
 291 606 291 606 298 578.5 c 128,-1,81
 305 551 305 551 306 547 c 0,82,83
 307 537 307 537 331.5 468.5 c 128,-1,84
 356 400 356 400 358 394 c 129,-1,85
 360 388 360 388 372 355.5 c 128,-1,86
 384 323 384 323 395.5 292.5 c 128,-1,87
 407 262 407 262 412 251 c 1,88,89
 451 133 451 133 453 123 c 0,90,91
 456 109 456 109 465 85.5 c 128,-1,92
 474 62 474 62 483.5 39 c 128,-1,93
 493 16 493 16 493 14 c 0,94,95
 496 7 496 7 496 4 c 0,96,97
 496 0 496 0 485 0 c 2,98,-1
 429 0 l 2,99,100
 421 0 421 0 418 9 c 0,101,102
 414 21 414 21 407 45 c 1,103,104
 397 72 397 72 395 90 c 1,105,106
 387 132 387 132 374 158 c 1,107,108
 364 180 364 180 358 201 c 2,109,-1
 349 230 l 1,110,111
 344 241 344 241 341.5 243.5 c 128,-1,112
 339 246 339 246 333 246 c 0,113,114
 312 246 312 246 302 245 c 0,115,116
 268 243 268 243 259 243 c 1,117,118
 251 242 251 242 185 242 c 2,119,-1
 124 242 l 1,120,-1
 122 242 l 2,121,122
 116 242 116 242 113 231 c 1,123,-1
 111 221 l 1,124,-1
 107 202 l 1,125,126
 105 194 105 194 95 149 c 128,-1,127
 85 104 85 104 84 100 c 1,128,129
 82 79 82 79 75 67 c 0,130,131
 74 65 74 65 65 35 c 1,132,133
 63 29 63 29 58 9 c 1,134,135
 55 1 55 1 53 0 c 0,136,137
 51 0 51 0 47 0 c 2,138,-1
 27 0 l 2,139,140
 21 0 21 0 21 6 c 0,141,142
 21 9 21 9 22 13 c 1,143,144
 22 16 22 16 23 18 c 0,145,-1
 24 23 l 0,146,147
 25 28 25 28 27 32 c 1,148,-1
 36 69 l 2,46,47
306 311 m 0,149,150
 319 311 319 311 319 318 c 0,151,152
 319 323 319 323 312 340 c 0,153,154
 308 349 308 349 294.5 393.5 c 128,-1,155
 281 438 281 438 276 453 c 1,156,157
 268 477 268 477 255.5 521 c 128,-1,158
 243 565 243 565 241 577 c 1,159,160
 227 630 227 630 221 630 c 0,161,162
 219 630 219 630 217 624 c 128,-1,163
 215 618 215 618 211 602.5 c 128,-1,164
 207 587 207 587 205 581 c 1,165,166
 202 565 202 565 187.5 514 c 128,-1,167
 173 463 173 463 167 445 c 1,168,169
 163 426 163 426 151.5 383.5 c 128,-1,170
 140 341 140 341 134 325 c 0,171,172
 132 319 132 319 132 318 c 0,173,174
 132 314 132 314 134 312 c 128,-1,175
 136 310 136 310 140 309 c 128,-1,176
 144 308 144 308 146.5 308 c 128,-1,177
 149 308 149 308 154 308 c 128,-1,178
 159 308 159 308 160 308 c 0,179,180
 164 308 164 308 187.5 309 c 128,-1,181
 211 310 211 310 218 310 c 1,182,183
 230 312 230 312 252 312 c 0,184,185
 263 312 263 312 282.5 311.5 c 128,-1,186
 302 311 302 311 306 311 c 0,149,150
EndSplineSet
Validated: 1
Substitution2: "Single Substitution lookup 21 subtable" acircumflex
Substitution2: "'aalt' Access All Alternates lookup 0 subtable" acircumflex
Position2: "'cpsp' Capital Spacing lookup 0 subtable" dx=5 dy=0 dh=10 dv=0
EndChar

StartChar: Adieresis
Encoding: 196 196 5
Width: 505
Flags: MW
HStem: 0 21G<23 27 27 47 426 429 429 485> 242 66<120 165 122 165 155 165 155 185> 700 20G<122 147 233 248> 720 113<122 146 116 147 116 248> 724 116<367 381>
VStem: 77 120<762 792> 306 117<766 793 765 806>
LayerCount: 2
UndoRedoHistory
Layer: 0
Undoes
EndUndoes
Redoes
EndRedoes
EndUndoRedoHistory
UndoRedoHistory
Layer: 1
Undoes
EndUndoes
Redoes
EndRedoes
EndUndoRedoHistory
Fore
SplineSet
306 778 m 0,0,1
 306 840 306 840 380 840 c 0,2,3
 399 840 399 840 411 821 c 128,-1,4
 423 802 423 802 423 778 c 0,5,6
 423 756 423 756 406.5 740 c 128,-1,7
 390 724 390 724 360 724 c 0,8,9
 331 724 331 724 318.5 740 c 128,-1,10
 306 756 306 756 306 778 c 0,0,1
197 782 m 0,11,12
 197 755 197 755 176.5 737.5 c 128,-1,13
 156 720 156 720 135 720 c 0,14,15
 113 720 113 720 95 736 c 128,-1,16
 77 752 77 752 77 778 c 0,17,18
 77 799 77 799 92.5 816 c 128,-1,19
 108 833 108 833 131 833 c 0,20,21
 157 833 157 833 177 819.5 c 128,-1,22
 197 806 197 806 197 782 c 0,11,12
36 69 m 2,23,24
 37 72 37 72 40 81.5 c 128,-1,25
 43 91 43 91 45.5 100.5 c 128,-1,26
 48 110 48 110 50 118 c 0,27,28
 53 138 53 138 69 191 c 0,29,30
 71 199 71 199 79 224.5 c 128,-1,31
 87 250 87 250 93 271.5 c 128,-1,32
 99 293 99 293 101 306 c 1,33,34
 104 322 104 322 114.5 356 c 128,-1,35
 125 390 125 390 127 401 c 0,36,37
 127 404 127 404 154 504 c 1,38,39
 173 564 173 564 177 574 c 0,40,41
 178 577 178 577 185.5 598.5 c 128,-1,42
 193 620 193 620 199.5 640 c 128,-1,43
 206 660 206 660 208 672 c 1,44,45
 215 696 215 696 222.5 708 c 128,-1,46
 230 720 230 720 243 720 c 0,47,48
 245 720 245 720 247 719 c 128,-1,49
 249 718 249 718 250.5 715 c 128,-1,50
 252 712 252 712 253.5 709.5 c 128,-1,51
 255 707 255 707 257.5 701.5 c 128,-1,52
 260 696 260 696 261.5 692 c 128,-1,53
 263 688 263 688 265.5 681 c 128,-1,54
 268 674 268 674 270 670 c 0,55,56
 275 659 275 659 283 632.5 c 128,-1,57
 291 606 291 606 298 578.5 c 128,-1,58
 305 551 305 551 306 547 c 0,59,60
 307 537 307 537 331.5 468.5 c 128,-1,61
 356 400 356 400 358 394 c 129,-1,62
 360 388 360 388 372 355.5 c 128,-1,63
 384 323 384 323 395.5 292.5 c 128,-1,64
 407 262 407 262 412 251 c 1,65,66
 451 133 451 133 453 123 c 0,67,68
 456 109 456 109 465 85.5 c 128,-1,69
 474 62 474 62 483.5 39 c 128,-1,70
 493 16 493 16 493 14 c 0,71,72
 496 7 496 7 496 4 c 0,73,74
 496 0 496 0 485 0 c 2,75,-1
 429 0 l 2,76,77
 421 0 421 0 418 9 c 0,78,79
 414 21 414 21 407 45 c 1,80,81
 397 72 397 72 395 90 c 1,82,83
 387 132 387 132 374 158 c 1,84,85
 364 180 364 180 358 201 c 2,86,-1
 349 230 l 1,87,88
 344 241 344 241 341.5 243.5 c 128,-1,89
 339 246 339 246 333 246 c 0,90,91
 312 246 312 246 302 245 c 0,92,93
 268 243 268 243 259 243 c 1,94,95
 251 242 251 242 185 242 c 2,96,-1
 124 242 l 1,97,-1
 122 242 l 2,98,99
 116 242 116 242 113 231 c 1,100,-1
 111 221 l 1,101,-1
 107 202 l 1,102,103
 105 194 105 194 95 149 c 128,-1,104
 85 104 85 104 84 100 c 1,105,106
 82 79 82 79 75 67 c 0,107,108
 74 65 74 65 65 35 c 1,109,110
 63 29 63 29 58 9 c 1,111,112
 55 1 55 1 53 0 c 0,113,114
 51 0 51 0 47 0 c 2,115,-1
 27 0 l 2,116,117
 21 0 21 0 21 6 c 0,118,119
 21 9 21 9 22 13 c 1,120,121
 22 16 22 16 23 18 c 0,122,-1
 24 23 l 0,123,124
 25 28 25 28 27 32 c 1,125,-1
 36 69 l 2,23,24
306 311 m 0,126,127
 319 311 319 311 319 318 c 0,128,129
 319 323 319 323 312 340 c 0,130,131
 308 349 308 349 294.5 393.5 c 128,-1,132
 281 438 281 438 276 453 c 1,133,134
 268 477 268 477 255.5 521 c 128,-1,135
 243 565 243 565 241 577 c 1,136,137
 227 630 227 630 221 630 c 0,138,139
 219 630 219 630 217 624 c 128,-1,140
 215 618 215 618 211 602.5 c 128,-1,141
 207 587 207 587 205 581 c 1,142,143
 202 565 202 565 187.5 514 c 128,-1,144
 173 463 173 463 167 445 c 1,145,146
 163 426 163 426 151.5 383.5 c 128,-1,147
 140 341 140 341 134 325 c 0,148,149
 132 319 132 319 132 318 c 0,150,151
 132 314 132 314 134 312 c 128,-1,152
 136 310 136 310 140 309 c 128,-1,153
 144 308 144 308 146.5 308 c 128,-1,154
 149 308 149 308 154 308 c 128,-1,155
 159 308 159 308 160 308 c 0,156,157
 164 308 164 308 187.5 309 c 128,-1,158
 211 310 211 310 218 310 c 1,159,160
 230 312 230 312 252 312 c 0,161,162
 263 312 263 312 282.5 311.5 c 128,-1,163
 302 311 302 311 306 311 c 0,126,127
EndSplineSet
Validated: 8388609
Substitution2: "Single Substitution lookup 21 subtable" adieresis
Substitution2: "'aalt' Access All Alternates lookup 0 subtable" adieresis
Position2: "'cpsp' Capital Spacing lookup 0 subtable" dx=5 dy=0 dh=10 dv=0
EndChar

StartChar: Agrave
Encoding: 192 192 6
Width: 505
Flags: MW
HStem: 0 21G<23 27 27 47 426 429 429 485> 242 66<120 165 122 165 155 165 155 185> 700 20G<233 248> 752 85
VStem: 21 476
LayerCount: 2
UndoRedoHistory
Layer: 0
Undoes
EndUndoes
Redoes
EndRedoes
EndUndoRedoHistory
UndoRedoHistory
Layer: 1
Undoes
EndUndoes
Redoes
EndRedoes
EndUndoRedoHistory
Fore
SplineSet
232 760 m 1,0,1
 210 770 210 770 192.5 774 c 128,-1,2
 175 778 175 778 170 781 c 1,3,4
 158 784 158 784 140 791.5 c 128,-1,5
 122 799 122 799 120 804 c 1,6,7
 117 810 117 810 117 815 c 0,8,9
 117 829 117 829 136 837 c 1,10,11
 151 845 151 845 158 845 c 0,12,13
 162 845 162 845 166.5 844 c 128,-1,14
 171 843 171 843 178 840.5 c 128,-1,15
 185 838 185 838 189 837 c 1,16,17
 235 817 235 817 275 808 c 0,18,19
 286 804 l 0,20,21
 297 800 297 800 303 797 c 128,-1,22
 309 794 309 794 316.5 788 c 128,-1,23
 324 782 324 782 325 775 c 0,24,25
 327 765 327 765 327 762 c 0,26,27
 327 750 327 750 316.5 747.5 c 128,-1,28
 306 745 306 745 289 748 c 1,29,30
 287 748 287 748 285 748 c 0,31,32
 274 748 274 748 254 752 c 1,33,-1
 232 760 l 1,0,1
36 69 m 2,34,35
 37 72 37 72 40 81.5 c 128,-1,36
 43 91 43 91 45.5 100.5 c 128,-1,37
 48 110 48 110 50 118 c 0,38,39
 53 138 53 138 69 191 c 0,40,41
 71 199 71 199 79 224.5 c 128,-1,42
 87 250 87 250 93 271.5 c 128,-1,43
 99 293 99 293 101 306 c 1,44,45
 104 322 104 322 114.5 356 c 128,-1,46
 125 390 125 390 127 401 c 0,47,48
 127 404 127 404 154 504 c 1,49,50
 173 564 173 564 177 574 c 0,51,52
 178 577 178 577 185.5 598.5 c 128,-1,53
 193 620 193 620 199.5 640 c 128,-1,54
 206 660 206 660 208 672 c 1,55,56
 215 696 215 696 222.5 708 c 128,-1,57
 230 720 230 720 243 720 c 0,58,59
 245 720 245 720 247 719 c 128,-1,60
 249 718 249 718 250.5 715 c 128,-1,61
 252 712 252 712 253.5 709.5 c 128,-1,62
 255 707 255 707 257.5 701.5 c 128,-1,63
 260 696 260 696 261.5 692 c 128,-1,64
 263 688 263 688 265.5 681 c 128,-1,65
 268 674 268 674 270 670 c 0,66,67
 275 659 275 659 283 632.5 c 128,-1,68
 291 606 291 606 298 578.5 c 128,-1,69
 305 551 305 551 306 547 c 0,70,71
 307 537 307 537 331.5 468.5 c 128,-1,72
 356 400 356 400 358 394 c 129,-1,73
 360 388 360 388 372 355.5 c 128,-1,74
 384 323 384 323 395.5 292.5 c 128,-1,75
 407 262 407 262 412 251 c 1,76,77
 451 133 451 133 453 123 c 0,78,79
 456 109 456 109 465 85.5 c 128,-1,80
 474 62 474 62 483.5 39 c 128,-1,81
 493 16 493 16 493 14 c 0,82,83
 496 7 496 7 496 4 c 0,84,85
 496 0 496 0 485 0 c 2,86,-1
 429 0 l 2,87,88
 421 0 421 0 418 9 c 0,89,90
 414 21 414 21 407 45 c 1,91,92
 397 72 397 72 395 90 c 1,93,94
 387 132 387 132 374 158 c 1,95,96
 364 180 364 180 358 201 c 2,97,-1
 349 230 l 1,98,99
 344 241 344 241 341.5 243.5 c 128,-1,100
 339 246 339 246 333 246 c 0,101,102
 312 246 312 246 302 245 c 0,103,104
 268 243 268 243 259 243 c 1,105,106
 251 242 251 242 185 242 c 2,107,-1
 124 242 l 1,108,-1
 122 242 l 2,109,110
 116 242 116 242 113 231 c 1,111,-1
 111 221 l 1,112,-1
 107 202 l 1,113,114
 105 194 105 194 95 149 c 128,-1,115
 85 104 85 104 84 100 c 1,116,117
 82 79 82 79 75 67 c 0,118,119
 74 65 74 65 65 35 c 1,120,121
 63 29 63 29 58 9 c 1,122,123
 55 1 55 1 53 0 c 0,124,125
 51 0 51 0 47 0 c 2,126,-1
 27 0 l 2,127,128
 21 0 21 0 21 6 c 0,129,130
 21 9 21 9 22 13 c 1,131,132
 22 16 22 16 23 18 c 0,133,-1
 24 23 l 0,134,135
 25 28 25 28 27 32 c 1,136,-1
 36 69 l 2,34,35
306 311 m 0,137,138
 319 311 319 311 319 318 c 0,139,140
 319 323 319 323 312 340 c 0,141,142
 308 349 308 349 294.5 393.5 c 128,-1,143
 281 438 281 438 276 453 c 1,144,145
 268 477 268 477 255.5 521 c 128,-1,146
 243 565 243 565 241 577 c 1,147,148
 227 630 227 630 221 630 c 0,149,150
 219 630 219 630 217 624 c 128,-1,151
 215 618 215 618 211 602.5 c 128,-1,152
 207 587 207 587 205 581 c 1,153,154
 202 565 202 565 187.5 514 c 128,-1,155
 173 463 173 463 167 445 c 1,156,157
 163 426 163 426 151.5 383.5 c 128,-1,158
 140 341 140 341 134 325 c 0,159,160
 132 319 132 319 132 318 c 0,161,162
 132 314 132 314 134 312 c 128,-1,163
 136 310 136 310 140 309 c 128,-1,164
 144 308 144 308 146.5 308 c 128,-1,165
 149 308 149 308 154 308 c 128,-1,166
 159 308 159 308 160 308 c 0,167,168
 164 308 164 308 187.5 309 c 128,-1,169
 211 310 211 310 218 310 c 1,170,171
 230 312 230 312 252 312 c 0,172,173
 263 312 263 312 282.5 311.5 c 128,-1,174
 302 311 302 311 306 311 c 0,137,138
EndSplineSet
Validated: 1
Substitution2: "Single Substitution lookup 21 subtable" agrave
Substitution2: "'aalt' Access All Alternates lookup 0 subtable" agrave
Position2: "'cpsp' Capital Spacing lookup 0 subtable" dx=5 dy=0 dh=10 dv=0
EndChar

StartChar: Amacron
Encoding: 256 256 7
Width: 506
Flags: MW
HStem: 0 21G<23 27 27 47 426 429 429 485> 242 66<120 165 122 165 155 165 155 185> 700 20G<233 248> 775 56<148 152 152 284>
VStem: 21 476
LayerCount: 2
UndoRedoHistory
Layer: 0
Undoes
EndUndoes
Redoes
EndRedoes
EndUndoRedoHistory
UndoRedoHistory
Layer: 1
Undoes
EndUndoes
Redoes
EndRedoes
EndUndoRedoHistory
Fore
SplineSet
372 831 m 2,0,1
 373 831 373 831 375.5 831.5 c 128,-1,2
 378 832 378 832 379 832 c 0,3,4
 384 832 384 832 386.5 829.5 c 128,-1,5
 389 827 389 827 389.5 824 c 128,-1,6
 390 821 390 821 390 815 c 2,7,-1
 390 785 l 2,8,9
 390 778 390 778 386 775 c 128,-1,10
 382 772 382 772 368 772 c 0,11,12
 360 772 360 772 328.5 773.5 c 128,-1,13
 297 775 297 775 284 775 c 2,14,-1
 152 775 l 2,15,16
 106 775 106 775 101 772 c 1,17,18
 93 772 93 772 93 785 c 2,19,-1
 93 812 l 2,20,21
 93 831 93 831 104 831 c 2,22,-1
 372 831 l 2,0,1
36 69 m 2,23,24
 37 72 37 72 40 81.5 c 128,-1,25
 43 91 43 91 45.5 100.5 c 128,-1,26
 48 110 48 110 50 118 c 0,27,28
 53 138 53 138 69 191 c 0,29,30
 71 199 71 199 79 224.5 c 128,-1,31
 87 250 87 250 93 271.5 c 128,-1,32
 99 293 99 293 101 306 c 1,33,34
 104 322 104 322 114.5 356 c 128,-1,35
 125 390 125 390 127 401 c 0,36,37
 127 404 127 404 154 504 c 1,38,39
 173 564 173 564 177 574 c 0,40,41
 178 577 178 577 185.5 598.5 c 128,-1,42
 193 620 193 620 199.5 640 c 128,-1,43
 206 660 206 660 208 672 c 1,44,45
 215 696 215 696 222.5 708 c 128,-1,46
 230 720 230 720 243 720 c 0,47,48
 245 720 245 720 247 719 c 128,-1,49
 249 718 249 718 250.5 715 c 128,-1,50
 252 712 252 712 253.5 709.5 c 128,-1,51
 255 707 255 707 257.5 701.5 c 128,-1,52
 260 696 260 696 261.5 692 c 128,-1,53
 263 688 263 688 265.5 681 c 128,-1,54
 268 674 268 674 270 670 c 0,55,56
 275 659 275 659 283 632.5 c 128,-1,57
 291 606 291 606 298 578.5 c 128,-1,58
 305 551 305 551 306 547 c 0,59,60
 307 537 307 537 331.5 468.5 c 128,-1,61
 356 400 356 400 358 394 c 129,-1,62
 360 388 360 388 372 355.5 c 128,-1,63
 384 323 384 323 395.5 292.5 c 128,-1,64
 407 262 407 262 412 251 c 1,65,66
 451 133 451 133 453 123 c 0,67,68
 456 109 456 109 465 85.5 c 128,-1,69
 474 62 474 62 483.5 39 c 128,-1,70
 493 16 493 16 493 14 c 0,71,72
 496 7 496 7 496 4 c 0,73,74
 496 0 496 0 485 0 c 2,75,-1
 429 0 l 2,76,77
 421 0 421 0 418 9 c 0,78,79
 414 21 414 21 407 45 c 1,80,81
 397 72 397 72 395 90 c 1,82,83
 387 132 387 132 374 158 c 1,84,85
 364 180 364 180 358 201 c 2,86,-1
 349 230 l 1,87,88
 344 241 344 241 341.5 243.5 c 128,-1,89
 339 246 339 246 333 246 c 0,90,91
 312 246 312 246 302 245 c 0,92,93
 268 243 268 243 259 243 c 1,94,95
 251 242 251 242 185 242 c 2,96,-1
 124 242 l 1,97,-1
 122 242 l 2,98,99
 116 242 116 242 113 231 c 1,100,-1
 111 221 l 1,101,-1
 107 202 l 1,102,103
 105 194 105 194 95 149 c 128,-1,104
 85 104 85 104 84 100 c 1,105,106
 82 79 82 79 75 67 c 0,107,108
 74 65 74 65 65 35 c 1,109,110
 63 29 63 29 58 9 c 1,111,112
 55 1 55 1 53 0 c 0,113,114
 51 0 51 0 47 0 c 2,115,-1
 27 0 l 2,116,117
 21 0 21 0 21 6 c 0,118,119
 21 9 21 9 22 13 c 1,120,121
 22 16 22 16 23 18 c 0,122,-1
 24 23 l 0,123,124
 25 28 25 28 27 32 c 1,125,-1
 36 69 l 2,23,24
306 311 m 0,126,127
 319 311 319 311 319 318 c 0,128,129
 319 323 319 323 312 340 c 0,130,131
 308 349 308 349 294.5 393.5 c 128,-1,132
 281 438 281 438 276 453 c 1,133,134
 268 477 268 477 255.5 521 c 128,-1,135
 243 565 243 565 241 577 c 1,136,137
 227 630 227 630 221 630 c 0,138,139
 219 630 219 630 217 624 c 128,-1,140
 215 618 215 618 211 602.5 c 128,-1,141
 207 587 207 587 205 581 c 1,142,143
 202 565 202 565 187.5 514 c 128,-1,144
 173 463 173 463 167 445 c 1,145,146
 163 426 163 426 151.5 383.5 c 128,-1,147
 140 341 140 341 134 325 c 0,148,149
 132 319 132 319 132 318 c 0,150,151
 132 314 132 314 134 312 c 128,-1,152
 136 310 136 310 140 309 c 128,-1,153
 144 308 144 308 146.5 308 c 128,-1,154
 149 308 149 308 154 308 c 128,-1,155
 159 308 159 308 160 308 c 0,156,157
 164 308 164 308 187.5 309 c 128,-1,158
 211 310 211 310 218 310 c 1,159,160
 230 312 230 312 252 312 c 0,161,162
 263 312 263 312 282.5 311.5 c 128,-1,163
 302 311 302 311 306 311 c 0,126,127
EndSplineSet
Validated: 1
Substitution2: "Single Substitution lookup 21 subtable" amacron
Substitution2: "'aalt' Access All Alternates lookup 0 subtable" amacron
Position2: "'cpsp' Capital Spacing lookup 0 subtable" dx=5 dy=0 dh=10 dv=0
EndChar

StartChar: Aogonek
Encoding: 260 260 8
Width: 506
Flags: MW
HStem: -171 74 0 21G<23 27 27 47 468 485 468 468> 242 66<120 165 122 165 155 165 155 185> 700 20G<233 248>
VStem: 391 71<-91 -53>
LayerCount: 2
UndoRedoHistory
Layer: 0
Undoes
EndUndoes
Redoes
EndRedoes
EndUndoRedoHistory
UndoRedoHistory
Layer: 1
Undoes
EndUndoes
Redoes
EndRedoes
EndUndoRedoHistory
Fore
SplineSet
468 0 m 1,0,1
 468 -5 468 -5 466 -18.5 c 128,-1,2
 464 -32 464 -32 463 -38 c 128,-1,3
 462 -44 462 -44 462 -56 c 0,4,5
 462 -96 462 -96 482 -97 c 0,6,7
 487 -97 487 -97 492 -97 c 0,8,9
 507 -97 507 -97 519 -95 c 0,10,11
 535 -92 535 -92 541.5 -87.5 c 128,-1,12
 548 -83 548 -83 553.5 -78.5 c 128,-1,13
 559 -74 559 -74 561 -74 c 0,14,15
 567 -74 567 -74 574 -83 c 128,-1,16
 581 -92 581 -92 581 -99 c 0,17,18
 581 -119 581 -119 541 -144 c 128,-1,19
 501 -169 501 -169 473 -171 c 1,20,21
 471 -171 471 -171 469 -171 c 0,22,23
 432 -171 432 -171 413 -155 c 0,24,25
 393 -138 393 -138 391 -91 c 1,26,27
 391 -72 391 -72 400 -45 c 0,28,29
 405 -28 405 -28 414 -8 c 1,30,-1
 420 4 l 2,31,32
 420 5 420 5 418 9 c 1,33,34
 414 21 414 21 407 45 c 1,35,36
 397 72 397 72 395 90 c 1,37,38
 387 132 387 132 374 158 c 1,39,40
 364 180 364 180 358 201 c 2,41,-1
 349 230 l 1,42,43
 344 241 344 241 341.5 243.5 c 128,-1,44
 339 246 339 246 333 246 c 0,45,46
 312 246 312 246 302 245 c 0,47,48
 268 243 268 243 259 243 c 1,49,50
 251 242 251 242 185 242 c 2,51,-1
 124 242 l 1,52,-1
 122 242 l 2,53,54
 116 242 116 242 113 231 c 1,55,-1
 111 221 l 1,56,-1
 107 202 l 1,57,58
 105 194 105 194 95 149 c 128,-1,59
 85 104 85 104 84 100 c 1,60,61
 82 79 82 79 75 67 c 0,62,63
 74 65 74 65 65 35 c 1,64,65
 63 29 63 29 58 9 c 1,66,67
 55 1 55 1 53 0 c 0,68,69
 51 0 51 0 47 0 c 2,70,-1
 27 0 l 2,71,72
 21 0 21 0 21 6 c 0,73,74
 21 9 21 9 22 13 c 1,75,76
 22 16 22 16 23 18 c 0,77,-1
 24 23 l 0,78,79
 25 28 25 28 27 32 c 1,80,-1
 36 69 l 2,81,82
 37 72 37 72 40 81.5 c 128,-1,83
 43 91 43 91 45.5 100.5 c 128,-1,84
 48 110 48 110 50 118 c 0,85,86
 53 138 53 138 69 191 c 0,87,88
 71 199 71 199 79 224.5 c 128,-1,89
 87 250 87 250 93 271.5 c 128,-1,90
 99 293 99 293 101 306 c 1,91,92
 104 322 104 322 114.5 356 c 128,-1,93
 125 390 125 390 127 401 c 0,94,95
 127 404 127 404 154 504 c 1,96,97
 173 564 173 564 177 574 c 0,98,99
 178 577 178 577 185.5 598.5 c 128,-1,100
 193 620 193 620 199.5 640 c 128,-1,101
 206 660 206 660 208 672 c 1,102,103
 215 696 215 696 222.5 708 c 128,-1,104
 230 720 230 720 243 720 c 0,105,106
 245 720 245 720 247 719 c 128,-1,107
 249 718 249 718 250.5 715 c 128,-1,108
 252 712 252 712 253.5 709.5 c 128,-1,109
 255 707 255 707 257.5 701.5 c 128,-1,110
 260 696 260 696 261.5 692 c 128,-1,111
 263 688 263 688 265.5 681 c 128,-1,112
 268 674 268 674 270 670 c 0,113,114
 275 659 275 659 283 632.5 c 128,-1,115
 291 606 291 606 298 578.5 c 128,-1,116
 305 551 305 551 306 547 c 0,117,118
 307 537 307 537 331.5 468.5 c 128,-1,119
 356 400 356 400 358 394 c 129,-1,120
 360 388 360 388 372 355.5 c 128,-1,121
 384 323 384 323 395.5 292.5 c 128,-1,122
 407 262 407 262 412 251 c 1,123,124
 451 133 451 133 453 123 c 0,125,126
 456 109 456 109 465 85.5 c 128,-1,127
 474 62 474 62 483.5 39 c 128,-1,128
 493 16 493 16 493 14 c 0,129,130
 496 7 496 7 496 4 c 0,131,132
 496 0 496 0 485 0 c 2,133,-1
 468 0 l 1,0,1
306 311 m 0,134,135
 319 311 319 311 319 318 c 0,136,137
 319 320 319 320 312 340 c 1,138,139
 308 349 308 349 294.5 393.5 c 128,-1,140
 281 438 281 438 276 453 c 1,141,142
 268 477 268 477 255.5 521 c 128,-1,143
 243 565 243 565 241 577 c 1,144,145
 227 630 227 630 221 630 c 0,146,147
 219 630 219 630 217 624 c 128,-1,148
 215 618 215 618 211 602.5 c 128,-1,149
 207 587 207 587 205 581 c 1,150,151
 202 565 202 565 187.5 514 c 128,-1,152
 173 463 173 463 167 445 c 1,153,154
 163 426 163 426 151.5 383.5 c 128,-1,155
 140 341 140 341 134 325 c 0,156,157
 132 319 132 319 132 318 c 0,158,159
 132 314 132 314 134 312 c 128,-1,160
 136 310 136 310 140 309 c 128,-1,161
 144 308 144 308 146.5 308 c 128,-1,162
 149 308 149 308 154 308 c 128,-1,163
 159 308 159 308 160 308 c 0,164,165
 164 308 164 308 187.5 309 c 128,-1,166
 211 310 211 310 218 310 c 1,167,168
 230 312 230 312 252 312 c 0,169,170
 263 312 263 312 282.5 311.5 c 128,-1,171
 302 311 302 311 306 311 c 0,134,135
EndSplineSet
Validated: 1
Substitution2: "Single Substitution lookup 21 subtable" aogonek
Substitution2: "'aalt' Access All Alternates lookup 0 subtable" aogonek
Position2: "'cpsp' Capital Spacing lookup 0 subtable" dx=5 dy=0 dh=10 dv=0
EndChar

StartChar: Aring
Encoding: 197 197 9
Width: 505
Flags: MW
HStem: 0 21G<23 27 27 47 426 429 429 485> 242 66<120 165 122 165 155 165 155 185> 696 50<244 260> 790 50<244 261>
VStem: 176 49<762 764> 278 48<763 773>
LayerCount: 2
UndoRedoHistory
Layer: 0
Undoes
EndUndoes
Redoes
EndRedoes
EndUndoRedoHistory
UndoRedoHistory
Layer: 1
Undoes
EndUndoes
Redoes
EndRedoes
EndUndoRedoHistory
Fore
SplineSet
36 69 m 2,0,1
 37 72 37 72 40 81.5 c 128,-1,2
 43 91 43 91 45.5 100.5 c 128,-1,3
 48 110 48 110 50 118 c 0,4,5
 53 138 53 138 69 191 c 0,6,7
 71 199 71 199 79 224.5 c 128,-1,8
 87 250 87 250 93 271.5 c 128,-1,9
 99 293 99 293 101 306 c 1,10,11
 104 322 104 322 114.5 356 c 128,-1,12
 125 390 125 390 127 401 c 0,13,14
 127 404 127 404 154 504 c 1,15,16
 173 564 173 564 177 574 c 0,17,18
 178 577 178 577 185.5 598.5 c 128,-1,19
 193 620 193 620 199.5 640 c 128,-1,20
 206 660 206 660 208 672 c 1,21,22
 211 687 211 687 219 702 c 1,23,24
 200 711 200 711 188 728 c 128,-1,25
 176 745 176 745 176 764 c 1,26,27
 177 781 177 781 186 802 c 1,28,29
 201 840 201 840 248 840 c 0,30,31
 268 840 268 840 283.5 833.5 c 128,-1,32
 299 827 299 827 306.5 818.5 c 128,-1,33
 314 810 314 810 319 799 c 128,-1,34
 324 788 324 788 325 781 c 128,-1,35
 326 774 326 774 326 768 c 0,36,37
 326 755 326 755 315.5 733.5 c 128,-1,38
 305 712 305 712 283 701 c 1,39,40
 275 698 275 698 260 696 c 1,41,-1
 270 670 l 2,42,43
 275 659 275 659 283 632.5 c 128,-1,44
 291 606 291 606 298 578.5 c 128,-1,45
 305 551 305 551 306 547 c 0,46,47
 307 537 307 537 331.5 468.5 c 128,-1,48
 356 400 356 400 358 394 c 129,-1,49
 360 388 360 388 372 355.5 c 128,-1,50
 384 323 384 323 395.5 292.5 c 128,-1,51
 407 262 407 262 412 251 c 1,52,53
 451 133 451 133 453 123 c 0,54,55
 456 109 456 109 465 85.5 c 128,-1,56
 474 62 474 62 483.5 39 c 128,-1,57
 493 16 493 16 493 14 c 0,58,59
 496 7 496 7 496 4 c 0,60,61
 496 0 496 0 485 0 c 2,62,-1
 429 0 l 2,63,64
 421 0 421 0 418 9 c 0,65,66
 414 21 414 21 407 45 c 1,67,68
 397 72 397 72 395 90 c 1,69,70
 387 132 387 132 374 158 c 1,71,72
 364 180 364 180 358 201 c 2,73,-1
 349 230 l 1,74,75
 344 241 344 241 341.5 243.5 c 128,-1,76
 339 246 339 246 333 246 c 0,77,78
 312 246 312 246 302 245 c 0,79,80
 268 243 268 243 259 243 c 1,81,82
 251 242 251 242 185 242 c 2,83,-1
 124 242 l 1,84,-1
 122 242 l 2,85,86
 116 242 116 242 113 231 c 1,87,-1
 111 221 l 1,88,-1
 107 202 l 1,89,90
 105 194 105 194 95 149 c 128,-1,91
 85 104 85 104 84 100 c 1,92,93
 82 79 82 79 75 67 c 0,94,95
 74 65 74 65 65 35 c 1,96,97
 63 29 63 29 58 9 c 1,98,99
 55 1 55 1 53 0 c 0,100,101
 51 0 51 0 47 0 c 2,102,-1
 27 0 l 2,103,104
 21 0 21 0 21 6 c 0,105,106
 21 9 21 9 22 13 c 1,107,108
 22 16 22 16 23 18 c 0,109,-1
 24 23 l 0,110,111
 25 28 25 28 27 32 c 1,112,-1
 36 69 l 2,0,1
253 790 m 0,113,114
 239 790 239 790 232 783.5 c 128,-1,115
 225 777 225 777 225 768 c 128,-1,116
 225 759 225 759 232.5 752.5 c 128,-1,117
 240 746 240 746 250 746 c 0,118,119
 253 746 253 746 257 747 c 2,120,-1
 261 747 l 2,121,-1
 266 750 l 0,122,123
 271 752 271 752 274.5 756.5 c 128,-1,124
 278 761 278 761 278 768 c 0,125,126
 278 776 278 776 271 783 c 128,-1,127
 264 790 264 790 253 790 c 0,113,114
306 311 m 0,128,129
 319 311 319 311 319 318 c 0,130,131
 319 320 319 320 318 323 c 128,-1,132
 317 326 317 326 315 331 c 128,-1,133
 313 336 313 336 312 340 c 1,134,135
 308 349 308 349 294.5 393.5 c 128,-1,136
 281 438 281 438 276 453 c 1,137,138
 268 477 268 477 255.5 521 c 128,-1,139
 243 565 243 565 241 577 c 1,140,141
 227 630 227 630 221 630 c 0,142,143
 219 630 219 630 217 624 c 128,-1,144
 215 618 215 618 211 602.5 c 128,-1,145
 207 587 207 587 205 581 c 1,146,147
 202 565 202 565 187.5 514 c 128,-1,148
 173 463 173 463 167 445 c 1,149,150
 163 426 163 426 151.5 383.5 c 128,-1,151
 140 341 140 341 134 325 c 0,152,153
 132 319 132 319 132 318 c 0,154,155
 132 314 132 314 134 312 c 128,-1,156
 136 310 136 310 140 309 c 128,-1,157
 144 308 144 308 146.5 308 c 128,-1,158
 149 308 149 308 154 308 c 128,-1,159
 159 308 159 308 160 308 c 0,160,161
 164 308 164 308 187.5 309 c 128,-1,162
 211 310 211 310 218 310 c 1,163,164
 230 312 230 312 252 312 c 0,165,166
 263 312 263 312 282.5 311.5 c 128,-1,167
 302 311 302 311 306 311 c 0,128,129
EndSplineSet
Validated: 1
Substitution2: "Single Substitution lookup 21 subtable" aring
Substitution2: "'aalt' Access All Alternates lookup 0 subtable" aring
Position2: "'cpsp' Capital Spacing lookup 0 subtable" dx=5 dy=0 dh=10 dv=0
EndChar

StartChar: Aringacute
Encoding: 506 506 10
Width: 506
Flags: MW
HStem: 0 21G<23 27 27 47 426 429 429 485> 242 66<120 165 122 165 155 165 155 185> 677 20G<259 259>
VStem: 164 49<762 764> 266 48<763 772 763 773>
LayerCount: 2
UndoRedoHistory
Layer: 0
Undoes
EndUndoes
Redoes
EndRedoes
EndUndoRedoHistory
UndoRedoHistory
Layer: 1
Undoes
EndUndoes
Redoes
EndRedoes
EndUndoRedoHistory
Fore
SplineSet
254 871 m 1,0,1
 275 878 275 878 289 878 c 1,2,3
 305 880 305 880 309 880 c 0,4,5
 320 880 320 880 324.5 874 c 128,-1,6
 329 868 329 868 326 852 c 1,7,8
 321 836 321 836 290 823 c 1,9,10
 299 814 299 814 305 802 c 128,-1,11
 311 790 311 790 312.5 782 c 128,-1,12
 314 774 314 774 314 768 c 0,13,14
 314 755 314 755 303.5 733.5 c 128,-1,15
 293 712 293 712 271 701 c 0,16,17
 266 698 266 698 259 697 c 1,18,-1
 270 670 l 2,19,20
 275 659 275 659 283 632.5 c 128,-1,21
 291 606 291 606 298 578.5 c 128,-1,22
 305 551 305 551 306 547 c 0,23,24
 307 537 307 537 331.5 468.5 c 128,-1,25
 356 400 356 400 358 394 c 129,-1,26
 360 388 360 388 372 355.5 c 128,-1,27
 384 323 384 323 395.5 292.5 c 128,-1,28
 407 262 407 262 412 251 c 1,29,30
 451 133 451 133 453 123 c 0,31,32
 456 109 456 109 465 85.5 c 128,-1,33
 474 62 474 62 483.5 39 c 128,-1,34
 493 16 493 16 493 14 c 0,35,36
 496 7 496 7 496 4 c 0,37,38
 496 0 496 0 485 0 c 2,39,-1
 429 0 l 2,40,41
 421 0 421 0 418 9 c 0,42,43
 414 21 414 21 407 45 c 1,44,45
 397 72 397 72 395 90 c 1,46,47
 387 132 387 132 374 158 c 1,48,49
 364 180 364 180 358 201 c 2,50,-1
 349 230 l 1,51,52
 344 241 344 241 341.5 243.5 c 128,-1,53
 339 246 339 246 333 246 c 0,54,55
 312 246 312 246 302 245 c 0,56,57
 268 243 268 243 259 243 c 1,58,59
 251 242 251 242 185 242 c 2,60,-1
 124 242 l 1,61,-1
 122 242 l 2,62,63
 116 242 116 242 113 231 c 1,64,-1
 111 221 l 1,65,-1
 107 202 l 1,66,67
 105 194 105 194 95 149 c 128,-1,68
 85 104 85 104 84 100 c 1,69,70
 82 79 82 79 75 67 c 0,71,72
 74 65 74 65 65 35 c 1,73,74
 63 29 63 29 58 9 c 1,75,76
 55 1 55 1 53 0 c 0,77,78
 51 0 51 0 47 0 c 2,79,-1
 27 0 l 2,80,81
 21 0 21 0 21 6 c 0,82,83
 21 9 21 9 22 13 c 1,84,85
 22 16 22 16 23 18 c 0,86,-1
 24 23 l 0,87,88
 25 28 25 28 27 32 c 1,89,-1
 36 69 l 2,90,91
 37 72 37 72 40 81.5 c 128,-1,92
 43 91 43 91 45.5 100.5 c 128,-1,93
 48 110 48 110 50 118 c 0,94,95
 53 138 53 138 69 191 c 0,96,97
 71 199 71 199 79 224.5 c 128,-1,98
 87 250 87 250 93 271.5 c 128,-1,99
 99 293 99 293 101 306 c 1,100,101
 104 322 104 322 114.5 356 c 128,-1,102
 125 390 125 390 127 401 c 0,103,104
 127 404 127 404 154 504 c 1,105,106
 173 564 173 564 177 574 c 0,107,108
 178 577 178 577 185.5 598.5 c 128,-1,109
 193 620 193 620 199.5 640 c 128,-1,110
 206 660 206 660 208 672 c 1,111,112
 214 692 214 692 217 698 c 1,113,114
 196 704 196 704 180 723 c 128,-1,115
 164 742 164 742 164 764 c 1,116,-1
 166 777 l 1,117,118
 164 776 164 776 160 776 c 0,119,120
 151 776 151 776 139 783 c 1,121,122
 119 790 119 790 119 805 c 0,123,124
 119 807 119 807 121 815 c 0,125,126
 122 819 122 819 141 827.5 c 128,-1,127
 160 836 160 836 171 840 c 1,128,129
 177 843 177 843 193 848 c 128,-1,130
 209 853 209 853 232 863 c 1,131,-1
 254 871 l 1,0,1
241 790 m 0,132,133
 227 790 227 790 220 783.5 c 128,-1,134
 213 777 213 777 213 768 c 128,-1,135
 213 759 213 759 220.5 752.5 c 128,-1,136
 228 746 228 746 238 746 c 0,137,138
 241 746 241 746 245 747 c 2,139,-1
 249 747 l 2,140,-1
 254 750 l 0,141,142
 259 752 259 752 262.5 756.5 c 128,-1,143
 266 761 266 761 266 768 c 0,144,145
 266 776 266 776 259 783 c 128,-1,146
 252 790 252 790 241 790 c 0,132,133
306 311 m 0,147,148
 319 311 319 311 319 318 c 0,149,150
 319 323 319 323 312 340 c 0,151,152
 308 349 308 349 294.5 393.5 c 128,-1,153
 281 438 281 438 276 453 c 1,154,155
 268 477 268 477 255.5 521 c 128,-1,156
 243 565 243 565 241 577 c 1,157,158
 227 630 227 630 221 630 c 0,159,160
 219 630 219 630 217 624 c 128,-1,161
 215 618 215 618 211 602.5 c 128,-1,162
 207 587 207 587 205 581 c 1,163,164
 202 565 202 565 187.5 514 c 128,-1,165
 173 463 173 463 167 445 c 1,166,167
 163 426 163 426 151.5 383.5 c 128,-1,168
 140 341 140 341 134 325 c 0,169,170
 132 319 132 319 132 318 c 0,171,172
 132 314 132 314 134 312 c 128,-1,173
 136 310 136 310 140 309 c 128,-1,174
 144 308 144 308 146.5 308 c 128,-1,175
 149 308 149 308 154 308 c 128,-1,176
 159 308 159 308 160 308 c 0,177,178
 164 308 164 308 187.5 309 c 128,-1,179
 211 310 211 310 218 310 c 1,180,181
 230 312 230 312 252 312 c 0,182,183
 263 312 263 312 282.5 311.5 c 128,-1,184
 302 311 302 311 306 311 c 0,147,148
EndSplineSet
Validated: 1
Substitution2: "Single Substitution lookup 21 subtable" aringacute
Substitution2: "'aalt' Access All Alternates lookup 0 subtable" aringacute
Position2: "'cpsp' Capital Spacing lookup 0 subtable" dx=5 dy=0 dh=10 dv=0
EndChar

StartChar: Atilde
Encoding: 195 195 11
Width: 505
Flags: MW
HStem: 0 21G<23 27 27 47 426 429 429 485> 242 66<120 165 122 165 155 165 155 185> 700 20G<233 248> 764 50<125 139 125 145> 783 48<320 328 290 332>
VStem: 21 476
LayerCount: 2
UndoRedoHistory
Layer: 0
Undoes
EndUndoes
Redoes
EndRedoes
EndUndoRedoHistory
UndoRedoHistory
Layer: 1
Undoes
EndUndoes
Redoes
EndRedoes
EndUndoRedoHistory
Fore
SplineSet
409 787 m 2,0,1
 409 771 409 771 386 771 c 0,2,3
 377 771 377 771 355 777 c 128,-1,4
 333 783 333 783 320 783 c 0,5,6
 293 783 293 783 259 778 c 128,-1,7
 225 773 225 773 215 772 c 0,8,9
 202 771 202 771 186 769 c 128,-1,10
 170 767 170 767 156 765.5 c 128,-1,11
 142 764 142 764 125 764 c 0,12,13
 59 764 59 764 59 787 c 2,14,-1
 59 800 l 2,15,16
 59 817 59 817 61 823 c 0,17,18
 62 828 62 828 68 828 c 0,19,20
 71 828 71 828 78.5 826 c 128,-1,21
 86 824 86 824 99 820 c 128,-1,22
 112 816 112 816 125 814 c 1,23,24
 144 814 144 814 197 823 c 0,25,26
 241 831 241 831 316 831 c 0,27,28
 355 831 355 831 380 827 c 1,29,30
 391 827 391 827 397.5 824.5 c 128,-1,31
 404 822 404 822 406 819.5 c 128,-1,32
 408 817 408 817 409 813.5 c 128,-1,33
 410 810 410 810 409 807 c 128,-1,34
 408 804 408 804 409 802 c 1,35,-1
 409 787 l 2,0,1
36 69 m 2,36,37
 37 72 37 72 40 81.5 c 128,-1,38
 43 91 43 91 45.5 100.5 c 128,-1,39
 48 110 48 110 50 118 c 0,40,41
 53 138 53 138 69 191 c 0,42,43
 71 199 71 199 79 224.5 c 128,-1,44
 87 250 87 250 93 271.5 c 128,-1,45
 99 293 99 293 101 306 c 1,46,47
 104 322 104 322 114.5 356 c 128,-1,48
 125 390 125 390 127 401 c 0,49,50
 127 404 127 404 154 504 c 1,51,52
 173 564 173 564 177 574 c 0,53,54
 178 577 178 577 185.5 598.5 c 128,-1,55
 193 620 193 620 199.5 640 c 128,-1,56
 206 660 206 660 208 672 c 1,57,58
 215 696 215 696 222.5 708 c 128,-1,59
 230 720 230 720 243 720 c 0,60,61
 245 720 245 720 247 719 c 128,-1,62
 249 718 249 718 250.5 715 c 128,-1,63
 252 712 252 712 253.5 709.5 c 128,-1,64
 255 707 255 707 257.5 701.5 c 128,-1,65
 260 696 260 696 261.5 692 c 128,-1,66
 263 688 263 688 265.5 681 c 128,-1,67
 268 674 268 674 270 670 c 0,68,69
 275 659 275 659 283 632.5 c 128,-1,70
 291 606 291 606 298 578.5 c 128,-1,71
 305 551 305 551 306 547 c 0,72,73
 307 537 307 537 331.5 468.5 c 128,-1,74
 356 400 356 400 358 394 c 129,-1,75
 360 388 360 388 372 355.5 c 128,-1,76
 384 323 384 323 395.5 292.5 c 128,-1,77
 407 262 407 262 412 251 c 1,78,79
 451 133 451 133 453 123 c 0,80,81
 456 109 456 109 465 85.5 c 128,-1,82
 474 62 474 62 483.5 39 c 128,-1,83
 493 16 493 16 493 14 c 0,84,85
 496 7 496 7 496 4 c 0,86,87
 496 0 496 0 485 0 c 2,88,-1
 429 0 l 2,89,90
 421 0 421 0 418 9 c 0,91,92
 414 21 414 21 407 45 c 1,93,94
 397 72 397 72 395 90 c 1,95,96
 387 132 387 132 374 158 c 1,97,98
 364 180 364 180 358 201 c 2,99,-1
 349 230 l 1,100,101
 344 241 344 241 341.5 243.5 c 128,-1,102
 339 246 339 246 333 246 c 0,103,104
 312 246 312 246 302 245 c 0,105,106
 268 243 268 243 259 243 c 1,107,108
 251 242 251 242 185 242 c 2,109,-1
 124 242 l 1,110,-1
 122 242 l 2,111,112
 116 242 116 242 113 231 c 1,113,-1
 111 221 l 1,114,-1
 107 202 l 1,115,116
 105 194 105 194 95 149 c 128,-1,117
 85 104 85 104 84 100 c 1,118,119
 82 79 82 79 75 67 c 0,120,121
 74 65 74 65 65 35 c 1,122,123
 63 29 63 29 58 9 c 1,124,125
 55 1 55 1 53 0 c 0,126,127
 51 0 51 0 47 0 c 2,128,-1
 27 0 l 2,129,130
 21 0 21 0 21 6 c 0,131,132
 21 9 21 9 22 13 c 1,133,134
 22 16 22 16 23 18 c 0,135,-1
 24 23 l 0,136,137
 25 28 25 28 27 32 c 1,138,-1
 36 69 l 2,36,37
306 311 m 0,139,140
 319 311 319 311 319 318 c 0,141,142
 319 323 319 323 312 340 c 0,143,144
 308 349 308 349 294.5 393.5 c 128,-1,145
 281 438 281 438 276 453 c 1,146,147
 268 477 268 477 255.5 521 c 128,-1,148
 243 565 243 565 241 577 c 1,149,150
 227 630 227 630 221 630 c 0,151,152
 219 630 219 630 217 624 c 128,-1,153
 215 618 215 618 211 602.5 c 128,-1,154
 207 587 207 587 205 581 c 1,155,156
 202 565 202 565 187.5 514 c 128,-1,157
 173 463 173 463 167 445 c 1,158,159
 163 426 163 426 151.5 383.5 c 128,-1,160
 140 341 140 341 134 325 c 0,161,162
 132 319 132 319 132 318 c 0,163,164
 132 314 132 314 134 312 c 128,-1,165
 136 310 136 310 140 309 c 128,-1,166
 144 308 144 308 146.5 308 c 128,-1,167
 149 308 149 308 154 308 c 128,-1,168
 159 308 159 308 160 308 c 0,169,170
 164 308 164 308 187.5 309 c 128,-1,171
 211 310 211 310 218 310 c 1,172,173
 230 312 230 312 252 312 c 0,174,175
 263 312 263 312 282.5 311.5 c 128,-1,176
 302 311 302 311 306 311 c 0,139,140
EndSplineSet
Validated: 8388609
Substitution2: "Single Substitution lookup 21 subtable" atilde
Substitution2: "'aalt' Access All Alternates lookup 0 subtable" atilde
Position2: "'cpsp' Capital Spacing lookup 0 subtable" dx=5 dy=0 dh=10 dv=0
EndChar

StartChar: AE
Encoding: 198 198 12
Width: 885
Flags: MW
HStem: 0 135 3 130<490 637> 238 106<511 634> 242 66<169 234 171 234 223 234 234 242 223 280> 553 144<421 440 421 508 421 516> 553 147<437 548 440 548 548 670> 553 152<440 642 637 642 611 670> 700 20G
VStem: 359 74<525 577> 374 70 399 74
LayerCount: 2
UndoRedoHistory
Layer: 0
Undoes
EndUndoes
Redoes
EndRedoes
EndUndoRedoHistory
UndoRedoHistory
Layer: 1
Undoes
EndUndoes
Redoes
EndRedoes
EndUndoRedoHistory
Fore
SplineSet
548 700 m 1,0,1
 593 705 593 705 621 705 c 0,2,3
 644 705 644 705 685 703 c 128,-1,4
 726 701 726 701 733 701 c 0,5,6
 751 701 751 701 758 700 c 1,7,8
 769 700 769 700 770 673 c 1,9,10
 770 660 770 660 771 638.5 c 128,-1,11
 772 617 772 617 772 606 c 0,12,13
 772 573 772 573 771 560 c 1,14,15
 772 553 772 553 770 549 c 128,-1,16
 768 545 768 545 763 544.5 c 128,-1,17
 758 544 758 544 754 545 c 128,-1,18
 750 546 750 546 744 547.5 c 128,-1,19
 738 549 738 549 737 550 c 0,20,21
 718 553 718 553 649 553 c 0,22,23
 637 553 637 553 611.5 554 c 128,-1,24
 586 555 586 555 573 555 c 0,25,26
 554 555 554 555 545.5 554 c 128,-1,27
 537 553 537 553 516 553 c 2,28,-1
 440 553 l 2,29,30
 431 553 431 553 431 546 c 0,31,32
 431 545 431 545 433 533 c 0,33,34
 433 531 433 531 441 437 c 1,35,-1
 448 378 l 2,36,37
 448 371 448 371 453 346 c 1,38,39
 461 345 461 345 480 345 c 1,40,41
 489 344 489 344 511 344 c 2,42,-1
 550 344 l 2,43,44
 570 344 570 344 608 346 c 128,-1,45
 646 348 646 348 656 348 c 0,46,47
 670 348 670 348 685.5 346.5 c 128,-1,48
 701 345 701 345 705 345 c 0,49,50
 706 345 706 345 709.5 345.5 c 128,-1,51
 713 346 713 346 715 346 c 0,52,53
 729 346 729 346 729 322 c 2,54,-1
 729 302 l 1,55,56
 727 284 727 284 727 281 c 0,57,58
 727 277 727 277 728 267 c 128,-1,59
 729 257 729 257 729 249 c 2,60,-1
 729 243 l 2,61,62
 729 237 729 237 727 235 c 128,-1,63
 725 233 725 233 722 233.5 c 128,-1,64
 719 234 719 234 713 235 c 128,-1,65
 707 236 707 236 703 236 c 0,66,67
 701 236 701 236 671 237 c 128,-1,68
 641 238 641 238 603 238 c 0,69,70
 575 238 575 238 548 236 c 128,-1,71
 521 234 521 234 505 232 c 128,-1,72
 489 230 489 230 486 230 c 0,73,74
 475 230 475 230 473 231 c 1,75,76
 468 231 468 231 467 232 c 1,77,-1
 479 132 l 1,78,79
 486 132 486 132 490 133 c 1,80,81
 493 133 493 133 502.5 133.5 c 128,-1,82
 512 134 512 134 518 134 c 0,83,84
 527 134 527 134 568 134.5 c 128,-1,85
 609 135 609 135 635 135 c 0,86,87
 651 135 651 135 696 134 c 128,-1,88
 741 133 741 133 762 133 c 0,89,90
 790 133 790 133 799 134 c 1,91,92
 819 134 819 134 826 128 c 128,-1,93
 833 122 833 122 835 107 c 1,94,-1
 835 23 l 1,95,96
 836 21 836 21 836 18.5 c 128,-1,97
 836 16 836 16 835 14 c 0,98,99
 833 10 833 10 833.5 7.5 c 128,-1,100
 834 5 834 5 830.5 3.5 c 128,-1,101
 827 2 827 2 825.5 1.5 c 128,-1,102
 824 1 824 1 819 0.5 c 128,-1,103
 814 0 814 0 811 0 c 128,-1,104
 808 0 808 0 801.5 0.5 c 128,-1,105
 795 1 795 1 790 1 c 0,106,107
 775 1 775 1 706.5 2 c 128,-1,108
 638 3 638 3 613 3 c 0,109,110
 587 3 587 3 570 2 c 1,111,-1
 429 0 l 2,112,113
 421 0 421 0 420 9 c 0,114,115
 418 22 418 22 416 45 c 1,116,117
 415 54 415 54 413.5 70 c 128,-1,118
 412 86 412 86 409 105 c 1,119,120
 409 117 409 117 402 165 c 1,121,-1
 396 230 l 1,122,123
 393 241 393 241 391 243.5 c 128,-1,124
 389 246 389 246 383 246 c 0,125,126
 362 246 362 246 352 245 c 0,127,128
 318 243 318 243 309 243 c 1,129,130
 304 242 304 242 280 242 c 2,131,-1
 173 242 l 1,132,-1
 171 242 l 2,133,134
 166 242 166 242 160 231 c 1,135,-1
 156 221 l 1,136,-1
 148 202 l 1,137,138
 145 195 145 195 125.5 149.5 c 128,-1,139
 106 104 106 104 104 100 c 1,140,141
 96 78 96 78 89 67 c 1,142,143
 87 65 87 65 85 60.5 c 128,-1,144
 83 56 83 56 79.5 48 c 128,-1,145
 76 40 76 40 73 35 c 2,146,-1
 61 9 l 2,147,148
 58 3 58 3 56 1.5 c 128,-1,149
 54 0 54 0 48 0 c 2,150,-1
 28 0 l 2,151,152
 22 0 22 0 22 4 c 0,153,154
 22 5 22 5 26 13 c 0,155,156
 26 14 26 14 28 18 c 2,157,-1
 35 32 l 1,158,159
 37 38 37 38 43 51 c 128,-1,160
 49 64 49 64 51 69 c 0,161,162
 52 72 52 72 61.5 89.5 c 128,-1,163
 71 107 71 107 75 118 c 0,164,165
 80 134 80 134 108 191 c 1,166,167
 148 266 148 266 163 306 c 1,168,169
 166 313 166 313 209 401 c 1,170,-1
 257 504 l 1,171,172
 292 571 292 571 294 574 c 0,173,174
 294 575 294 575 303 591 c 128,-1,175
 312 607 312 607 318 618 c 2,176,-1
 333 647 l 1,177,-1
 345 672 l 2,178,179
 356 696 356 696 366.5 708 c 128,-1,180
 377 720 377 720 390 720 c 0,181,182
 397 720 397 720 400 705 c 1,183,184
 400 701 400 701 401 699 c 1,185,-1
 421 697 l 2,186,187
 432 696 432 696 472 696 c 0,188,189
 494 696 494 696 508 697 c 2,190,-1
 548 700 l 1,0,1
370 311 m 2,191,192
 384 311 384 311 384 320 c 0,193,194
 384 322 384 322 382.5 328.5 c 128,-1,195
 381 335 381 335 381 340 c 0,196,-1
 380 360 l 0,197,198
 378 380 378 380 376 392 c 2,199,-1
 372 425 l 2,200,201
 372 427 372 427 368 453 c 1,202,203
 359 551 359 551 359 577 c 1,204,205
 358 583 358 583 356.5 598 c 128,-1,206
 355 613 355 613 353.5 621.5 c 128,-1,207
 352 630 352 630 350 630 c 0,208,209
 349 630 349 630 347 627.5 c 128,-1,210
 345 625 345 625 342.5 619.5 c 128,-1,211
 340 614 340 614 337 608.5 c 128,-1,212
 334 603 334 603 330.5 594.5 c 128,-1,213
 327 586 327 586 324 581 c 2,214,-1
 310 554 l 1,215,216
 262 452 262 452 258 445 c 0,217,218
 258 444 258 444 243 411.5 c 128,-1,219
 228 379 228 379 217 356.5 c 128,-1,220
 206 334 206 334 200 325 c 1,221,222
 197 318 197 318 197 316 c 0,223,224
 197 313 197 313 198.5 311 c 128,-1,225
 200 309 200 309 203.5 308.5 c 128,-1,226
 207 308 207 308 210 308 c 128,-1,227
 213 308 213 308 217.5 308 c 128,-1,228
 222 308 222 308 223 308 c 2,229,-1
 234 308 l 2,230,231
 243 308 243 308 260 309 c 128,-1,232
 277 310 277 310 281 310 c 1,233,234
 285 311 285 311 298 311 c 2,235,-1
 370 311 l 2,191,192
EndSplineSet
Validated: 8388609
Substitution2: "Single Substitution lookup 21 subtable" ae
Substitution2: "'aalt' Access All Alternates lookup 0 subtable" ae
Position2: "'cpsp' Capital Spacing lookup 0 subtable" dx=5 dy=0 dh=10 dv=0
EndChar

StartChar: AEacute
Encoding: 508 508 13
Width: 885
Flags: MW
HStem: 0 135 3 130<490 637> 238 106<511 634> 242 66<169 234 171 234 223 234 234 242 223 280> 553 144<421 440 421 508 421 516> 553 147<437 548 440 548 548 670> 553 152<440 642 637 642 611 670> 700 20G
VStem: 359 74<525 577> 374 70 399 74
LayerCount: 2
UndoRedoHistory
Layer: 0
Undoes
EndUndoes
Redoes
EndRedoes
EndUndoRedoHistory
UndoRedoHistory
Layer: 1
Undoes
EndUndoes
Redoes
EndRedoes
EndUndoRedoHistory
Fore
SplineSet
522 830 m 1,0,1
 543 837 543 837 557 837 c 1,2,3
 573 839 573 839 577 839 c 0,4,5
 588 839 588 839 592.5 833 c 128,-1,6
 597 827 597 827 594 811 c 1,7,8
 591 800 591 800 574.5 790 c 128,-1,9
 558 780 558 780 545 777 c 1,10,11
 494 760 494 760 460 744 c 1,12,13
 433 735 433 735 428 735 c 0,14,15
 419 735 419 735 407 742 c 1,16,17
 387 749 387 749 387 764 c 0,18,19
 387 766 387 766 389 774 c 0,20,21
 390 778 390 778 409 786.5 c 128,-1,22
 428 795 428 795 439 799 c 1,23,24
 445 802 445 802 461.5 807 c 128,-1,25
 478 812 478 812 500 822 c 1,26,-1
 522 830 l 1,0,1
548 700 m 1,27,28
 593 705 593 705 621 705 c 0,29,30
 644 705 644 705 685 703 c 128,-1,31
 726 701 726 701 733 701 c 0,32,33
 751 701 751 701 758 700 c 1,34,35
 769 700 769 700 770 673 c 1,36,37
 770 660 770 660 771 638.5 c 128,-1,38
 772 617 772 617 772 606 c 0,39,40
 772 573 772 573 771 560 c 1,41,42
 772 553 772 553 770 549 c 128,-1,43
 768 545 768 545 763 544.5 c 128,-1,44
 758 544 758 544 754 545 c 128,-1,45
 750 546 750 546 744 547.5 c 128,-1,46
 738 549 738 549 737 550 c 0,47,48
 718 553 718 553 649 553 c 0,49,50
 637 553 637 553 611.5 554 c 128,-1,51
 586 555 586 555 573 555 c 0,52,53
 554 555 554 555 545.5 554 c 128,-1,54
 537 553 537 553 516 553 c 2,55,-1
 440 553 l 2,56,57
 431 553 431 553 431 546 c 0,58,59
 431 545 431 545 433 533 c 0,60,61
 433 531 433 531 441 437 c 1,62,-1
 448 378 l 2,63,64
 448 371 448 371 453 346 c 1,65,66
 461 345 461 345 480 345 c 1,67,68
 489 344 489 344 511 344 c 2,69,-1
 550 344 l 2,70,71
 570 344 570 344 608 346 c 128,-1,72
 646 348 646 348 656 348 c 0,73,74
 670 348 670 348 685.5 346.5 c 128,-1,75
 701 345 701 345 705 345 c 0,76,77
 706 345 706 345 709.5 345.5 c 128,-1,78
 713 346 713 346 715 346 c 0,79,80
 729 346 729 346 729 322 c 2,81,-1
 729 302 l 1,82,83
 727 284 727 284 727 281 c 0,84,85
 727 277 727 277 728 267 c 128,-1,86
 729 257 729 257 729 249 c 2,87,-1
 729 243 l 2,88,89
 729 237 729 237 727 235 c 128,-1,90
 725 233 725 233 722 233.5 c 128,-1,91
 719 234 719 234 713 235 c 128,-1,92
 707 236 707 236 703 236 c 0,93,94
 701 236 701 236 671 237 c 128,-1,95
 641 238 641 238 603 238 c 0,96,97
 575 238 575 238 548 236 c 128,-1,98
 521 234 521 234 505 232 c 128,-1,99
 489 230 489 230 486 230 c 0,100,101
 475 230 475 230 473 231 c 1,102,103
 468 231 468 231 467 232 c 1,104,-1
 479 132 l 1,105,106
 486 132 486 132 490 133 c 1,107,108
 493 133 493 133 502.5 133.5 c 128,-1,109
 512 134 512 134 518 134 c 0,110,111
 527 134 527 134 568 134.5 c 128,-1,112
 609 135 609 135 635 135 c 0,113,114
 651 135 651 135 696 134 c 128,-1,115
 741 133 741 133 762 133 c 0,116,117
 790 133 790 133 799 134 c 1,118,119
 819 134 819 134 826 128 c 128,-1,120
 833 122 833 122 835 107 c 1,121,-1
 835 23 l 1,122,123
 836 21 836 21 836 18.5 c 128,-1,124
 836 16 836 16 835 14 c 0,125,126
 833 10 833 10 833.5 7.5 c 128,-1,127
 834 5 834 5 830.5 3.5 c 128,-1,128
 827 2 827 2 825.5 1.5 c 128,-1,129
 824 1 824 1 819 0.5 c 128,-1,130
 814 0 814 0 811 0 c 128,-1,131
 808 0 808 0 801.5 0.5 c 128,-1,132
 795 1 795 1 790 1 c 0,133,134
 775 1 775 1 706.5 2 c 128,-1,135
 638 3 638 3 613 3 c 0,136,137
 587 3 587 3 570 2 c 1,138,-1
 429 0 l 2,139,140
 421 0 421 0 420 9 c 0,141,142
 418 22 418 22 416 45 c 1,143,144
 415 54 415 54 413.5 70 c 128,-1,145
 412 86 412 86 409 105 c 1,146,147
 409 117 409 117 402 165 c 1,148,-1
 396 230 l 1,149,150
 393 241 393 241 391 243.5 c 128,-1,151
 389 246 389 246 383 246 c 0,152,153
 362 246 362 246 352 245 c 0,154,155
 318 243 318 243 309 243 c 1,156,157
 304 242 304 242 280 242 c 2,158,-1
 173 242 l 1,159,-1
 171 242 l 2,160,161
 166 242 166 242 160 231 c 1,162,-1
 156 221 l 1,163,-1
 148 202 l 1,164,165
 145 195 145 195 125.5 149.5 c 128,-1,166
 106 104 106 104 104 100 c 1,167,168
 96 78 96 78 89 67 c 1,169,170
 87 65 87 65 85 60.5 c 128,-1,171
 83 56 83 56 79.5 48 c 128,-1,172
 76 40 76 40 73 35 c 2,173,-1
 61 9 l 2,174,175
 58 3 58 3 56 1.5 c 128,-1,176
 54 0 54 0 48 0 c 2,177,-1
 28 0 l 2,178,179
 22 0 22 0 22 4 c 0,180,181
 22 5 22 5 26 13 c 0,182,183
 26 14 26 14 28 18 c 2,184,-1
 35 32 l 1,185,186
 37 38 37 38 43 51 c 128,-1,187
 49 64 49 64 51 69 c 0,188,189
 52 72 52 72 61.5 89.5 c 128,-1,190
 71 107 71 107 75 118 c 0,191,192
 80 134 80 134 108 191 c 1,193,194
 148 266 148 266 163 306 c 1,195,196
 166 313 166 313 209 401 c 1,197,-1
 257 504 l 1,198,199
 292 571 292 571 294 574 c 0,200,201
 294 575 294 575 303 591 c 128,-1,202
 312 607 312 607 318 618 c 2,203,-1
 333 647 l 1,204,-1
 345 672 l 2,205,206
 356 696 356 696 366.5 708 c 128,-1,207
 377 720 377 720 390 720 c 0,208,209
 397 720 397 720 400 705 c 1,210,211
 400 701 400 701 401 699 c 1,212,-1
 421 697 l 2,213,214
 432 696 432 696 472 696 c 0,215,216
 494 696 494 696 508 697 c 2,217,-1
 548 700 l 1,27,28
370 311 m 2,218,219
 384 311 384 311 384 320 c 0,220,221
 384 322 384 322 382.5 328.5 c 128,-1,222
 381 335 381 335 381 340 c 0,223,-1
 380 360 l 0,224,225
 378 380 378 380 376 392 c 2,226,-1
 372 425 l 2,227,228
 372 427 372 427 368 453 c 1,229,230
 359 551 359 551 359 577 c 1,231,232
 358 583 358 583 356.5 598 c 128,-1,233
 355 613 355 613 353.5 621.5 c 128,-1,234
 352 630 352 630 350 630 c 0,235,236
 349 630 349 630 347 627.5 c 128,-1,237
 345 625 345 625 342.5 619.5 c 128,-1,238
 340 614 340 614 337 608.5 c 128,-1,239
 334 603 334 603 330.5 594.5 c 128,-1,240
 327 586 327 586 324 581 c 2,241,-1
 310 554 l 1,242,243
 262 452 262 452 258 445 c 0,244,245
 258 444 258 444 243 411.5 c 128,-1,246
 228 379 228 379 217 356.5 c 128,-1,247
 206 334 206 334 200 325 c 1,248,249
 197 318 197 318 197 316 c 0,250,251
 197 313 197 313 198.5 311 c 128,-1,252
 200 309 200 309 203.5 308.5 c 128,-1,253
 207 308 207 308 210 308 c 128,-1,254
 213 308 213 308 217.5 308 c 128,-1,255
 222 308 222 308 223 308 c 2,256,-1
 234 308 l 2,257,258
 243 308 243 308 260 309 c 128,-1,259
 277 310 277 310 281 310 c 1,260,261
 285 311 285 311 298 311 c 2,262,-1
 370 311 l 2,218,219
EndSplineSet
Validated: 8388609
Substitution2: "Single Substitution lookup 21 subtable" aeacute
Substitution2: "'aalt' Access All Alternates lookup 0 subtable" aeacute
Position2: "'cpsp' Capital Spacing lookup 0 subtable" dx=5 dy=0 dh=10 dv=0
EndChar

StartChar: B
Encoding: 66 66 14
Width: 511
Flags: MW
HStem: -7 22 -4 19<229 268> 331 30 684 29<197 243>
VStem: 62 128<21 148> 63 130<253 399 293 399> 380 37<492 600> 420 63<97 186>
LayerCount: 2
UndoRedoHistory
Layer: 0
Undoes
EndUndoes
Redoes
EndRedoes
EndUndoRedoHistory
UndoRedoHistory
Layer: 1
Undoes
EndUndoes
Redoes
EndRedoes
EndUndoRedoHistory
Fore
SplineSet
302 348 m 1,0,1
 311 345 311 345 319 341.5 c 128,-1,2
 327 338 327 338 347 328 c 128,-1,3
 367 318 367 318 382.5 307.5 c 128,-1,4
 398 297 398 297 418 278.5 c 128,-1,5
 438 260 438 260 451 239.5 c 128,-1,6
 464 219 464 219 473.5 190.5 c 128,-1,7
 483 162 483 162 483 130 c 0,8,9
 483 -4 483 -4 261 -4 c 0,10,11
 258 -4 258 -4 254 -4 c 0,12,13
 250 -4 250 -4 248 -4 c 0,14,15
 227 -4 227 -4 163 -5.5 c 128,-1,16
 99 -7 99 -7 90 -7 c 0,17,18
 73 -7 73 -7 67.5 3 c 128,-1,19
 62 13 62 13 62 31 c 2,20,-1
 63 253 l 1,21,-1
 63 301 l 2,22,23
 63 340 63 340 66 370 c 1,24,25
 67 397 67 397 68.5 494.5 c 128,-1,26
 70 592 70 592 72 607 c 0,27,28
 73 619 73 619 73 635 c 0,29,30
 73 668 73 668 70 685 c 1,31,32
 69 687 69 687 69 690 c 0,33,34
 69 696 69 696 80 699 c 1,35,36
 89 702 89 702 132.5 707.5 c 128,-1,37
 176 713 176 713 211 713 c 128,-1,38
 246 713 246 713 274 709 c 128,-1,39
 302 705 302 705 329.5 693 c 128,-1,40
 357 681 357 681 375.5 661.5 c 128,-1,41
 394 642 394 642 405.5 609 c 128,-1,42
 417 576 417 576 417 531 c 0,43,44
 417 435 417 435 359 381 c 1,45,46
 334 358 334 358 302 348 c 1,0,1
193 399 m 2,47,48
 193 390 193 390 192 381.5 c 128,-1,49
 191 373 191 373 191 370 c 0,50,51
 191 365 191 365 192 363 c 128,-1,52
 193 361 193 361 198 361 c 0,53,54
 202 361 202 361 211 361.5 c 128,-1,55
 220 362 220 362 237.5 366 c 128,-1,56
 255 370 255 370 273 376.5 c 128,-1,57
 291 383 291 383 311 395.5 c 128,-1,58
 331 408 331 408 345.5 424 c 128,-1,59
 360 440 360 440 370 466 c 128,-1,60
 380 492 380 492 380 523 c 0,61,62
 380 555 380 555 374.5 580 c 128,-1,63
 369 605 369 605 360 622 c 128,-1,64
 351 639 351 639 336 651 c 128,-1,65
 321 663 321 663 307 669 c 128,-1,66
 293 675 293 675 272 679 c 128,-1,67
 251 683 251 683 235.5 683.5 c 128,-1,68
 220 684 220 684 197 684 c 1,69,-1
 195 620 l 2,70,71
 193 548 193 548 193 513 c 2,72,-1
 193 399 l 2,47,48
224 15 m 0,73,74
 322 15 322 15 371 46.5 c 128,-1,75
 420 78 420 78 420 131 c 0,76,77
 420 265 420 265 305 313 c 1,78,79
 259 331 259 331 202 331 c 0,80,81
 196 331 196 331 190 331 c 1,82,83
 189 328 189 328 189 323 c 1,84,85
 188 318 188 318 188 300 c 0,86,87
 188 288 188 288 190 239 c 128,-1,88
 192 190 192 190 192 182 c 0,89,90
 192 173 192 173 191 161 c 128,-1,91
 190 149 190 149 190 136.5 c 128,-1,92
 190 124 190 124 192 81.5 c 128,-1,93
 194 39 194 39 194 31 c 0,94,95
 194 25 194 25 195 21.5 c 128,-1,96
 196 18 196 18 199.5 16.5 c 128,-1,97
 203 15 203 15 205 15 c 128,-1,98
 207 15 207 15 214 15 c 128,-1,99
 221 15 221 15 224 15 c 0,73,74
EndSplineSet
Validated: 8388609
Substitution2: "Single Substitution lookup 20 subtable" b
Substitution2: "'aalt' Access All Alternates lookup 0 subtable" b
Position2: "'cpsp' Capital Spacing lookup 0 subtable" dx=5 dy=0 dh=10 dv=0
EndChar

StartChar: C
Encoding: 67 67 15
Width: 527
Flags: MW
HStem: -12 146<271 299 271 358> 544 160<253 288>
VStem: 37 130<250 411 248 458>
LayerCount: 2
UndoRedoHistory
Layer: 0
Undoes
EndUndoes
Redoes
EndRedoes
EndUndoRedoHistory
UndoRedoHistory
Layer: 1
Undoes
EndUndoes
Redoes
EndRedoes
EndUndoRedoHistory
Fore
SplineSet
467 134 m 2,0,1
 469 133 469 133 475 130 c 128,-1,2
 481 127 481 127 483.5 126 c 128,-1,3
 486 125 486 125 489.5 123 c 128,-1,4
 493 121 493 121 494 119 c 128,-1,5
 495 117 495 117 495 114 c 0,6,7
 495 109 495 109 492 103 c 0,8,9
 486 93 486 93 479.5 83.5 c 128,-1,10
 473 74 473 74 455 55 c 128,-1,11
 437 36 437 36 416.5 22.5 c 128,-1,12
 396 9 396 9 363 -1.5 c 128,-1,13
 330 -12 330 -12 293 -12 c 0,14,15
 244 -12 244 -12 197.5 16 c 128,-1,16
 151 44 151 44 116 92.5 c 128,-1,17
 81 141 81 141 59 209.5 c 128,-1,18
 37 278 37 278 37 354 c 0,19,20
 37 429 37 429 58 495.5 c 128,-1,21
 79 562 79 562 112.5 607 c 128,-1,22
 146 652 146 652 187.5 678 c 128,-1,23
 229 704 229 704 271 704 c 0,24,25
 302 704 302 704 330.5 696.5 c 128,-1,26
 359 689 359 689 377.5 678.5 c 128,-1,27
 396 668 396 668 412.5 655 c 128,-1,28
 429 642 429 642 436 633.5 c 128,-1,29
 443 625 443 625 448 618 c 1,30,31
 459 604 459 604 459 597 c 128,-1,32
 459 590 459 590 448 581 c 1,33,34
 401 543 401 543 382 518 c 0,35,36
 361 492 361 492 351 492 c 0,37,38
 343 492 343 492 335 502 c 0,39,40
 334 503 334 503 328.5 509.5 c 128,-1,41
 323 516 323 516 321 518 c 128,-1,42
 319 520 319 520 314.5 524.5 c 128,-1,43
 310 529 310 529 307.5 531 c 128,-1,44
 305 533 305 533 300 536.5 c 128,-1,45
 295 540 295 540 292 541 c 128,-1,46
 289 542 289 542 284 543 c 128,-1,47
 279 544 279 544 275 544 c 0,48,49
 261 544 261 544 246.5 537.5 c 128,-1,50
 232 531 232 531 218 515.5 c 128,-1,51
 204 500 204 500 192.5 476 c 128,-1,52
 181 452 181 452 174 414 c 128,-1,53
 167 376 167 376 167 329 c 0,54,55
 167 283 167 283 177 246.5 c 128,-1,56
 187 210 187 210 200.5 189.5 c 128,-1,57
 214 169 214 169 231.5 156 c 128,-1,58
 249 143 249 143 262 138.5 c 128,-1,59
 275 134 275 134 285 134 c 0,60,61
 316 134 316 134 355 173 c 0,62,63
 356 174 356 174 358.5 176.5 c 128,-1,64
 361 179 361 179 362 180 c 128,-1,65
 363 181 363 181 364.5 182.5 c 128,-1,66
 366 184 366 184 367.5 184.5 c 128,-1,67
 369 185 369 185 370 185 c 0,68,69
 375 185 375 185 382 181 c 2,70,-1
 467 134 l 2,0,1
EndSplineSet
Validated: 1
Substitution2: "Single Substitution lookup 20 subtable" c
Substitution2: "'aalt' Access All Alternates lookup 0 subtable" c
Position2: "'cpsp' Capital Spacing lookup 0 subtable" dx=5 dy=0 dh=10 dv=0
EndChar

StartChar: Cacute
Encoding: 262 262 16
Width: 527
Flags: MW
HStem: -12 146<271 299 271 358> 544 160<253 288>
VStem: 37 130<250 411 248 458>
LayerCount: 2
UndoRedoHistory
Layer: 0
Undoes
EndUndoes
Redoes
EndRedoes
EndUndoRedoHistory
UndoRedoHistory
Layer: 1
Undoes
EndUndoes
Redoes
EndRedoes
EndUndoRedoHistory
Fore
SplineSet
329 830 m 1,0,1
 350 837 350 837 364 837 c 1,2,3
 380 839 380 839 384 839 c 0,4,5
 395 839 395 839 399.5 833 c 128,-1,6
 404 827 404 827 401 811 c 1,7,8
 398 800 398 800 381 790 c 128,-1,9
 364 780 364 780 352 777 c 1,10,11
 301 760 301 760 267 744 c 1,12,13
 240 735 240 735 235 735 c 0,14,15
 226 735 226 735 214 742 c 1,16,17
 194 749 194 749 194 764 c 0,18,19
 194 766 194 766 196 774 c 0,20,21
 197 778 197 778 216 786.5 c 128,-1,22
 235 795 235 795 246 799 c 1,23,24
 252 802 252 802 268.5 807 c 128,-1,25
 285 812 285 812 307 822 c 1,26,-1
 329 830 l 1,0,1
467 134 m 2,27,28
 469 133 469 133 475 130 c 128,-1,29
 481 127 481 127 483.5 126 c 128,-1,30
 486 125 486 125 489.5 123 c 128,-1,31
 493 121 493 121 494 119 c 128,-1,32
 495 117 495 117 495 114 c 0,33,34
 495 109 495 109 492 103 c 0,35,36
 486 93 486 93 479.5 83.5 c 128,-1,37
 473 74 473 74 455 55 c 128,-1,38
 437 36 437 36 416.5 22.5 c 128,-1,39
 396 9 396 9 363 -1.5 c 128,-1,40
 330 -12 330 -12 293 -12 c 0,41,42
 244 -12 244 -12 197.5 16 c 128,-1,43
 151 44 151 44 116 92.5 c 128,-1,44
 81 141 81 141 59 209.5 c 128,-1,45
 37 278 37 278 37 354 c 0,46,47
 37 429 37 429 58 495.5 c 128,-1,48
 79 562 79 562 112.5 607 c 128,-1,49
 146 652 146 652 187.5 678 c 128,-1,50
 229 704 229 704 271 704 c 0,51,52
 302 704 302 704 330.5 696.5 c 128,-1,53
 359 689 359 689 377.5 678.5 c 128,-1,54
 396 668 396 668 412.5 655 c 128,-1,55
 429 642 429 642 436 633.5 c 128,-1,56
 443 625 443 625 448 618 c 1,57,58
 459 604 459 604 459 597 c 128,-1,59
 459 590 459 590 448 581 c 1,60,61
 401 543 401 543 382 518 c 0,62,63
 361 492 361 492 351 492 c 0,64,65
 343 492 343 492 335 502 c 0,66,67
 334 503 334 503 328.5 509.5 c 128,-1,68
 323 516 323 516 321 518 c 128,-1,69
 319 520 319 520 314.5 524.5 c 128,-1,70
 310 529 310 529 307.5 531 c 128,-1,71
 305 533 305 533 300 536.5 c 128,-1,72
 295 540 295 540 292 541 c 128,-1,73
 289 542 289 542 284 543 c 128,-1,74
 279 544 279 544 275 544 c 0,75,76
 261 544 261 544 246.5 537.5 c 128,-1,77
 232 531 232 531 218 515.5 c 128,-1,78
 204 500 204 500 192.5 476 c 128,-1,79
 181 452 181 452 174 414 c 128,-1,80
 167 376 167 376 167 329 c 0,81,82
 167 283 167 283 177 246.5 c 128,-1,83
 187 210 187 210 200.5 189.5 c 128,-1,84
 214 169 214 169 231.5 156 c 128,-1,85
 249 143 249 143 262 138.5 c 128,-1,86
 275 134 275 134 285 134 c 0,87,88
 316 134 316 134 355 173 c 0,89,90
 356 174 356 174 358.5 176.5 c 128,-1,91
 361 179 361 179 362 180 c 128,-1,92
 363 181 363 181 364.5 182.5 c 128,-1,93
 366 184 366 184 367.5 184.5 c 128,-1,94
 369 185 369 185 370 185 c 0,95,96
 375 185 375 185 382 181 c 2,97,-1
 467 134 l 2,27,28
EndSplineSet
Validated: 1
Substitution2: "Single Substitution lookup 20 subtable" cacute
Substitution2: "'locl' Localized Forms in Latin lookup 11 subtable" Cacute.loclPLK
AlternateSubs2: "'aalt' Access All Alternates lookup 1 subtable" Cacute.loclPLK cacute
Position2: "'cpsp' Capital Spacing lookup 0 subtable" dx=5 dy=0 dh=10 dv=0
EndChar

StartChar: Ccaron
Encoding: 268 268 17
Width: 527
Flags: MW
HStem: -12 146<271 299 271 358> 544 160<253 288>
VStem: 37 130<250 411 248 458>
LayerCount: 2
UndoRedoHistory
Layer: 0
Undoes
EndUndoes
Redoes
EndRedoes
EndUndoRedoHistory
UndoRedoHistory
Layer: 1
Undoes
EndUndoes
Redoes
EndRedoes
EndUndoRedoHistory
Fore
SplineSet
415 791 m 2,0,1
 413 790 413 790 407.5 787.5 c 128,-1,2
 402 785 402 785 398.5 783 c 128,-1,3
 395 781 395 781 386 775.5 c 128,-1,4
 377 770 377 770 367 762 c 1,5,6
 326 739 326 739 315 736 c 1,7,8
 306 732 306 732 297 732 c 1,9,10
 293 731 293 731 286 731 c 0,11,12
 281 731 281 731 276 732 c 128,-1,13
 271 733 271 733 268 734.5 c 128,-1,14
 265 736 265 736 258.5 740 c 128,-1,15
 252 744 252 744 248 746 c 1,16,17
 243 750 243 750 181 789 c 1,18,-1
 177 792 l 2,19,20
 173 795 173 795 170.5 796 c 128,-1,21
 168 797 168 797 163.5 800 c 128,-1,22
 159 803 159 803 156.5 806 c 128,-1,23
 154 809 154 809 151 811.5 c 128,-1,24
 148 814 148 814 147 817 c 128,-1,25
 146 820 146 820 147 823 c 0,26,27
 151 838 151 838 163 838 c 0,28,29
 170 838 170 838 190 831 c 1,30,-1
 217 824 l 1,31,32
 231 819 231 819 252 806 c 1,33,-1
 284 791 l 1,34,35
 316 805 316 805 329 812 c 1,36,37
 352 823 352 823 387 833 c 1,38,39
 407 836 407 836 425 836 c 0,40,41
 436 836 436 836 442.5 831 c 128,-1,42
 449 826 449 826 449 820 c 0,43,44
 449 813 449 813 441 808 c 1,45,-1
 415 791 l 2,0,1
467 134 m 2,46,47
 469 133 469 133 475 130 c 128,-1,48
 481 127 481 127 483.5 126 c 128,-1,49
 486 125 486 125 489.5 123 c 128,-1,50
 493 121 493 121 494 119 c 128,-1,51
 495 117 495 117 495 114 c 0,52,53
 495 109 495 109 492 103 c 0,54,55
 486 93 486 93 479.5 83.5 c 128,-1,56
 473 74 473 74 455 55 c 128,-1,57
 437 36 437 36 416.5 22.5 c 128,-1,58
 396 9 396 9 363 -1.5 c 128,-1,59
 330 -12 330 -12 293 -12 c 0,60,61
 244 -12 244 -12 197.5 16 c 128,-1,62
 151 44 151 44 116 92.5 c 128,-1,63
 81 141 81 141 59 209.5 c 128,-1,64
 37 278 37 278 37 354 c 0,65,66
 37 429 37 429 58 495.5 c 128,-1,67
 79 562 79 562 112.5 607 c 128,-1,68
 146 652 146 652 187.5 678 c 128,-1,69
 229 704 229 704 271 704 c 0,70,71
 302 704 302 704 330.5 696.5 c 128,-1,72
 359 689 359 689 377.5 678.5 c 128,-1,73
 396 668 396 668 412.5 655 c 128,-1,74
 429 642 429 642 436 633.5 c 128,-1,75
 443 625 443 625 448 618 c 1,76,77
 459 604 459 604 459 597 c 128,-1,78
 459 590 459 590 448 581 c 1,79,80
 401 543 401 543 382 518 c 0,81,82
 361 492 361 492 351 492 c 0,83,84
 343 492 343 492 335 502 c 0,85,86
 334 503 334 503 328.5 509.5 c 128,-1,87
 323 516 323 516 321 518 c 128,-1,88
 319 520 319 520 314.5 524.5 c 128,-1,89
 310 529 310 529 307.5 531 c 128,-1,90
 305 533 305 533 300 536.5 c 128,-1,91
 295 540 295 540 292 541 c 128,-1,92
 289 542 289 542 284 543 c 128,-1,93
 279 544 279 544 275 544 c 0,94,95
 261 544 261 544 246.5 537.5 c 128,-1,96
 232 531 232 531 218 515.5 c 128,-1,97
 204 500 204 500 192.5 476 c 128,-1,98
 181 452 181 452 174 414 c 128,-1,99
 167 376 167 376 167 329 c 0,100,101
 167 283 167 283 177 246.5 c 128,-1,102
 187 210 187 210 200.5 189.5 c 128,-1,103
 214 169 214 169 231.5 156 c 128,-1,104
 249 143 249 143 262 138.5 c 128,-1,105
 275 134 275 134 285 134 c 0,106,107
 316 134 316 134 355 173 c 0,108,109
 356 174 356 174 358.5 176.5 c 128,-1,110
 361 179 361 179 362 180 c 128,-1,111
 363 181 363 181 364.5 182.5 c 128,-1,112
 366 184 366 184 367.5 184.5 c 128,-1,113
 369 185 369 185 370 185 c 0,114,115
 375 185 375 185 382 181 c 2,116,-1
 467 134 l 2,46,47
EndSplineSet
Validated: 1
Substitution2: "Single Substitution lookup 20 subtable" ccaron
Substitution2: "'aalt' Access All Alternates lookup 0 subtable" ccaron
Position2: "'cpsp' Capital Spacing lookup 0 subtable" dx=5 dy=0 dh=10 dv=0
EndChar

StartChar: Ccedilla
Encoding: 199 199 18
Width: 508
Flags: MW
HStem: -158 53<249 257 249 273> -46 33<283 284> 18 146<290 299 285 358> 544 160<264 288>
VStem: 37 130<329 376 278 413> 210 40 298 62<-79 -69>
LayerCount: 2
UndoRedoHistory
Layer: 0
Undoes
EndUndoes
Redoes
EndRedoes
EndUndoRedoHistory
UndoRedoHistory
Layer: 1
Undoes
EndUndoes
Redoes
EndRedoes
EndUndoRedoHistory
Fore
SplineSet
467 164 m 2,0,1
 469 163 469 163 475 160.5 c 128,-1,2
 481 158 481 158 483.5 157 c 128,-1,3
 486 156 486 156 489.5 153.5 c 128,-1,4
 493 151 493 151 494 149 c 128,-1,5
 495 147 495 147 495 144 c 0,6,7
 495 139 495 139 492 133 c 0,8,9
 486 123 486 123 479.5 113.5 c 128,-1,10
 473 104 473 104 455 85 c 128,-1,11
 437 66 437 66 416.5 52.5 c 128,-1,12
 396 39 396 39 363 28.5 c 128,-1,13
 330 18 330 18 293 18 c 0,14,15
 279 18 279 18 273 19 c 1,16,17
 255 -5 255 -5 250 -22 c 1,18,19
 261 -17 261 -17 268.5 -15 c 128,-1,20
 276 -13 276 -13 298 -13 c 0,21,22
 360 -13 360 -13 360 -83 c 1,23,24
 360 -98 360 -98 353.5 -110 c 128,-1,25
 347 -122 347 -122 342.5 -126 c 128,-1,26
 338 -130 338 -130 329 -137 c 0,27,28
 325 -141 325 -141 314 -148 c 0,29,30
 313 -148 313 -148 310.5 -149.5 c 128,-1,31
 308 -151 308 -151 306.5 -151.5 c 128,-1,32
 305 -152 305 -152 302.5 -153 c 128,-1,33
 300 -154 300 -154 297.5 -154.5 c 128,-1,34
 295 -155 295 -155 292 -155.5 c 128,-1,35
 289 -156 289 -156 285 -156.5 c 128,-1,36
 281 -157 281 -157 276 -157.5 c 128,-1,37
 271 -158 271 -158 264.5 -158 c 128,-1,38
 258 -158 258 -158 251 -158 c 0,39,40
 227 -158 227 -158 205.5 -152.5 c 128,-1,41
 184 -147 184 -147 184 -139 c 0,42,43
 184 -126 184 -126 192 -90 c 1,44,45
 192 -86 192 -86 195 -86 c 0,46,47
 197 -86 197 -86 200 -87.5 c 128,-1,48
 203 -89 203 -89 208.5 -93 c 128,-1,49
 214 -97 214 -97 219 -99 c 1,50,51
 239 -105 239 -105 257 -105 c 1,52,53
 282 -103 282 -103 287 -99 c 0,54,55
 294 -93 294 -93 298 -79 c 1,56,57
 298 -46 298 -46 274 -46 c 0,58,59
 265 -46 265 -46 254.5 -53 c 128,-1,60
 244 -60 244 -60 241 -60 c 0,61,62
 223 -60 223 -60 216.5 -58.5 c 128,-1,63
 210 -57 210 -57 210 -52 c 1,64,65
 210 -44 210 -44 210.5 -39.5 c 128,-1,66
 211 -35 211 -35 213.5 -28 c 128,-1,67
 216 -21 216 -21 217 -16 c 0,68,69
 219 -4 219 -4 231 30 c 1,70,71
 167 54 167 54 116 123 c 0,72,73
 80 172 80 172 58.5 239.5 c 128,-1,74
 37 307 37 307 37 374 c 0,75,76
 37 432 37 432 58 496.5 c 128,-1,77
 79 561 79 561 112 607 c 128,-1,78
 145 653 145 653 187 678.5 c 128,-1,79
 229 704 229 704 271 704 c 0,80,81
 302 704 302 704 330.5 696.5 c 128,-1,82
 359 689 359 689 377.5 678.5 c 128,-1,83
 396 668 396 668 412.5 655 c 128,-1,84
 429 642 429 642 436 633.5 c 128,-1,85
 443 625 443 625 448 618 c 1,86,87
 459 604 459 604 459 597 c 128,-1,88
 459 590 459 590 448 581 c 1,89,90
 401 543 401 543 382 518 c 0,91,92
 361 492 361 492 351 492 c 0,93,94
 343 492 343 492 335 502 c 0,95,96
 334 503 334 503 328.5 509.5 c 128,-1,97
 323 516 323 516 321 518 c 128,-1,98
 319 520 319 520 314.5 524.5 c 128,-1,99
 310 529 310 529 307.5 531 c 128,-1,100
 305 533 305 533 300 536.5 c 128,-1,101
 295 540 295 540 292 541 c 128,-1,102
 289 542 289 542 284 543 c 128,-1,103
 279 544 279 544 275 544 c 0,104,105
 236 544 236 544 204 498 c 1,106,107
 188 473 188 473 177.5 431.5 c 128,-1,108
 167 390 167 390 167 349.5 c 128,-1,109
 167 309 167 309 176.5 275 c 128,-1,110
 186 241 186 241 200 220.5 c 128,-1,111
 214 200 214 200 231 186 c 128,-1,112
 248 172 248 172 262 167.5 c 128,-1,113
 276 163 276 163 285 164 c 1,114,115
 316 164 316 164 355 203 c 0,116,117
 356 204 356 204 358.5 206.5 c 128,-1,118
 361 209 361 209 362 210 c 128,-1,119
 363 211 363 211 364.5 212.5 c 128,-1,120
 366 214 366 214 367.5 214.5 c 128,-1,121
 369 215 369 215 370 215 c 0,122,123
 375 215 375 215 382 211 c 2,124,-1
 467 164 l 2,0,1
EndSplineSet
Validated: 1
Substitution2: "Single Substitution lookup 20 subtable" ccedilla
Substitution2: "'aalt' Access All Alternates lookup 0 subtable" ccedilla
Position2: "'cpsp' Capital Spacing lookup 0 subtable" dx=5 dy=0 dh=10 dv=0
EndChar

StartChar: Ccircumflex
Encoding: 264 264 19
Width: 527
Flags: MW
HStem: -12 146<271 299 271 358> 544 160<253 288>
VStem: 37 130<250 411 248 458>
LayerCount: 2
UndoRedoHistory
Layer: 0
Undoes
EndUndoes
Redoes
EndRedoes
EndUndoRedoHistory
UndoRedoHistory
Layer: 1
Undoes
EndUndoes
Redoes
EndRedoes
EndUndoRedoHistory
Fore
SplineSet
170 778 m 2,0,1
 171 778 171 778 177 781 c 128,-1,2
 183 784 183 784 186.5 786 c 128,-1,3
 190 788 190 788 199 793.5 c 128,-1,4
 208 799 208 799 218 807 c 1,5,6
 257 829 257 829 270 833 c 1,7,8
 279 837 279 837 288 837 c 1,9,10
 292 838 292 838 299 838 c 0,11,12
 304 838 304 838 309 836.5 c 128,-1,13
 314 835 314 835 316.5 834 c 128,-1,14
 319 833 319 833 326 829 c 128,-1,15
 333 825 333 825 337 823 c 1,16,17
 349 814 349 814 404 780 c 0,18,19
 408 778 l 0,20,21
 412 776 412 776 414.5 773.5 c 128,-1,22
 417 771 417 771 421 768.5 c 128,-1,23
 425 766 425 766 428 763.5 c 128,-1,24
 431 761 431 761 434 758 c 128,-1,25
 437 755 437 755 437.5 752 c 128,-1,26
 438 749 438 749 438 746 c 0,27,28
 434 731 434 731 422 731 c 0,29,30
 415 731 415 731 395 738 c 1,31,-1
 368 745 l 1,32,33
 354 750 354 750 333 763 c 1,34,-1
 301 778 l 1,35,-1
 255 757 l 1,36,37
 234 746 234 746 198 736 c 1,38,39
 178 733 178 733 160 733 c 0,40,41
 149 733 149 733 142.5 738 c 128,-1,42
 136 743 136 743 136 749 c 0,43,44
 136 757 136 757 143 761 c 2,45,-1
 170 778 l 2,0,1
467 134 m 2,46,47
 469 133 469 133 475 130 c 128,-1,48
 481 127 481 127 483.5 126 c 128,-1,49
 486 125 486 125 489.5 123 c 128,-1,50
 493 121 493 121 494 119 c 128,-1,51
 495 117 495 117 495 114 c 0,52,53
 495 109 495 109 492 103 c 0,54,55
 486 93 486 93 479.5 83.5 c 128,-1,56
 473 74 473 74 455 55 c 128,-1,57
 437 36 437 36 416.5 22.5 c 128,-1,58
 396 9 396 9 363 -1.5 c 128,-1,59
 330 -12 330 -12 293 -12 c 0,60,61
 244 -12 244 -12 197.5 16 c 128,-1,62
 151 44 151 44 116 92.5 c 128,-1,63
 81 141 81 141 59 209.5 c 128,-1,64
 37 278 37 278 37 354 c 0,65,66
 37 429 37 429 58 495.5 c 128,-1,67
 79 562 79 562 112.5 607 c 128,-1,68
 146 652 146 652 187.5 678 c 128,-1,69
 229 704 229 704 271 704 c 0,70,71
 302 704 302 704 330.5 696.5 c 128,-1,72
 359 689 359 689 377.5 678.5 c 128,-1,73
 396 668 396 668 412.5 655 c 128,-1,74
 429 642 429 642 436 633.5 c 128,-1,75
 443 625 443 625 448 618 c 1,76,77
 459 604 459 604 459 597 c 128,-1,78
 459 590 459 590 448 581 c 1,79,80
 401 543 401 543 382 518 c 0,81,82
 361 492 361 492 351 492 c 0,83,84
 343 492 343 492 335 502 c 0,85,86
 334 503 334 503 328.5 509.5 c 128,-1,87
 323 516 323 516 321 518 c 128,-1,88
 319 520 319 520 314.5 524.5 c 128,-1,89
 310 529 310 529 307.5 531 c 128,-1,90
 305 533 305 533 300 536.5 c 128,-1,91
 295 540 295 540 292 541 c 128,-1,92
 289 542 289 542 284 543 c 128,-1,93
 279 544 279 544 275 544 c 0,94,95
 261 544 261 544 246.5 537.5 c 128,-1,96
 232 531 232 531 218 515.5 c 128,-1,97
 204 500 204 500 192.5 476 c 128,-1,98
 181 452 181 452 174 414 c 128,-1,99
 167 376 167 376 167 329 c 0,100,101
 167 283 167 283 177 246.5 c 128,-1,102
 187 210 187 210 200.5 189.5 c 128,-1,103
 214 169 214 169 231.5 156 c 128,-1,104
 249 143 249 143 262 138.5 c 128,-1,105
 275 134 275 134 285 134 c 0,106,107
 316 134 316 134 355 173 c 0,108,109
 356 174 356 174 358.5 176.5 c 128,-1,110
 361 179 361 179 362 180 c 128,-1,111
 363 181 363 181 364.5 182.5 c 128,-1,112
 366 184 366 184 367.5 184.5 c 128,-1,113
 369 185 369 185 370 185 c 0,114,115
 375 185 375 185 382 181 c 2,116,-1
 467 134 l 2,46,47
EndSplineSet
Validated: 1
Substitution2: "Single Substitution lookup 20 subtable" ccircumflex
Substitution2: "'aalt' Access All Alternates lookup 0 subtable" ccircumflex
Position2: "'cpsp' Capital Spacing lookup 0 subtable" dx=5 dy=0 dh=10 dv=0
EndChar

StartChar: Cdotaccent
Encoding: 266 266 20
Width: 527
Flags: MW
HStem: -12 146<271 299 271 358> 544 160<253 288> 720 120<277 304 271 304>
VStem: 37 130<250 411 248 458> 230 127<764 795>
LayerCount: 2
UndoRedoHistory
Layer: 0
Undoes
EndUndoes
Redoes
EndRedoes
EndUndoRedoHistory
UndoRedoHistory
Layer: 1
Undoes
EndUndoes
Redoes
EndRedoes
EndUndoRedoHistory
Fore
SplineSet
357 786 m 0,0,1
 357 756 357 756 335.5 738 c 128,-1,2
 314 720 314 720 291 720 c 0,3,4
 269 720 269 720 249.5 737 c 128,-1,5
 230 754 230 754 230 781 c 0,6,7
 230 803 230 803 247 821.5 c 128,-1,8
 264 840 264 840 287 840 c 0,9,10
 314 840 314 840 335.5 825.5 c 128,-1,11
 357 811 357 811 357 786 c 0,0,1
467 134 m 2,12,13
 469 133 469 133 475 130 c 128,-1,14
 481 127 481 127 483.5 126 c 128,-1,15
 486 125 486 125 489.5 123 c 128,-1,16
 493 121 493 121 494 119 c 128,-1,17
 495 117 495 117 495 114 c 0,18,19
 495 109 495 109 492 103 c 0,20,21
 486 93 486 93 479.5 83.5 c 128,-1,22
 473 74 473 74 455 55 c 128,-1,23
 437 36 437 36 416.5 22.5 c 128,-1,24
 396 9 396 9 363 -1.5 c 128,-1,25
 330 -12 330 -12 293 -12 c 0,26,27
 244 -12 244 -12 197.5 16 c 128,-1,28
 151 44 151 44 116 92.5 c 128,-1,29
 81 141 81 141 59 209.5 c 128,-1,30
 37 278 37 278 37 354 c 0,31,32
 37 429 37 429 58 495.5 c 128,-1,33
 79 562 79 562 112.5 607 c 128,-1,34
 146 652 146 652 187.5 678 c 128,-1,35
 229 704 229 704 271 704 c 0,36,37
 302 704 302 704 330.5 696.5 c 128,-1,38
 359 689 359 689 377.5 678.5 c 128,-1,39
 396 668 396 668 412.5 655 c 128,-1,40
 429 642 429 642 436 633.5 c 128,-1,41
 443 625 443 625 448 618 c 1,42,43
 459 604 459 604 459 597 c 128,-1,44
 459 590 459 590 448 581 c 1,45,46
 401 543 401 543 382 518 c 0,47,48
 361 492 361 492 351 492 c 0,49,50
 343 492 343 492 335 502 c 0,51,52
 334 503 334 503 328.5 509.5 c 128,-1,53
 323 516 323 516 321 518 c 128,-1,54
 319 520 319 520 314.5 524.5 c 128,-1,55
 310 529 310 529 307.5 531 c 128,-1,56
 305 533 305 533 300 536.5 c 128,-1,57
 295 540 295 540 292 541 c 128,-1,58
 289 542 289 542 284 543 c 128,-1,59
 279 544 279 544 275 544 c 0,60,61
 261 544 261 544 246.5 537.5 c 128,-1,62
 232 531 232 531 218 515.5 c 128,-1,63
 204 500 204 500 192.5 476 c 128,-1,64
 181 452 181 452 174 414 c 128,-1,65
 167 376 167 376 167 329 c 0,66,67
 167 283 167 283 177 246.5 c 128,-1,68
 187 210 187 210 200.5 189.5 c 128,-1,69
 214 169 214 169 231.5 156 c 128,-1,70
 249 143 249 143 262 138.5 c 128,-1,71
 275 134 275 134 285 134 c 0,72,73
 316 134 316 134 355 173 c 0,74,75
 356 174 356 174 358.5 176.5 c 128,-1,76
 361 179 361 179 362 180 c 128,-1,77
 363 181 363 181 364.5 182.5 c 128,-1,78
 366 184 366 184 367.5 184.5 c 128,-1,79
 369 185 369 185 370 185 c 0,80,81
 375 185 375 185 382 181 c 2,82,-1
 467 134 l 2,12,13
EndSplineSet
Validated: 1
Substitution2: "Single Substitution lookup 20 subtable" cdotaccent
Substitution2: "'aalt' Access All Alternates lookup 0 subtable" cdotaccent
Position2: "'cpsp' Capital Spacing lookup 0 subtable" dx=5 dy=0 dh=10 dv=0
EndChar

StartChar: D
Encoding: 68 68 21
Width: 576
Flags: MW
HStem: 0 21G<80 101> 676 20G<123 135> 680 20G<228 286>
VStem: 70 178<438 551> 341 201<338 390>
LayerCount: 2
UndoRedoHistory
Layer: 0
Undoes
EndUndoes
Redoes
EndRedoes
EndUndoRedoHistory
UndoRedoHistory
Layer: 1
Undoes
EndUndoes
Redoes
EndRedoes
EndUndoRedoHistory
Fore
SplineSet
171 698 m 1,0,1
 213 700 213 700 239 700 c 0,2,3
 261 700 261 700 285 696 c 128,-1,4
 309 692 309 692 339.5 680.5 c 128,-1,5
 370 669 370 669 397.5 651 c 128,-1,6
 425 633 425 633 452 602.5 c 128,-1,7
 479 572 479 572 498.5 533.5 c 128,-1,8
 518 495 518 495 530 438.5 c 128,-1,9
 542 382 542 382 542 315 c 0,10,11
 542 267 542 267 532 225.5 c 128,-1,12
 522 184 522 184 506.5 154.5 c 128,-1,13
 491 125 491 125 468 100.5 c 128,-1,14
 445 76 445 76 422 60.5 c 128,-1,15
 399 45 399 45 372 33.5 c 128,-1,16
 345 22 345 22 323.5 16 c 128,-1,17
 302 10 302 10 279.5 6.5 c 128,-1,18
 257 3 257 3 245 2.5 c 128,-1,19
 233 2 233 2 224 2 c 0,20,21
 203 2 203 2 151 1 c 128,-1,22
 99 0 99 0 88 0 c 0,23,24
 69 0 69 0 69 34 c 0,25,26
 69 38 69 38 69.5 47 c 128,-1,27
 70 56 70 56 70 60 c 0,28,29
 70 72 70 72 68.5 108.5 c 128,-1,30
 67 145 67 145 67 155 c 0,31,32
 67 157 67 157 64.5 206.5 c 128,-1,33
 62 256 62 256 62 303 c 0,34,35
 62 342 62 342 66 406.5 c 128,-1,36
 70 471 70 471 70 511 c 0,37,38
 70 559 70 559 69 618.5 c 128,-1,39
 68 678 68 678 68 681 c 0,40,41
 68 687 68 687 72 690.5 c 128,-1,42
 76 694 76 694 85 695 c 128,-1,43
 94 696 94 696 100.5 696.5 c 128,-1,44
 107 697 107 697 119 696.5 c 128,-1,45
 131 696 131 696 135 696 c 2,46,-1
 171 698 l 1,0,1
241 214 m 1,47,48
 266 226 266 226 291 250 c 1,49,50
 341 298 341 298 341 364 c 0,51,52
 341 427 341 427 293 465 c 0,53,54
 272 482 272 482 246 489 c 1,55,56
 248 467 248 467 248 455 c 0,57,58
 248 437 248 437 246 401.5 c 128,-1,59
 244 366 244 366 244 350 c 0,60,61
 244 324 244 324 242 266 c 0,62,63
 241 249 241 249 241 214 c 1,47,48
EndSplineSet
Validated: 8388609
Substitution2: "Single Substitution lookup 20 subtable" d
Substitution2: "'aalt' Access All Alternates lookup 0 subtable" d
Position2: "'cpsp' Capital Spacing lookup 0 subtable" dx=5 dy=0 dh=10 dv=0
EndChar

StartChar: DZ
Encoding: 497 497 22
Width: 1217
Flags: MW
HStem: -1 124<863 892> 0 21G<80 101> 624 69 627 66<645 668 645 678 636 668> 627 70 680 20G<228 286>
VStem: 70 178<438 551> 341 201<338 390>
LayerCount: 2
UndoRedoHistory
Layer: 0
Undoes
EndUndoes
Redoes
EndRedoes
EndUndoRedoHistory
UndoRedoHistory
Layer: 1
Undoes
EndUndoes
Redoes
EndRedoes
EndUndoRedoHistory
Fore
SplineSet
171 698 m 1,0,1
 213 700 213 700 239 700 c 0,2,3
 261 700 261 700 285 696 c 128,-1,4
 309 692 309 692 339.5 680.5 c 128,-1,5
 370 669 370 669 397.5 651 c 128,-1,6
 425 633 425 633 452 602.5 c 128,-1,7
 479 572 479 572 498.5 533.5 c 128,-1,8
 518 495 518 495 530 438.5 c 128,-1,9
 542 382 542 382 542 315 c 0,10,11
 542 267 542 267 532 225.5 c 128,-1,12
 522 184 522 184 506.5 154.5 c 128,-1,13
 491 125 491 125 468 100.5 c 128,-1,14
 445 76 445 76 422 60.5 c 128,-1,15
 399 45 399 45 372 33.5 c 128,-1,16
 345 22 345 22 323.5 16 c 128,-1,17
 302 10 302 10 279.5 6.5 c 128,-1,18
 257 3 257 3 245 2.5 c 128,-1,19
 233 2 233 2 224 2 c 0,20,21
 203 2 203 2 151 1 c 128,-1,22
 99 0 99 0 88 0 c 0,23,24
 69 0 69 0 69 34 c 0,25,26
 69 38 69 38 69.5 47 c 128,-1,27
 70 56 70 56 70 60 c 0,28,29
 70 72 70 72 68.5 108.5 c 128,-1,30
 67 145 67 145 67 155 c 0,31,32
 67 157 67 157 64.5 206.5 c 128,-1,33
 62 256 62 256 62 303 c 0,34,35
 62 342 62 342 66 406.5 c 128,-1,36
 70 471 70 471 70 511 c 0,37,38
 70 559 70 559 69 618.5 c 128,-1,39
 68 678 68 678 68 681 c 0,40,41
 68 687 68 687 72 690.5 c 128,-1,42
 76 694 76 694 85 695 c 128,-1,43
 94 696 94 696 100.5 696.5 c 128,-1,44
 107 697 107 697 119 696.5 c 128,-1,45
 131 696 131 696 135 696 c 2,46,-1
 171 698 l 1,0,1
934 625 m 1,47,-1
 828 626 l 2,48,49
 820 626 820 626 798.5 625 c 128,-1,50
 777 624 777 624 767 624 c 0,51,52
 753 624 753 624 749 625 c 0,53,54
 740 627 740 627 678 627 c 2,55,-1
 636 627 l 1,56,57
 631 627 631 627 628 628.5 c 128,-1,58
 625 630 625 630 625 631 c 128,-1,59
 625 632 625 632 625 636 c 0,60,-1
 625 640 l 0,61,62
 625 650 625 650 622 679 c 0,63,64
 622 684 622 684 623.5 687.5 c 128,-1,65
 625 691 625 691 628 692 c 128,-1,66
 631 693 631 693 634 693.5 c 128,-1,67
 637 694 637 694 643 693.5 c 128,-1,68
 649 693 649 693 652 693 c 0,69,70
 667 693 667 693 711.5 695 c 128,-1,71
 756 697 756 697 778 697 c 128,-1,72
 800 697 800 697 868.5 695 c 128,-1,73
 937 693 937 693 946 693 c 2,74,-1
 1005 693 l 2,75,76
 1091 693 1091 693 1105 695 c 0,77,78
 1106 695 1106 695 1108.5 695.5 c 128,-1,79
 1111 696 1111 696 1112 696 c 0,80,81
 1115 696 1115 696 1117.5 695.5 c 128,-1,82
 1120 695 1120 695 1121.5 693.5 c 128,-1,83
 1123 692 1123 692 1123.5 691.5 c 128,-1,84
 1124 691 1124 691 1124.5 689 c 128,-1,85
 1125 687 1125 687 1125 686.5 c 128,-1,86
 1125 686 1125 686 1125 683.5 c 128,-1,87
 1125 681 1125 681 1125 680.5 c 128,-1,88
 1125 680 1125 680 1125 675 c 128,-1,89
 1125 670 1125 670 1125 666.5 c 128,-1,90
 1125 663 1125 663 1125 657 c 128,-1,91
 1125 651 1125 651 1124 646.5 c 128,-1,92
 1123 642 1123 642 1121 637 c 128,-1,93
 1119 632 1119 632 1116 628 c 0,94,95
 1114 626 1114 626 1095 598 c 128,-1,96
 1076 570 1076 570 1056.5 541.5 c 128,-1,97
 1037 513 1037 513 1014 480 c 128,-1,98
 991 447 991 447 978 430 c 0,99,100
 901 321 901 321 856 262 c 1,101,-1
 761 132 l 1,102,103
 790 128 790 128 802 127 c 0,104,105
 833 123 833 123 874 123 c 0,106,107
 896 123 896 123 930 124 c 128,-1,108
 964 125 964 125 983 125 c 0,109,110
 1004 125 1004 125 1072 128 c 128,-1,111
 1140 131 1140 131 1149 131 c 0,112,113
 1154 131 1154 131 1157.5 129.5 c 128,-1,114
 1161 128 1161 128 1163 126.5 c 128,-1,115
 1165 125 1165 125 1166 121 c 128,-1,116
 1167 117 1167 117 1167 115 c 128,-1,117
 1167 113 1167 113 1167.5 107.5 c 128,-1,118
 1168 102 1168 102 1168 100 c 0,119,120
 1168 93 1168 93 1167 64.5 c 128,-1,121
 1166 36 1166 36 1166 27 c 2,122,-1
 1166 21 l 2,123,124
 1166 11 1166 11 1164 9 c 128,-1,125
 1162 7 1162 7 1152 6 c 0,126,127
 1147 5 1147 5 1124.5 4 c 128,-1,128
 1102 3 1102 3 1077 -1 c 0,129,130
 1063 -3 1063 -3 1019 -3 c 0,131,132
 994 -3 994 -3 948.5 -2 c 128,-1,133
 903 -1 903 -1 892 -1 c 2,134,-1
 647 -1 l 2,135,136
 638 -1 638 -1 631.5 0.5 c 128,-1,137
 625 2 625 2 622 4 c 128,-1,138
 619 6 619 6 617.5 10 c 128,-1,139
 616 14 616 14 616 16.5 c 128,-1,140
 616 19 616 19 616 24.5 c 128,-1,141
 616 30 616 30 616 32 c 0,142,143
 616 38 616 38 618.5 74.5 c 128,-1,144
 621 111 621 111 621 120 c 0,145,146
 621 126 621 126 625 133.5 c 128,-1,147
 629 141 629 141 634 146.5 c 128,-1,148
 639 152 639 152 649 163 c 128,-1,149
 659 174 659 174 664 180 c 1,150,151
 776 326 776 326 802 370 c 0,152,153
 808 381 808 381 823.5 402.5 c 128,-1,154
 839 424 839 424 853 442.5 c 128,-1,155
 867 461 867 461 885.5 486.5 c 128,-1,156
 904 512 904 512 909 518 c 0,157,158
 921 535 921 535 945 583 c 1,159,-1
 963 622 l 1,160,161
 957 622 957 622 954 623 c 1,162,-1
 934 625 l 1,47,-1
241 214 m 1,163,164
 266 226 266 226 291 250 c 1,165,166
 341 298 341 298 341 364 c 0,167,168
 341 427 341 427 293 465 c 0,169,170
 272 482 272 482 246 489 c 1,171,172
 248 467 248 467 248 455 c 0,173,174
 248 437 248 437 246 401.5 c 128,-1,175
 244 366 244 366 244 350 c 0,176,177
 244 324 244 324 242 266 c 0,178,179
 241 249 241 249 241 214 c 1,163,164
EndSplineSet
Validated: 8388609
Substitution2: "Single Substitution lookup 20 subtable" dz
Substitution2: "'aalt' Access All Alternates lookup 0 subtable" dz
Position2: "'cpsp' Capital Spacing lookup 0 subtable" dx=5 dy=0 dh=10 dv=0
EndChar

StartChar: DZcaron
Encoding: 452 452 23
Width: 1217
Flags: MW
HStem: -1 124<863 892> 0 21G<80 101> 624 69 627 66<645 668 645 678 636 668> 627 70 680 20G<228 286>
VStem: 70 178<438 551> 341 201<338 390>
LayerCount: 2
UndoRedoHistory
Layer: 0
Undoes
EndUndoes
Redoes
EndRedoes
EndUndoRedoHistory
UndoRedoHistory
Layer: 1
Undoes
EndUndoes
Redoes
EndRedoes
EndUndoRedoHistory
Fore
SplineSet
999 791 m 2,0,1
 997 790 997 790 991.5 787.5 c 128,-1,2
 986 785 986 785 982.5 783 c 128,-1,3
 979 781 979 781 970 775.5 c 128,-1,4
 961 770 961 770 951 762 c 1,5,6
 910 739 910 739 899 736 c 1,7,8
 890 732 890 732 881 732 c 1,9,10
 877 731 877 731 870 731 c 0,11,12
 865 731 865 731 860 732 c 128,-1,13
 855 733 855 733 852 734.5 c 128,-1,14
 849 736 849 736 842.5 740 c 128,-1,15
 836 744 836 744 832 746 c 1,16,17
 827 750 827 750 765 789 c 1,18,-1
 761 792 l 2,19,20
 757 795 757 795 754.5 796 c 128,-1,21
 752 797 752 797 747.5 800 c 128,-1,22
 743 803 743 803 740.5 806 c 128,-1,23
 738 809 738 809 735 811.5 c 128,-1,24
 732 814 732 814 731 817 c 128,-1,25
 730 820 730 820 731 823 c 0,26,27
 735 838 735 838 747 838 c 0,28,29
 754 838 754 838 774 831 c 1,30,-1
 801 824 l 1,31,32
 815 819 815 819 836 806 c 1,33,-1
 868 791 l 1,34,35
 900 805 900 805 913 812 c 1,36,37
 936 823 936 823 971 833 c 1,38,39
 991 836 991 836 1009 836 c 0,40,41
 1020 836 1020 836 1026.5 831 c 128,-1,42
 1033 826 1033 826 1033 820 c 0,43,44
 1033 813 1033 813 1025 808 c 1,45,-1
 999 791 l 2,0,1
171 698 m 1,46,47
 213 700 213 700 239 700 c 0,48,49
 261 700 261 700 285 696 c 128,-1,50
 309 692 309 692 339.5 680.5 c 128,-1,51
 370 669 370 669 397.5 651 c 128,-1,52
 425 633 425 633 452 602.5 c 128,-1,53
 479 572 479 572 498.5 533.5 c 128,-1,54
 518 495 518 495 530 438.5 c 128,-1,55
 542 382 542 382 542 315 c 0,56,57
 542 267 542 267 532 225.5 c 128,-1,58
 522 184 522 184 506.5 154.5 c 128,-1,59
 491 125 491 125 468 100.5 c 128,-1,60
 445 76 445 76 422 60.5 c 128,-1,61
 399 45 399 45 372 33.5 c 128,-1,62
 345 22 345 22 323.5 16 c 128,-1,63
 302 10 302 10 279.5 6.5 c 128,-1,64
 257 3 257 3 245 2.5 c 128,-1,65
 233 2 233 2 224 2 c 0,66,67
 203 2 203 2 151 1 c 128,-1,68
 99 0 99 0 88 0 c 0,69,70
 69 0 69 0 69 34 c 0,71,72
 69 38 69 38 69.5 47 c 128,-1,73
 70 56 70 56 70 60 c 0,74,75
 70 72 70 72 68.5 108.5 c 128,-1,76
 67 145 67 145 67 155 c 0,77,78
 67 157 67 157 64.5 206.5 c 128,-1,79
 62 256 62 256 62 303 c 0,80,81
 62 342 62 342 66 406.5 c 128,-1,82
 70 471 70 471 70 511 c 0,83,84
 70 559 70 559 69 618.5 c 128,-1,85
 68 678 68 678 68 681 c 0,86,87
 68 687 68 687 72 690.5 c 128,-1,88
 76 694 76 694 85 695 c 128,-1,89
 94 696 94 696 100.5 696.5 c 128,-1,90
 107 697 107 697 119 696.5 c 128,-1,91
 131 696 131 696 135 696 c 2,92,-1
 171 698 l 1,46,47
934 625 m 1,93,-1
 828 626 l 2,94,95
 820 626 820 626 798.5 625 c 128,-1,96
 777 624 777 624 767 624 c 0,97,98
 753 624 753 624 749 625 c 0,99,100
 740 627 740 627 678 627 c 2,101,-1
 636 627 l 1,102,103
 631 627 631 627 628 628.5 c 128,-1,104
 625 630 625 630 625 631 c 128,-1,105
 625 632 625 632 625 636 c 0,106,-1
 625 640 l 0,107,108
 625 650 625 650 622 679 c 0,109,110
 622 684 622 684 623.5 687.5 c 128,-1,111
 625 691 625 691 628 692 c 128,-1,112
 631 693 631 693 634 693.5 c 128,-1,113
 637 694 637 694 643 693.5 c 128,-1,114
 649 693 649 693 652 693 c 0,115,116
 667 693 667 693 711.5 695 c 128,-1,117
 756 697 756 697 778 697 c 128,-1,118
 800 697 800 697 868.5 695 c 128,-1,119
 937 693 937 693 946 693 c 2,120,-1
 1005 693 l 2,121,122
 1091 693 1091 693 1105 695 c 0,123,124
 1106 695 1106 695 1108.5 695.5 c 128,-1,125
 1111 696 1111 696 1112 696 c 0,126,127
 1115 696 1115 696 1117.5 695.5 c 128,-1,128
 1120 695 1120 695 1121.5 693.5 c 128,-1,129
 1123 692 1123 692 1123.5 691.5 c 128,-1,130
 1124 691 1124 691 1124.5 689 c 128,-1,131
 1125 687 1125 687 1125 686.5 c 128,-1,132
 1125 686 1125 686 1125 683.5 c 128,-1,133
 1125 681 1125 681 1125 680.5 c 128,-1,134
 1125 680 1125 680 1125 675 c 128,-1,135
 1125 670 1125 670 1125 666.5 c 128,-1,136
 1125 663 1125 663 1125 657 c 128,-1,137
 1125 651 1125 651 1124 646.5 c 128,-1,138
 1123 642 1123 642 1121 637 c 128,-1,139
 1119 632 1119 632 1116 628 c 0,140,141
 1114 626 1114 626 1095 598 c 128,-1,142
 1076 570 1076 570 1056.5 541.5 c 128,-1,143
 1037 513 1037 513 1014 480 c 128,-1,144
 991 447 991 447 978 430 c 0,145,146
 901 321 901 321 856 262 c 1,147,-1
 761 132 l 1,148,149
 790 128 790 128 802 127 c 0,150,151
 833 123 833 123 874 123 c 0,152,153
 896 123 896 123 930 124 c 128,-1,154
 964 125 964 125 983 125 c 0,155,156
 1004 125 1004 125 1072 128 c 128,-1,157
 1140 131 1140 131 1149 131 c 0,158,159
 1154 131 1154 131 1157.5 129.5 c 128,-1,160
 1161 128 1161 128 1163 126.5 c 128,-1,161
 1165 125 1165 125 1166 121 c 128,-1,162
 1167 117 1167 117 1167 115 c 128,-1,163
 1167 113 1167 113 1167.5 107.5 c 128,-1,164
 1168 102 1168 102 1168 100 c 0,165,166
 1168 93 1168 93 1167 64.5 c 128,-1,167
 1166 36 1166 36 1166 27 c 2,168,-1
 1166 21 l 2,169,170
 1166 11 1166 11 1164 9 c 128,-1,171
 1162 7 1162 7 1152 6 c 0,172,173
 1147 5 1147 5 1124.5 4 c 128,-1,174
 1102 3 1102 3 1077 -1 c 0,175,176
 1063 -3 1063 -3 1019 -3 c 0,177,178
 994 -3 994 -3 948.5 -2 c 128,-1,179
 903 -1 903 -1 892 -1 c 2,180,-1
 647 -1 l 2,181,182
 638 -1 638 -1 631.5 0.5 c 128,-1,183
 625 2 625 2 622 4 c 128,-1,184
 619 6 619 6 617.5 10 c 128,-1,185
 616 14 616 14 616 16.5 c 128,-1,186
 616 19 616 19 616 24.5 c 128,-1,187
 616 30 616 30 616 32 c 0,188,189
 616 38 616 38 618.5 74.5 c 128,-1,190
 621 111 621 111 621 120 c 0,191,192
 621 126 621 126 625 133.5 c 128,-1,193
 629 141 629 141 634 146.5 c 128,-1,194
 639 152 639 152 649 163 c 128,-1,195
 659 174 659 174 664 180 c 1,196,197
 776 326 776 326 802 370 c 0,198,199
 808 381 808 381 823.5 402.5 c 128,-1,200
 839 424 839 424 853 442.5 c 128,-1,201
 867 461 867 461 885.5 486.5 c 128,-1,202
 904 512 904 512 909 518 c 0,203,204
 921 535 921 535 945 583 c 1,205,-1
 963 622 l 1,206,207
 957 622 957 622 954 623 c 1,208,-1
 934 625 l 1,93,-1
241 214 m 1,209,210
 266 226 266 226 291 250 c 1,211,212
 341 298 341 298 341 364 c 0,213,214
 341 427 341 427 293 465 c 0,215,216
 272 482 272 482 246 489 c 1,217,218
 248 467 248 467 248 455 c 0,219,220
 248 437 248 437 246 401.5 c 128,-1,221
 244 366 244 366 244 350 c 0,222,223
 244 324 244 324 242 266 c 0,224,225
 241 249 241 249 241 214 c 1,209,210
EndSplineSet
Validated: 8388609
Substitution2: "Single Substitution lookup 20 subtable" dzcaron
Substitution2: "'aalt' Access All Alternates lookup 0 subtable" dzcaron
Position2: "'cpsp' Capital Spacing lookup 0 subtable" dx=5 dy=0 dh=10 dv=0
EndChar

StartChar: Eth
Encoding: 208 208 24
Width: 615
Flags: MW
HStem: 0 21G<114 134> 0 62 312 78<61 62> 315 78<279 297 277 375> 623 77 676 20G<157 169>
VStem: 104 171<62 72> 104 178<487 498 466 551> 510 66<348 364>
LayerCount: 2
UndoRedoHistory
Layer: 0
Undoes
EndUndoes
Redoes
EndRedoes
EndUndoRedoHistory
UndoRedoHistory
Layer: 1
Undoes
EndUndoes
Redoes
EndRedoes
EndUndoRedoHistory
Fore
SplineSet
205 698 m 1,0,1
 247 700 247 700 273 700 c 0,2,3
 295 700 295 700 319 696 c 128,-1,4
 343 692 343 692 373.5 680.5 c 128,-1,5
 404 669 404 669 431.5 651 c 128,-1,6
 459 633 459 633 486 602.5 c 128,-1,7
 513 572 513 572 532.5 533.5 c 128,-1,8
 552 495 552 495 564 438.5 c 128,-1,9
 576 382 576 382 576 315 c 0,10,11
 576 253 576 253 560 203 c 128,-1,12
 544 153 544 153 520 121 c 128,-1,13
 496 89 496 89 462.5 65.5 c 128,-1,14
 429 42 429 42 399.5 30.5 c 128,-1,15
 370 19 370 19 337.5 12 c 128,-1,16
 305 5 305 5 288 3.5 c 128,-1,17
 271 2 271 2 258 2 c 0,18,19
 237 2 237 2 185 1 c 128,-1,20
 133 0 133 0 122 0 c 0,21,22
 103 0 103 0 103 34 c 0,23,24
 103 38 103 38 103.5 47 c 128,-1,25
 104 56 104 56 104 60 c 0,26,27
 104 72 104 72 102.5 108.5 c 128,-1,28
 101 145 101 145 101 155 c 0,29,30
 101 157 101 157 98.5 206.5 c 128,-1,31
 96 256 96 256 96 303 c 2,32,-1
 96 310 l 1,33,34
 64 312 64 312 58 312 c 128,-1,35
 52 312 52 312 48.5 312 c 128,-1,36
 45 312 45 312 43.5 314.5 c 128,-1,37
 42 317 42 317 42 317.5 c 128,-1,38
 42 318 42 318 42 322.5 c 128,-1,39
 42 327 42 327 42 328 c 0,40,41
 42 331 42 331 40.5 346 c 0,42,43
 39 360 39 360 38 370 c 0,44,45
 38 375 38 375 38 379 c 128,-1,46
 38 383 38 383 38 386 c 1,47,48
 38 392 38 392 48 392 c 0,49,50
 51 392 51 392 61 390 c 1,51,-1
 99 390 l 1,52,53
 104 485 104 485 104 511 c 0,54,55
 104 559 104 559 103 618.5 c 128,-1,56
 102 678 102 678 102 681 c 0,57,58
 102 687 102 687 106 690.5 c 128,-1,59
 110 694 110 694 119 695 c 128,-1,60
 128 696 128 696 134.5 696.5 c 128,-1,61
 141 697 141 697 153.5 696.5 c 128,-1,62
 166 696 166 696 169 696 c 2,63,-1
 205 698 l 1,0,1
383 325 m 2,64,65
 383 317 383 317 374 317 c 0,66,67
 372 317 372 317 367 317.5 c 128,-1,68
 362 318 362 318 360 318 c 128,-1,69
 358 318 358 318 334.5 316.5 c 128,-1,70
 311 315 311 315 297 315 c 2,71,-1
 277 315 l 1,72,73
 277 282 277 282 276 266 c 0,74,75
 275 249 275 249 275 62 c 1,76,77
 370 94 370 94 444 157 c 1,78,79
 493 216 493 216 501 264 c 0,80,81
 510 314 510 314 510 364 c 1,82,83
 507 418 507 418 485 465.5 c 128,-1,84
 463 513 463 513 409 567 c 1,85,86
 343 619 343 619 280 623 c 1,87,88
 282 548 282 548 282 480 c 0,89,90
 282 438 282 438 281 420 c 2,91,-1
 279 393 l 1,92,-1
 375 393 l 2,93,94
 384 393 384 393 384 385 c 0,95,96
 384 384 384 384 383.5 380.5 c 128,-1,97
 383 377 383 377 383 376 c 2,98,-1
 383 325 l 2,64,65
EndSplineSet
Validated: 8912897
Substitution2: "Single Substitution lookup 20 subtable" eth
Substitution2: "'aalt' Access All Alternates lookup 0 subtable" eth
Position2: "'cpsp' Capital Spacing lookup 0 subtable" dx=5 dy=0 dh=10 dv=0
EndChar

StartChar: Dcaron
Encoding: 270 270 25
Width: 576
Flags: MW
HStem: 0 21G<80 101> 676 20G<123 135> 680 20G<228 286>
VStem: 70 178<438 551> 341 201<338 390>
LayerCount: 2
UndoRedoHistory
Layer: 0
Undoes
EndUndoes
Redoes
EndRedoes
EndUndoRedoHistory
UndoRedoHistory
Layer: 1
Undoes
EndUndoes
Redoes
EndRedoes
EndUndoRedoHistory
Fore
SplineSet
371 791 m 2,0,1
 369 790 369 790 363.5 787.5 c 128,-1,2
 358 785 358 785 354.5 783 c 128,-1,3
 351 781 351 781 342 775.5 c 128,-1,4
 333 770 333 770 323 762 c 1,5,6
 282 739 282 739 271 736 c 1,7,8
 262 732 262 732 253 732 c 1,9,10
 249 731 249 731 242 731 c 0,11,12
 237 731 237 731 232 732 c 128,-1,13
 227 733 227 733 224 734.5 c 128,-1,14
 221 736 221 736 214.5 740 c 128,-1,15
 208 744 208 744 204 746 c 1,16,17
 199 750 199 750 137 789 c 1,18,-1
 133 792 l 2,19,20
 129 795 129 795 126.5 796 c 128,-1,21
 124 797 124 797 119.5 800 c 128,-1,22
 115 803 115 803 112.5 806 c 128,-1,23
 110 809 110 809 107 811.5 c 128,-1,24
 104 814 104 814 103.5 817 c 128,-1,25
 103 820 103 820 103 823 c 0,26,27
 107 838 107 838 119 838 c 0,28,29
 126 838 126 838 146 831 c 1,30,-1
 173 824 l 1,31,32
 187 819 187 819 208 806 c 1,33,-1
 240 791 l 1,34,35
 272 805 272 805 285 812 c 1,36,37
 308 823 308 823 343 833 c 1,38,39
 363 836 363 836 381 836 c 0,40,41
 392 836 392 836 398.5 831 c 128,-1,42
 405 826 405 826 405 820 c 0,43,44
 405 813 405 813 397 808 c 2,45,-1
 371 791 l 2,0,1
171 698 m 1,46,47
 213 700 213 700 239 700 c 0,48,49
 261 700 261 700 285 696 c 128,-1,50
 309 692 309 692 339.5 680.5 c 128,-1,51
 370 669 370 669 397.5 651 c 128,-1,52
 425 633 425 633 452 602.5 c 128,-1,53
 479 572 479 572 498.5 533.5 c 128,-1,54
 518 495 518 495 530 438.5 c 128,-1,55
 542 382 542 382 542 315 c 0,56,57
 542 267 542 267 532 225.5 c 128,-1,58
 522 184 522 184 506.5 154.5 c 128,-1,59
 491 125 491 125 468 100.5 c 128,-1,60
 445 76 445 76 422 60.5 c 128,-1,61
 399 45 399 45 372 33.5 c 128,-1,62
 345 22 345 22 323.5 16 c 128,-1,63
 302 10 302 10 279.5 6.5 c 128,-1,64
 257 3 257 3 245 2.5 c 128,-1,65
 233 2 233 2 224 2 c 0,66,67
 203 2 203 2 151 1 c 128,-1,68
 99 0 99 0 88 0 c 0,69,70
 69 0 69 0 69 34 c 0,71,72
 69 38 69 38 69.5 47 c 128,-1,73
 70 56 70 56 70 60 c 0,74,75
 70 72 70 72 68.5 108.5 c 128,-1,76
 67 145 67 145 67 155 c 0,77,78
 67 157 67 157 64.5 206.5 c 128,-1,79
 62 256 62 256 62 303 c 0,80,81
 62 342 62 342 66 406.5 c 128,-1,82
 70 471 70 471 70 511 c 0,83,84
 70 559 70 559 69 618.5 c 128,-1,85
 68 678 68 678 68 681 c 0,86,87
 68 687 68 687 72 690.5 c 128,-1,88
 76 694 76 694 85 695 c 128,-1,89
 94 696 94 696 100.5 696.5 c 128,-1,90
 107 697 107 697 119 696.5 c 128,-1,91
 131 696 131 696 135 696 c 2,92,-1
 171 698 l 1,46,47
241 214 m 1,93,94
 266 226 266 226 291 250 c 1,95,96
 341 298 341 298 341 364 c 0,97,98
 341 427 341 427 293 465 c 0,99,100
 272 482 272 482 246 489 c 1,101,102
 248 467 248 467 248 455 c 0,103,104
 248 437 248 437 246 401.5 c 128,-1,105
 244 366 244 366 244 350 c 0,106,107
 244 324 244 324 242 266 c 0,108,109
 241 249 241 249 241 214 c 1,93,94
EndSplineSet
Validated: 8388609
Substitution2: "Single Substitution lookup 20 subtable" dcaron
Substitution2: "'aalt' Access All Alternates lookup 0 subtable" dcaron
Position2: "'cpsp' Capital Spacing lookup 0 subtable" dx=5 dy=0 dh=10 dv=0
EndChar

StartChar: Dcroat
Encoding: 272 272 26
Width: 576
Flags: MW
HStem: 0 21G<80 101> 325 59<6 65 270 281 281 283> 676 20G<123 135> 680 20G<228 286>
VStem: 62 143 70 142<441 551> 366 176<363 389>
LayerCount: 2
UndoRedoHistory
Layer: 0
Undoes
EndUndoes
Redoes
EndRedoes
EndUndoRedoHistory
UndoRedoHistory
Layer: 1
Undoes
EndUndoes
Redoes
EndRedoes
EndUndoRedoHistory
Fore
SplineSet
171 698 m 1,0,1
 213 700 213 700 239 700 c 0,2,3
 261 700 261 700 285 696 c 128,-1,4
 309 692 309 692 339.5 680.5 c 128,-1,5
 370 669 370 669 397.5 651 c 128,-1,6
 425 633 425 633 452 602.5 c 128,-1,7
 479 572 479 572 498.5 533.5 c 128,-1,8
 518 495 518 495 530 438.5 c 128,-1,9
 542 382 542 382 542 315 c 0,10,11
 542 267 542 267 532 225.5 c 128,-1,12
 522 184 522 184 506.5 154.5 c 128,-1,13
 491 125 491 125 468 100.5 c 128,-1,14
 445 76 445 76 422 60.5 c 128,-1,15
 399 45 399 45 372 33.5 c 128,-1,16
 345 22 345 22 323.5 16 c 128,-1,17
 302 10 302 10 279.5 6.5 c 128,-1,18
 257 3 257 3 245 2.5 c 128,-1,19
 233 2 233 2 224 2 c 0,20,21
 203 2 203 2 151 1 c 128,-1,22
 99 0 99 0 88 0 c 0,23,24
 69 0 69 0 69 34 c 0,25,26
 69 38 69 38 69.5 47 c 128,-1,27
 70 56 70 56 70 60 c 0,28,29
 70 72 70 72 68.5 108.5 c 128,-1,30
 67 145 67 145 67 155 c 0,31,32
 67 157 67 157 64.5 206.5 c 128,-1,33
 62 256 62 256 62 303 c 2,34,-1
 62 328 l 1,35,-1
 61 328 l 2,36,37
 15 328 15 328 10 325 c 1,38,39
 6 325 6 325 4 327 c 128,-1,40
 2 329 2 329 2 331 c 128,-1,41
 2 333 2 333 2 338 c 2,42,-1
 2 365 l 2,43,44
 2 375 2 375 4.5 379.5 c 128,-1,45
 7 384 7 384 13 384 c 2,46,-1
 65 384 l 1,47,48
 70 484 70 484 70 511 c 0,49,50
 70 559 70 559 69 618.5 c 128,-1,51
 68 678 68 678 68 681 c 0,52,53
 68 687 68 687 72 690.5 c 128,-1,54
 76 694 76 694 85 695 c 128,-1,55
 94 696 94 696 100.5 696.5 c 128,-1,56
 107 697 107 697 119 696.5 c 128,-1,57
 131 696 131 696 135 696 c 2,58,-1
 171 698 l 1,0,1
299 338 m 2,59,60
 299 331 299 331 295 328 c 128,-1,61
 291 325 291 325 277 325 c 0,62,63
 270 325 270 325 258.5 325.5 c 128,-1,64
 247 326 247 326 230.5 327 c 128,-1,65
 214 328 214 328 206 328 c 1,66,-1
 203 266 l 2,67,68
 201 232 201 232 201 214 c 1,69,70
 258 221 258 221 292 234 c 0,71,72
 330 248 330 248 347.5 279 c 128,-1,73
 365 310 365 310 366 363 c 1,74,75
 366 447 366 447 293 474 c 1,76,77
 254 486 254 486 209 488 c 1,78,79
 212 471 212 471 212 452 c 0,80,81
 212 428 212 428 208 384 c 1,82,-1
 281 384 l 2,83,84
 282 384 282 384 284.5 384.5 c 128,-1,85
 287 385 287 385 288 385 c 0,86,87
 293 385 293 385 295.5 382 c 128,-1,88
 298 379 298 379 298.5 377 c 128,-1,89
 299 375 299 375 299 368 c 2,90,-1
 299 338 l 2,59,60
EndSplineSet
Validated: 8388609
Substitution2: "Single Substitution lookup 20 subtable" dcroat
Substitution2: "'aalt' Access All Alternates lookup 0 subtable" dcroat
Position2: "'cpsp' Capital Spacing lookup 0 subtable" dx=5 dy=0 dh=10 dv=0
EndChar

StartChar: Ddotbelow
Encoding: 7692 7692 27
Width: 576
Flags: MW
HStem: -142 120<247 273 241 274> 0 21G<80 101> 676 20G<123 135> 680 20G<228 286>
VStem: 70 178<438 551> 200 127<-98 -66> 341 201<338 390>
LayerCount: 2
UndoRedoHistory
Layer: 0
Undoes
EndUndoes
Redoes
EndRedoes
EndUndoRedoHistory
UndoRedoHistory
Layer: 1
Undoes
EndUndoes
Redoes
EndRedoes
EndUndoRedoHistory
Fore
SplineSet
171 698 m 1,0,1
 213 700 213 700 239 700 c 0,2,3
 261 700 261 700 285 696 c 128,-1,4
 309 692 309 692 339.5 680.5 c 128,-1,5
 370 669 370 669 397.5 651 c 128,-1,6
 425 633 425 633 452 602.5 c 128,-1,7
 479 572 479 572 498.5 533.5 c 128,-1,8
 518 495 518 495 530 438.5 c 128,-1,9
 542 382 542 382 542 315 c 0,10,11
 542 267 542 267 532 225.5 c 128,-1,12
 522 184 522 184 506.5 154.5 c 128,-1,13
 491 125 491 125 468 100.5 c 128,-1,14
 445 76 445 76 422 60.5 c 128,-1,15
 399 45 399 45 372 33.5 c 128,-1,16
 345 22 345 22 323.5 16 c 128,-1,17
 302 10 302 10 279.5 6.5 c 128,-1,18
 257 3 257 3 245 2.5 c 128,-1,19
 233 2 233 2 224 2 c 0,20,21
 203 2 203 2 151 1 c 128,-1,22
 99 0 99 0 88 0 c 0,23,24
 69 0 69 0 69 34 c 0,25,26
 69 38 69 38 69.5 47 c 128,-1,27
 70 56 70 56 70 60 c 0,28,29
 70 72 70 72 68.5 108.5 c 128,-1,30
 67 145 67 145 67 155 c 0,31,32
 67 157 67 157 64.5 206.5 c 128,-1,33
 62 256 62 256 62 303 c 0,34,35
 62 342 62 342 66 406.5 c 128,-1,36
 70 471 70 471 70 511 c 0,37,38
 70 559 70 559 69 618.5 c 128,-1,39
 68 678 68 678 68 681 c 0,40,41
 68 687 68 687 72 690.5 c 128,-1,42
 76 694 76 694 85 695 c 128,-1,43
 94 696 94 696 100.5 696.5 c 128,-1,44
 107 697 107 697 119 696.5 c 128,-1,45
 131 696 131 696 135 696 c 2,46,-1
 171 698 l 1,0,1
241 214 m 1,47,48
 266 226 266 226 291 250 c 1,49,50
 341 298 341 298 341 364 c 0,51,52
 341 427 341 427 293 465 c 0,53,54
 272 482 272 482 246 489 c 1,55,56
 248 467 248 467 248 455 c 0,57,58
 248 437 248 437 246 401.5 c 128,-1,59
 244 366 244 366 244 350 c 0,60,61
 244 324 244 324 242 266 c 0,62,63
 241 249 241 249 241 214 c 1,47,48
327 -76 m 0,64,65
 327 -106 327 -106 305.5 -124 c 128,-1,66
 284 -142 284 -142 261 -142 c 0,67,68
 239 -142 239 -142 219.5 -124.5 c 128,-1,69
 200 -107 200 -107 200 -81 c 0,70,71
 200 -59 200 -59 216.5 -40.5 c 128,-1,72
 233 -22 233 -22 257 -22 c 0,73,74
 284 -22 284 -22 305.5 -36.5 c 128,-1,75
 327 -51 327 -51 327 -76 c 0,64,65
EndSplineSet
Validated: 8388609
Substitution2: "Single Substitution lookup 20 subtable" ddotbelow
Substitution2: "'aalt' Access All Alternates lookup 0 subtable" ddotbelow
Position2: "'cpsp' Capital Spacing lookup 0 subtable" dx=5 dy=0 dh=10 dv=0
EndChar

StartChar: E
Encoding: 69 69 28
Width: 524
Flags: MW
HStem: -1 136 3 130<130 262> 238 106<224 234 202 288> 552 147<100 193> 553 152<328 351 311 361> 676 20G<158 202>
VStem: 63 56<132 232 132 232 132 262> 70 48<373 378 378 425>
LayerCount: 2
UndoRedoHistory
Layer: 0
Undoes
EndUndoes
Redoes
EndRedoes
EndUndoRedoHistory
UndoRedoHistory
Layer: 1
Undoes
EndUndoes
Redoes
EndRedoes
EndUndoRedoHistory
Fore
SplineSet
63 232 m 2,0,1
 63 260 63 260 66.5 303.5 c 128,-1,2
 70 347 70 347 70 387.5 c 128,-1,3
 70 428 70 428 67.5 465.5 c 128,-1,4
 65 503 65 503 65 531 c 0,5,6
 65 595 65 595 68 678 c 0,7,8
 68 691 68 691 72.5 695.5 c 128,-1,9
 77 700 77 700 87 700 c 0,10,11
 89 700 89 700 94.5 699.5 c 128,-1,12
 100 699 100 699 102 699 c 0,13,14
 106 699 106 699 130 697.5 c 128,-1,15
 154 696 154 696 180 696 c 0,16,17
 202 696 202 696 256.5 700.5 c 128,-1,18
 311 705 311 705 330 705 c 0,19,20
 353 705 353 705 393.5 703 c 128,-1,21
 434 701 434 701 441 701 c 0,22,23
 454 701 454 701 458 694.5 c 128,-1,24
 462 688 462 688 462 673 c 0,25,26
 462 664 462 664 464 639 c 128,-1,27
 466 614 466 614 466 597 c 0,28,29
 466 577 466 577 463 560 c 1,30,31
 462 545 462 545 449 545 c 0,32,33
 445 545 445 545 436.5 547.5 c 128,-1,34
 428 550 428 550 427 550 c 0,35,36
 409 553 409 553 340 553 c 0,37,38
 327 553 327 553 301.5 554 c 128,-1,39
 276 555 276 555 264 555 c 0,40,41
 245 555 245 555 237 554 c 0,42,43
 199 552 199 552 184 552 c 0,44,45
 170 552 170 552 150 552 c 0,46,-1
 131 553 l 0,47,48
 129 553 129 553 127.5 553 c 128,-1,49
 126 553 126 553 125 552.5 c 128,-1,50
 124 552 124 552 123.5 551.5 c 128,-1,51
 123 551 123 551 122.5 549.5 c 128,-1,52
 122 548 122 548 121.5 547.5 c 128,-1,53
 121 547 121 547 121 545 c 128,-1,54
 121 543 121 543 121 542 c 128,-1,55
 121 541 121 541 121 538 c 128,-1,56
 121 535 121 535 121 533 c 0,57,58
 121 527 121 527 119.5 492 c 128,-1,59
 118 457 118 457 118 437 c 2,60,-1
 118 378 l 2,61,62
 118 357 118 357 119 346 c 1,63,64
 127 345 127 345 146 345 c 1,65,66
 163 344 163 344 216 344 c 0,67,68
 236 344 236 344 274 346 c 128,-1,69
 312 348 312 348 322 348 c 0,70,71
 336 348 336 348 351.5 346.5 c 128,-1,72
 367 345 367 345 371 345 c 0,73,74
 379 345 379 345 381.5 342 c 128,-1,75
 384 339 384 339 384 333 c 0,76,77
 384 331 384 331 383 322 c 128,-1,78
 382 313 382 313 382 302 c 0,79,80
 382 293 382 293 382.5 277.5 c 128,-1,81
 383 262 383 262 383 249 c 0,82,83
 383 233 383 233 374 233 c 0,84,85
 373 233 373 233 366.5 234.5 c 128,-1,86
 360 236 360 236 356 236 c 0,87,88
 354 236 354 236 323.5 237 c 128,-1,89
 293 238 293 238 256 238 c 0,90,91
 228 238 228 238 201 236 c 128,-1,92
 174 234 174 234 158 232 c 128,-1,93
 142 230 142 230 138 230 c 0,94,95
 127 230 127 230 125 231 c 1,96,97
 120 231 120 231 119 232 c 1,98,-1
 119 132 l 1,99,100
 126 132 126 132 130 133 c 1,101,102
 133 133 133 133 142.5 133.5 c 128,-1,103
 152 134 152 134 158 134 c 0,104,105
 167 134 167 134 208.5 134.5 c 128,-1,106
 250 135 250 135 276 135 c 0,107,108
 292 135 292 135 336.5 134 c 128,-1,109
 381 133 381 133 402 133 c 0,110,111
 412 133 412 133 426 133.5 c 128,-1,112
 440 134 440 134 444 134 c 0,113,114
 456 134 456 134 460 128.5 c 128,-1,115
 464 123 464 123 464 113 c 0,116,117
 464 110 464 110 463.5 103 c 128,-1,118
 463 96 463 96 463 93 c 0,119,120
 463 84 463 84 462.5 61.5 c 128,-1,121
 462 39 462 39 462 23 c 0,122,123
 462 16 462 16 460 11.5 c 128,-1,124
 458 7 458 7 456.5 4.5 c 128,-1,125
 455 2 455 2 449.5 1 c 128,-1,126
 444 0 444 0 441 0 c 128,-1,127
 438 0 438 0 428.5 0.5 c 128,-1,128
 419 1 419 1 414 1 c 0,129,130
 399 1 399 1 331 2 c 128,-1,131
 263 3 263 3 238 3 c 0,132,133
 210 3 210 3 146.5 1 c 128,-1,134
 83 -1 83 -1 80 -1 c 0,135,136
 79 -1 79 -1 77 -1.5 c 128,-1,137
 75 -2 75 -2 74 -2 c 0,138,139
 70 -2 70 -2 68 1 c 128,-1,140
 66 4 66 4 66 6.5 c 128,-1,141
 66 9 66 9 66 15 c 1,142,143
 65 26 65 26 65 52 c 0,144,145
 65 57 65 57 64 70 c 128,-1,146
 63 83 63 83 63 95 c 2,147,-1
 63 232 l 2,0,1
EndSplineSet
Validated: 8388609
Substitution2: "Single Substitution lookup 21 subtable" e
Substitution2: "'aalt' Access All Alternates lookup 0 subtable" e
Position2: "'cpsp' Capital Spacing lookup 0 subtable" dx=5 dy=0 dh=10 dv=0
EndChar

StartChar: Eacute
Encoding: 201 201 29
Width: 503
Flags: MW
HStem: -1 136 3 130<130 262> 238 106<224 234 202 288> 552 147<100 193> 553 152<328 351 311 361> 676 20G<158 202>
VStem: 63 56<132 232 132 232 132 262> 70 48<373 378 378 425>
LayerCount: 2
UndoRedoHistory
Layer: 0
Undoes
EndUndoes
Redoes
EndRedoes
EndUndoRedoHistory
UndoRedoHistory
Layer: 1
Undoes
EndUndoes
Redoes
EndRedoes
EndUndoRedoHistory
Fore
SplineSet
293 826 m 1,0,1
 314 833 314 833 328 833 c 1,2,3
 344 835 344 835 348 835 c 0,4,5
 359 835 359 835 363.5 829 c 128,-1,6
 368 823 368 823 365 807 c 1,7,8
 362 796 362 796 345.5 786 c 128,-1,9
 329 776 329 776 316 773 c 1,10,11
 265 756 265 756 231 740 c 1,12,13
 204 731 204 731 199 731 c 0,14,15
 189 731 189 731 178 738 c 1,16,17
 158 745 158 745 158 760 c 0,18,19
 158 762 158 762 160 770 c 0,20,21
 161 774 161 774 180 783 c 128,-1,22
 199 792 199 792 210 795 c 1,23,24
 216 798 216 798 232.5 803 c 128,-1,25
 249 808 249 808 271 818 c 1,26,-1
 293 826 l 1,0,1
63 232 m 2,27,28
 63 260 63 260 66.5 303.5 c 128,-1,29
 70 347 70 347 70 387.5 c 128,-1,30
 70 428 70 428 67.5 465.5 c 128,-1,31
 65 503 65 503 65 531 c 0,32,33
 65 595 65 595 68 678 c 0,34,35
 68 691 68 691 72.5 695.5 c 128,-1,36
 77 700 77 700 87 700 c 0,37,38
 89 700 89 700 94.5 699.5 c 128,-1,39
 100 699 100 699 102 699 c 0,40,41
 106 699 106 699 130 697.5 c 128,-1,42
 154 696 154 696 180 696 c 0,43,44
 202 696 202 696 256.5 700.5 c 128,-1,45
 311 705 311 705 330 705 c 0,46,47
 353 705 353 705 393.5 703 c 128,-1,48
 434 701 434 701 441 701 c 0,49,50
 454 701 454 701 458 694.5 c 128,-1,51
 462 688 462 688 462 673 c 0,52,53
 462 664 462 664 464 639 c 128,-1,54
 466 614 466 614 466 597 c 0,55,56
 466 577 466 577 463 560 c 1,57,58
 462 545 462 545 449 545 c 0,59,60
 445 545 445 545 436.5 547.5 c 128,-1,61
 428 550 428 550 427 550 c 0,62,63
 409 553 409 553 340 553 c 0,64,65
 327 553 327 553 301.5 554 c 128,-1,66
 276 555 276 555 264 555 c 0,67,68
 245 555 245 555 237 554 c 0,69,70
 199 552 199 552 184 552 c 0,71,72
 170 552 170 552 150 552 c 0,73,-1
 131 553 l 0,74,75
 129 553 129 553 127.5 553 c 128,-1,76
 126 553 126 553 125 552.5 c 128,-1,77
 124 552 124 552 123.5 551.5 c 128,-1,78
 123 551 123 551 122.5 549.5 c 128,-1,79
 122 548 122 548 121.5 547.5 c 128,-1,80
 121 547 121 547 121 545 c 128,-1,81
 121 543 121 543 121 542 c 128,-1,82
 121 541 121 541 121 538 c 128,-1,83
 121 535 121 535 121 533 c 0,84,85
 121 527 121 527 119.5 492 c 128,-1,86
 118 457 118 457 118 437 c 2,87,-1
 118 378 l 2,88,89
 118 357 118 357 119 346 c 1,90,91
 127 345 127 345 146 345 c 1,92,93
 163 344 163 344 216 344 c 0,94,95
 236 344 236 344 274 346 c 128,-1,96
 312 348 312 348 322 348 c 0,97,98
 336 348 336 348 351.5 346.5 c 128,-1,99
 367 345 367 345 371 345 c 0,100,101
 379 345 379 345 381.5 342 c 128,-1,102
 384 339 384 339 384 333 c 0,103,104
 384 331 384 331 383 322 c 128,-1,105
 382 313 382 313 382 302 c 0,106,107
 382 293 382 293 382.5 277.5 c 128,-1,108
 383 262 383 262 383 249 c 0,109,110
 383 233 383 233 374 233 c 0,111,112
 373 233 373 233 366.5 234.5 c 128,-1,113
 360 236 360 236 356 236 c 0,114,115
 354 236 354 236 323.5 237 c 128,-1,116
 293 238 293 238 256 238 c 0,117,118
 228 238 228 238 201 236 c 128,-1,119
 174 234 174 234 158 232 c 128,-1,120
 142 230 142 230 138 230 c 0,121,122
 127 230 127 230 125 231 c 1,123,124
 120 231 120 231 119 232 c 1,125,-1
 119 132 l 1,126,127
 126 132 126 132 130 133 c 1,128,129
 133 133 133 133 142.5 133.5 c 128,-1,130
 152 134 152 134 158 134 c 0,131,132
 167 134 167 134 208.5 134.5 c 128,-1,133
 250 135 250 135 276 135 c 0,134,135
 292 135 292 135 336.5 134 c 128,-1,136
 381 133 381 133 402 133 c 0,137,138
 412 133 412 133 426 133.5 c 128,-1,139
 440 134 440 134 444 134 c 0,140,141
 456 134 456 134 460 128.5 c 128,-1,142
 464 123 464 123 464 113 c 0,143,144
 464 110 464 110 463.5 103 c 128,-1,145
 463 96 463 96 463 93 c 0,146,147
 463 84 463 84 462.5 61.5 c 128,-1,148
 462 39 462 39 462 23 c 0,149,150
 462 16 462 16 460 11.5 c 128,-1,151
 458 7 458 7 456.5 4.5 c 128,-1,152
 455 2 455 2 449.5 1 c 128,-1,153
 444 0 444 0 441 0 c 128,-1,154
 438 0 438 0 428.5 0.5 c 128,-1,155
 419 1 419 1 414 1 c 0,156,157
 399 1 399 1 331 2 c 128,-1,158
 263 3 263 3 238 3 c 0,159,160
 210 3 210 3 146.5 1 c 128,-1,161
 83 -1 83 -1 80 -1 c 0,162,163
 79 -1 79 -1 77 -1.5 c 128,-1,164
 75 -2 75 -2 74 -2 c 0,165,166
 70 -2 70 -2 68 1 c 128,-1,167
 66 4 66 4 66 6.5 c 128,-1,168
 66 9 66 9 66 15 c 1,169,170
 65 26 65 26 65 52 c 0,171,172
 65 57 65 57 64 70 c 128,-1,173
 63 83 63 83 63 95 c 2,174,-1
 63 232 l 2,27,28
EndSplineSet
Validated: 8388609
Substitution2: "Single Substitution lookup 21 subtable" eacute
Substitution2: "'aalt' Access All Alternates lookup 0 subtable" eacute
Position2: "'cpsp' Capital Spacing lookup 0 subtable" dx=5 dy=0 dh=10 dv=0
EndChar

StartChar: Ebreve
Encoding: 276 276 30
Width: 524
Flags: MW
HStem: -1 136 3 130<130 262> 238 106<224 234 202 288> 552 147<100 193> 553 152<328 351 311 361> 676 20G<158 202> 738 54<254 261 252 277>
VStem: 63 56<132 232 132 232 132 262> 70 48<373 378 378 425> 112 58<829 837>
LayerCount: 2
UndoRedoHistory
Layer: 0
Undoes
EndUndoes
Redoes
EndRedoes
EndUndoRedoHistory
UndoRedoHistory
Layer: 1
Undoes
EndUndoes
Redoes
EndRedoes
EndUndoRedoHistory
Fore
SplineSet
410 832 m 0,0,1
 410 791 410 791 389 775 c 0,2,3
 374 764 374 764 350 751 c 0,4,5
 325 738 325 738 254 738 c 1,6,7
 175 742 175 742 154 753 c 0,8,9
 134 763 134 763 127 780 c 0,10,11
 113 813 113 813 112 836 c 0,12,13
 112 838 112 838 116 838.5 c 128,-1,14
 120 839 120 839 141 839 c 128,-1,15
 162 839 162 839 166 837.5 c 128,-1,16
 170 836 170 836 170 829 c 1,17,18
 174 810 174 810 186 802 c 1,19,20
 197 795 197 795 252 792 c 1,21,22
 278 792 278 792 313 801 c 1,23,24
 349 811 349 811 350 831 c 1,25,26
 353 836 353 836 377 838 c 1,27,28
 410 836 410 836 410 832 c 0,0,1
63 232 m 2,29,30
 63 260 63 260 66.5 303.5 c 128,-1,31
 70 347 70 347 70 387.5 c 128,-1,32
 70 428 70 428 67.5 465.5 c 128,-1,33
 65 503 65 503 65 531 c 0,34,35
 65 595 65 595 68 678 c 0,36,37
 68 691 68 691 72.5 695.5 c 128,-1,38
 77 700 77 700 87 700 c 0,39,40
 89 700 89 700 94.5 699.5 c 128,-1,41
 100 699 100 699 102 699 c 0,42,43
 106 699 106 699 130 697.5 c 128,-1,44
 154 696 154 696 180 696 c 0,45,46
 202 696 202 696 256.5 700.5 c 128,-1,47
 311 705 311 705 330 705 c 0,48,49
 353 705 353 705 393.5 703 c 128,-1,50
 434 701 434 701 441 701 c 0,51,52
 454 701 454 701 458 694.5 c 128,-1,53
 462 688 462 688 462 673 c 0,54,55
 462 664 462 664 464 639 c 128,-1,56
 466 614 466 614 466 597 c 0,57,58
 466 577 466 577 463 560 c 1,59,60
 462 545 462 545 449 545 c 0,61,62
 445 545 445 545 436.5 547.5 c 128,-1,63
 428 550 428 550 427 550 c 0,64,65
 409 553 409 553 340 553 c 0,66,67
 327 553 327 553 301.5 554 c 128,-1,68
 276 555 276 555 264 555 c 0,69,70
 245 555 245 555 237 554 c 0,71,72
 199 552 199 552 184 552 c 0,73,74
 170 552 170 552 150 552 c 0,75,-1
 131 553 l 0,76,77
 129 553 129 553 127.5 553 c 128,-1,78
 126 553 126 553 125 552.5 c 128,-1,79
 124 552 124 552 123.5 551.5 c 128,-1,80
 123 551 123 551 122.5 549.5 c 128,-1,81
 122 548 122 548 121.5 547.5 c 128,-1,82
 121 547 121 547 121 545 c 128,-1,83
 121 543 121 543 121 542 c 128,-1,84
 121 541 121 541 121 538 c 128,-1,85
 121 535 121 535 121 533 c 0,86,87
 121 527 121 527 119.5 492 c 128,-1,88
 118 457 118 457 118 437 c 2,89,-1
 118 378 l 2,90,91
 118 357 118 357 119 346 c 1,92,93
 127 345 127 345 146 345 c 1,94,95
 163 344 163 344 216 344 c 0,96,97
 236 344 236 344 274 346 c 128,-1,98
 312 348 312 348 322 348 c 0,99,100
 336 348 336 348 351.5 346.5 c 128,-1,101
 367 345 367 345 371 345 c 0,102,103
 379 345 379 345 381.5 342 c 128,-1,104
 384 339 384 339 384 333 c 0,105,106
 384 331 384 331 383 322 c 128,-1,107
 382 313 382 313 382 302 c 0,108,109
 382 293 382 293 382.5 277.5 c 128,-1,110
 383 262 383 262 383 249 c 0,111,112
 383 233 383 233 374 233 c 0,113,114
 373 233 373 233 366.5 234.5 c 128,-1,115
 360 236 360 236 356 236 c 0,116,117
 354 236 354 236 323.5 237 c 128,-1,118
 293 238 293 238 256 238 c 0,119,120
 228 238 228 238 201 236 c 128,-1,121
 174 234 174 234 158 232 c 128,-1,122
 142 230 142 230 138 230 c 0,123,124
 127 230 127 230 125 231 c 1,125,126
 120 231 120 231 119 232 c 1,127,-1
 119 132 l 1,128,129
 126 132 126 132 130 133 c 1,130,131
 133 133 133 133 142.5 133.5 c 128,-1,132
 152 134 152 134 158 134 c 0,133,134
 167 134 167 134 208.5 134.5 c 128,-1,135
 250 135 250 135 276 135 c 0,136,137
 292 135 292 135 336.5 134 c 128,-1,138
 381 133 381 133 402 133 c 0,139,140
 412 133 412 133 426 133.5 c 128,-1,141
 440 134 440 134 444 134 c 0,142,143
 456 134 456 134 460 128.5 c 128,-1,144
 464 123 464 123 464 113 c 0,145,146
 464 110 464 110 463.5 103 c 128,-1,147
 463 96 463 96 463 93 c 0,148,149
 463 84 463 84 462.5 61.5 c 128,-1,150
 462 39 462 39 462 23 c 0,151,152
 462 16 462 16 460 11.5 c 128,-1,153
 458 7 458 7 456.5 4.5 c 128,-1,154
 455 2 455 2 449.5 1 c 128,-1,155
 444 0 444 0 441 0 c 128,-1,156
 438 0 438 0 428.5 0.5 c 128,-1,157
 419 1 419 1 414 1 c 0,158,159
 399 1 399 1 331 2 c 128,-1,160
 263 3 263 3 238 3 c 0,161,162
 210 3 210 3 146.5 1 c 128,-1,163
 83 -1 83 -1 80 -1 c 0,164,165
 79 -1 79 -1 77 -1.5 c 128,-1,166
 75 -2 75 -2 74 -2 c 0,167,168
 70 -2 70 -2 68 1 c 128,-1,169
 66 4 66 4 66 6.5 c 128,-1,170
 66 9 66 9 66 15 c 1,171,172
 65 26 65 26 65 52 c 0,173,174
 65 57 65 57 64 70 c 128,-1,175
 63 83 63 83 63 95 c 2,176,-1
 63 232 l 2,29,30
EndSplineSet
Validated: 8388609
Substitution2: "Single Substitution lookup 21 subtable" ebreve
Substitution2: "'aalt' Access All Alternates lookup 0 subtable" ebreve
Position2: "'cpsp' Capital Spacing lookup 0 subtable" dx=5 dy=0 dh=10 dv=0
EndChar

StartChar: Ecaron
Encoding: 282 282 31
Width: 524
Flags: MW
HStem: -1 136 3 130<130 262> 238 106<224 234 202 288> 552 147<100 193> 553 152<328 351 311 361> 676 20G<158 202>
VStem: 63 56<132 232 132 232 132 262> 70 48<373 378 378 425>
LayerCount: 2
UndoRedoHistory
Layer: 0
Undoes
EndUndoes
Redoes
EndRedoes
EndUndoRedoHistory
UndoRedoHistory
Layer: 1
Undoes
EndUndoes
Redoes
EndRedoes
EndUndoRedoHistory
Fore
SplineSet
394 791 m 2,0,1
 392 790 392 790 386.5 787.5 c 128,-1,2
 381 785 381 785 377.5 783 c 128,-1,3
 374 781 374 781 365 775.5 c 128,-1,4
 356 770 356 770 346 762 c 1,5,6
 305 739 305 739 294 736 c 1,7,8
 285 732 285 732 276 732 c 1,9,10
 272 731 272 731 265 731 c 0,11,12
 260 731 260 731 255 732 c 128,-1,13
 250 733 250 733 247 734.5 c 128,-1,14
 244 736 244 736 237.5 740 c 128,-1,15
 231 744 231 744 227 746 c 1,16,17
 222 750 222 750 160 789 c 1,18,-1
 156 792 l 2,19,20
 152 795 152 795 149.5 796 c 128,-1,21
 147 797 147 797 142.5 800 c 128,-1,22
 138 803 138 803 135.5 806 c 128,-1,23
 133 809 133 809 130 811.5 c 128,-1,24
 127 814 127 814 126 817 c 128,-1,25
 125 820 125 820 126 823 c 0,26,27
 130 838 130 838 142 838 c 0,28,29
 149 838 149 838 169 831 c 1,30,-1
 196 824 l 1,31,32
 210 819 210 819 231 806 c 1,33,-1
 263 791 l 1,34,35
 295 805 295 805 308 812 c 1,36,37
 331 823 331 823 366 833 c 1,38,39
 386 836 386 836 404 836 c 0,40,41
 415 836 415 836 421.5 831 c 128,-1,42
 428 826 428 826 428 820 c 0,43,44
 428 813 428 813 420 808 c 1,45,-1
 394 791 l 2,0,1
63 232 m 2,46,47
 63 260 63 260 66.5 303.5 c 128,-1,48
 70 347 70 347 70 387.5 c 128,-1,49
 70 428 70 428 67.5 465.5 c 128,-1,50
 65 503 65 503 65 531 c 0,51,52
 65 595 65 595 68 678 c 0,53,54
 68 691 68 691 72.5 695.5 c 128,-1,55
 77 700 77 700 87 700 c 0,56,57
 89 700 89 700 94.5 699.5 c 128,-1,58
 100 699 100 699 102 699 c 0,59,60
 106 699 106 699 130 697.5 c 128,-1,61
 154 696 154 696 180 696 c 0,62,63
 202 696 202 696 256.5 700.5 c 128,-1,64
 311 705 311 705 330 705 c 0,65,66
 353 705 353 705 393.5 703 c 128,-1,67
 434 701 434 701 441 701 c 0,68,69
 454 701 454 701 458 694.5 c 128,-1,70
 462 688 462 688 462 673 c 0,71,72
 462 664 462 664 464 639 c 128,-1,73
 466 614 466 614 466 597 c 0,74,75
 466 577 466 577 463 560 c 1,76,77
 462 545 462 545 449 545 c 0,78,79
 445 545 445 545 436.5 547.5 c 128,-1,80
 428 550 428 550 427 550 c 0,81,82
 409 553 409 553 340 553 c 0,83,84
 327 553 327 553 301.5 554 c 128,-1,85
 276 555 276 555 264 555 c 0,86,87
 245 555 245 555 237 554 c 0,88,89
 199 552 199 552 184 552 c 0,90,91
 170 552 170 552 150 552 c 0,92,-1
 131 553 l 0,93,94
 129 553 129 553 127.5 553 c 128,-1,95
 126 553 126 553 125 552.5 c 128,-1,96
 124 552 124 552 123.5 551.5 c 128,-1,97
 123 551 123 551 122.5 549.5 c 128,-1,98
 122 548 122 548 121.5 547.5 c 128,-1,99
 121 547 121 547 121 545 c 128,-1,100
 121 543 121 543 121 542 c 128,-1,101
 121 541 121 541 121 538 c 128,-1,102
 121 535 121 535 121 533 c 0,103,104
 121 527 121 527 119.5 492 c 128,-1,105
 118 457 118 457 118 437 c 2,106,-1
 118 378 l 2,107,108
 118 357 118 357 119 346 c 1,109,110
 127 345 127 345 146 345 c 1,111,112
 163 344 163 344 216 344 c 0,113,114
 236 344 236 344 274 346 c 128,-1,115
 312 348 312 348 322 348 c 0,116,117
 336 348 336 348 351.5 346.5 c 128,-1,118
 367 345 367 345 371 345 c 0,119,120
 379 345 379 345 381.5 342 c 128,-1,121
 384 339 384 339 384 333 c 0,122,123
 384 331 384 331 383 322 c 128,-1,124
 382 313 382 313 382 302 c 0,125,126
 382 293 382 293 382.5 277.5 c 128,-1,127
 383 262 383 262 383 249 c 0,128,129
 383 233 383 233 374 233 c 0,130,131
 373 233 373 233 366.5 234.5 c 128,-1,132
 360 236 360 236 356 236 c 0,133,134
 354 236 354 236 323.5 237 c 128,-1,135
 293 238 293 238 256 238 c 0,136,137
 228 238 228 238 201 236 c 128,-1,138
 174 234 174 234 158 232 c 128,-1,139
 142 230 142 230 138 230 c 0,140,141
 127 230 127 230 125 231 c 1,142,143
 120 231 120 231 119 232 c 1,144,-1
 119 132 l 1,145,146
 126 132 126 132 130 133 c 1,147,148
 133 133 133 133 142.5 133.5 c 128,-1,149
 152 134 152 134 158 134 c 0,150,151
 167 134 167 134 208.5 134.5 c 128,-1,152
 250 135 250 135 276 135 c 0,153,154
 292 135 292 135 336.5 134 c 128,-1,155
 381 133 381 133 402 133 c 0,156,157
 412 133 412 133 426 133.5 c 128,-1,158
 440 134 440 134 444 134 c 0,159,160
 456 134 456 134 460 128.5 c 128,-1,161
 464 123 464 123 464 113 c 0,162,163
 464 110 464 110 463.5 103 c 128,-1,164
 463 96 463 96 463 93 c 0,165,166
 463 84 463 84 462.5 61.5 c 128,-1,167
 462 39 462 39 462 23 c 0,168,169
 462 16 462 16 460 11.5 c 128,-1,170
 458 7 458 7 456.5 4.5 c 128,-1,171
 455 2 455 2 449.5 1 c 128,-1,172
 444 0 444 0 441 0 c 128,-1,173
 438 0 438 0 428.5 0.5 c 128,-1,174
 419 1 419 1 414 1 c 0,175,176
 399 1 399 1 331 2 c 128,-1,177
 263 3 263 3 238 3 c 0,178,179
 210 3 210 3 146.5 1 c 128,-1,180
 83 -1 83 -1 80 -1 c 0,181,182
 79 -1 79 -1 77 -1.5 c 128,-1,183
 75 -2 75 -2 74 -2 c 0,184,185
 70 -2 70 -2 68 1 c 128,-1,186
 66 4 66 4 66 6.5 c 128,-1,187
 66 9 66 9 66 15 c 1,188,189
 65 26 65 26 65 52 c 0,190,191
 65 57 65 57 64 70 c 128,-1,192
 63 83 63 83 63 95 c 2,193,-1
 63 232 l 2,46,47
EndSplineSet
Validated: 8388609
Substitution2: "Single Substitution lookup 21 subtable" ecaron
Substitution2: "'aalt' Access All Alternates lookup 0 subtable" ecaron
Position2: "'cpsp' Capital Spacing lookup 0 subtable" dx=5 dy=0 dh=10 dv=0
EndChar

StartChar: Ecircumflex
Encoding: 202 202 32
Width: 503
Flags: MW
HStem: -1 136 3 130<130 262> 238 106<224 234 202 288> 552 147<100 193> 553 152<328 351 311 361> 676 20G<158 202>
VStem: 63 56<132 232 132 232 132 262> 70 48<373 378 378 425>
LayerCount: 2
UndoRedoHistory
Layer: 0
Undoes
EndUndoes
Redoes
EndRedoes
EndUndoRedoHistory
UndoRedoHistory
Layer: 1
Undoes
EndUndoes
Redoes
EndRedoes
EndUndoRedoHistory
Fore
SplineSet
150 778 m 2,0,1
 151 779 151 779 157 781.5 c 128,-1,2
 163 784 163 784 167 786 c 128,-1,3
 171 788 171 788 179.5 793.5 c 128,-1,4
 188 799 188 799 198 807 c 1,5,6
 238 829 238 829 250 833 c 1,7,8
 259 837 259 837 268 837 c 1,9,10
 272 838 272 838 279 838 c 0,11,12
 284 838 284 838 289 836.5 c 128,-1,13
 294 835 294 835 296.5 834 c 128,-1,14
 299 833 299 833 306 829 c 128,-1,15
 313 825 313 825 317 823 c 1,16,17
 329 814 329 814 384 780 c 0,18,19
 388 778 l 0,20,21
 392 776 392 776 394.5 773.5 c 128,-1,22
 397 771 397 771 401 768.5 c 128,-1,23
 405 766 405 766 408 763.5 c 128,-1,24
 411 761 411 761 414 758 c 128,-1,25
 417 755 417 755 417.5 752 c 128,-1,26
 418 749 418 749 418 746 c 0,27,28
 414 731 414 731 402 731 c 0,29,30
 395 731 395 731 375 738 c 1,31,-1
 348 745 l 1,32,33
 334 750 334 750 313 763 c 1,34,-1
 281 778 l 1,35,-1
 235 757 l 1,36,37
 214 746 214 746 178 736 c 1,38,39
 158 733 158 733 140 733 c 0,40,41
 129 733 129 733 122.5 738 c 128,-1,42
 116 743 116 743 116 749 c 0,43,44
 116 757 116 757 123 761 c 2,45,-1
 150 778 l 2,0,1
63 232 m 2,46,47
 63 260 63 260 66.5 303.5 c 128,-1,48
 70 347 70 347 70 387.5 c 128,-1,49
 70 428 70 428 67.5 465.5 c 128,-1,50
 65 503 65 503 65 531 c 0,51,52
 65 595 65 595 68 678 c 0,53,54
 68 691 68 691 72.5 695.5 c 128,-1,55
 77 700 77 700 87 700 c 0,56,57
 89 700 89 700 94.5 699.5 c 128,-1,58
 100 699 100 699 102 699 c 0,59,60
 106 699 106 699 130 697.5 c 128,-1,61
 154 696 154 696 180 696 c 0,62,63
 202 696 202 696 256.5 700.5 c 128,-1,64
 311 705 311 705 330 705 c 0,65,66
 353 705 353 705 393.5 703 c 128,-1,67
 434 701 434 701 441 701 c 0,68,69
 454 701 454 701 458 694.5 c 128,-1,70
 462 688 462 688 462 673 c 0,71,72
 462 664 462 664 464 639 c 128,-1,73
 466 614 466 614 466 597 c 0,74,75
 466 577 466 577 463 560 c 1,76,77
 462 545 462 545 449 545 c 0,78,79
 445 545 445 545 436.5 547.5 c 128,-1,80
 428 550 428 550 427 550 c 0,81,82
 409 553 409 553 340 553 c 0,83,84
 327 553 327 553 301.5 554 c 128,-1,85
 276 555 276 555 264 555 c 0,86,87
 245 555 245 555 237 554 c 0,88,89
 199 552 199 552 184 552 c 0,90,91
 170 552 170 552 150 552 c 0,92,-1
 131 553 l 0,93,94
 129 553 129 553 127.5 553 c 128,-1,95
 126 553 126 553 125 552.5 c 128,-1,96
 124 552 124 552 123.5 551.5 c 128,-1,97
 123 551 123 551 122.5 549.5 c 128,-1,98
 122 548 122 548 121.5 547.5 c 128,-1,99
 121 547 121 547 121 545 c 128,-1,100
 121 543 121 543 121 542 c 128,-1,101
 121 541 121 541 121 538 c 128,-1,102
 121 535 121 535 121 533 c 0,103,104
 121 527 121 527 119.5 492 c 128,-1,105
 118 457 118 457 118 437 c 2,106,-1
 118 378 l 2,107,108
 118 357 118 357 119 346 c 1,109,110
 127 345 127 345 146 345 c 1,111,112
 163 344 163 344 216 344 c 0,113,114
 236 344 236 344 274 346 c 128,-1,115
 312 348 312 348 322 348 c 0,116,117
 336 348 336 348 351.5 346.5 c 128,-1,118
 367 345 367 345 371 345 c 0,119,120
 379 345 379 345 381.5 342 c 128,-1,121
 384 339 384 339 384 333 c 0,122,123
 384 331 384 331 383 322 c 128,-1,124
 382 313 382 313 382 302 c 0,125,126
 382 293 382 293 382.5 277.5 c 128,-1,127
 383 262 383 262 383 249 c 0,128,129
 383 233 383 233 374 233 c 0,130,131
 373 233 373 233 366.5 234.5 c 128,-1,132
 360 236 360 236 356 236 c 0,133,134
 354 236 354 236 323.5 237 c 128,-1,135
 293 238 293 238 256 238 c 0,136,137
 228 238 228 238 201 236 c 128,-1,138
 174 234 174 234 158 232 c 128,-1,139
 142 230 142 230 138 230 c 0,140,141
 127 230 127 230 125 231 c 1,142,143
 120 231 120 231 119 232 c 1,144,-1
 119 132 l 1,145,146
 126 132 126 132 130 133 c 1,147,148
 133 133 133 133 142.5 133.5 c 128,-1,149
 152 134 152 134 158 134 c 0,150,151
 167 134 167 134 208.5 134.5 c 128,-1,152
 250 135 250 135 276 135 c 0,153,154
 292 135 292 135 336.5 134 c 128,-1,155
 381 133 381 133 402 133 c 0,156,157
 412 133 412 133 426 133.5 c 128,-1,158
 440 134 440 134 444 134 c 0,159,160
 456 134 456 134 460 128.5 c 128,-1,161
 464 123 464 123 464 113 c 0,162,163
 464 110 464 110 463.5 103 c 128,-1,164
 463 96 463 96 463 93 c 0,165,166
 463 84 463 84 462.5 61.5 c 128,-1,167
 462 39 462 39 462 23 c 0,168,169
 462 16 462 16 460 11.5 c 128,-1,170
 458 7 458 7 456.5 4.5 c 128,-1,171
 455 2 455 2 449.5 1 c 128,-1,172
 444 0 444 0 441 0 c 128,-1,173
 438 0 438 0 428.5 0.5 c 128,-1,174
 419 1 419 1 414 1 c 0,175,176
 399 1 399 1 331 2 c 128,-1,177
 263 3 263 3 238 3 c 0,178,179
 210 3 210 3 146.5 1 c 128,-1,180
 83 -1 83 -1 80 -1 c 0,181,182
 79 -1 79 -1 77 -1.5 c 128,-1,183
 75 -2 75 -2 74 -2 c 0,184,185
 70 -2 70 -2 68 1 c 128,-1,186
 66 4 66 4 66 6.5 c 128,-1,187
 66 9 66 9 66 15 c 1,188,189
 65 26 65 26 65 52 c 0,190,191
 65 57 65 57 64 70 c 128,-1,192
 63 83 63 83 63 95 c 2,193,-1
 63 232 l 2,46,47
EndSplineSet
Validated: 8388609
Substitution2: "Single Substitution lookup 21 subtable" ecircumflex
Substitution2: "'aalt' Access All Alternates lookup 0 subtable" ecircumflex
Position2: "'cpsp' Capital Spacing lookup 0 subtable" dx=5 dy=0 dh=10 dv=0
EndChar

StartChar: Edieresis
Encoding: 203 203 33
Width: 503
Flags: MW
HStem: -1 136 3 130<130 262> 238 106<224 234 202 288> 552 147<100 193> 553 152<328 351 311 361> 676 20G<158 202> 720 113<140 165 133 165> 724 116<384 399>
VStem: 63 56<132 232 132 232 132 262> 70 48<373 378 378 425> 95 120<762 792> 324 117<766 793 765 806>
LayerCount: 2
UndoRedoHistory
Layer: 0
Undoes
EndUndoes
Redoes
EndRedoes
EndUndoRedoHistory
UndoRedoHistory
Layer: 1
Undoes
EndUndoes
Redoes
EndRedoes
EndUndoRedoHistory
Fore
SplineSet
324 778 m 0,0,1
 324 840 324 840 398 840 c 0,2,3
 417 840 417 840 429 821 c 128,-1,4
 441 802 441 802 441 778 c 0,5,6
 441 756 441 756 424.5 740 c 128,-1,7
 408 724 408 724 378 724 c 0,8,9
 349 724 349 724 336.5 740 c 128,-1,10
 324 756 324 756 324 778 c 0,0,1
215 782 m 0,11,12
 215 755 215 755 194.5 737.5 c 128,-1,13
 174 720 174 720 153 720 c 0,14,15
 131 720 131 720 113 736 c 128,-1,16
 95 752 95 752 95 778 c 0,17,18
 95 799 95 799 110.5 816 c 128,-1,19
 126 833 126 833 149 833 c 0,20,21
 175 833 175 833 195 819.5 c 128,-1,22
 215 806 215 806 215 782 c 0,11,12
63 232 m 2,23,24
 63 260 63 260 66.5 303.5 c 128,-1,25
 70 347 70 347 70 387.5 c 128,-1,26
 70 428 70 428 67.5 465.5 c 128,-1,27
 65 503 65 503 65 531 c 0,28,29
 65 595 65 595 68 678 c 0,30,31
 68 691 68 691 72.5 695.5 c 128,-1,32
 77 700 77 700 87 700 c 0,33,34
 89 700 89 700 94.5 699.5 c 128,-1,35
 100 699 100 699 102 699 c 0,36,37
 106 699 106 699 130 697.5 c 128,-1,38
 154 696 154 696 180 696 c 0,39,40
 202 696 202 696 256.5 700.5 c 128,-1,41
 311 705 311 705 330 705 c 0,42,43
 353 705 353 705 393.5 703 c 128,-1,44
 434 701 434 701 441 701 c 0,45,46
 454 701 454 701 458 694.5 c 128,-1,47
 462 688 462 688 462 673 c 0,48,49
 462 664 462 664 464 639 c 128,-1,50
 466 614 466 614 466 597 c 0,51,52
 466 577 466 577 463 560 c 1,53,54
 462 545 462 545 449 545 c 0,55,56
 445 545 445 545 436.5 547.5 c 128,-1,57
 428 550 428 550 427 550 c 0,58,59
 409 553 409 553 340 553 c 0,60,61
 327 553 327 553 301.5 554 c 128,-1,62
 276 555 276 555 264 555 c 0,63,64
 245 555 245 555 237 554 c 0,65,66
 199 552 199 552 184 552 c 0,67,68
 170 552 170 552 150 552 c 0,69,-1
 131 553 l 0,70,71
 129 553 129 553 127.5 553 c 128,-1,72
 126 553 126 553 125 552.5 c 128,-1,73
 124 552 124 552 123.5 551.5 c 128,-1,74
 123 551 123 551 122.5 549.5 c 128,-1,75
 122 548 122 548 121.5 547.5 c 128,-1,76
 121 547 121 547 121 545 c 128,-1,77
 121 543 121 543 121 542 c 128,-1,78
 121 541 121 541 121 538 c 128,-1,79
 121 535 121 535 121 533 c 0,80,81
 121 527 121 527 119.5 492 c 128,-1,82
 118 457 118 457 118 437 c 2,83,-1
 118 378 l 2,84,85
 118 357 118 357 119 346 c 1,86,87
 127 345 127 345 146 345 c 1,88,89
 163 344 163 344 216 344 c 0,90,91
 236 344 236 344 274 346 c 128,-1,92
 312 348 312 348 322 348 c 0,93,94
 336 348 336 348 351.5 346.5 c 128,-1,95
 367 345 367 345 371 345 c 0,96,97
 379 345 379 345 381.5 342 c 128,-1,98
 384 339 384 339 384 333 c 0,99,100
 384 331 384 331 383 322 c 128,-1,101
 382 313 382 313 382 302 c 0,102,103
 382 293 382 293 382.5 277.5 c 128,-1,104
 383 262 383 262 383 249 c 0,105,106
 383 233 383 233 374 233 c 0,107,108
 373 233 373 233 366.5 234.5 c 128,-1,109
 360 236 360 236 356 236 c 0,110,111
 354 236 354 236 323.5 237 c 128,-1,112
 293 238 293 238 256 238 c 0,113,114
 228 238 228 238 201 236 c 128,-1,115
 174 234 174 234 158 232 c 128,-1,116
 142 230 142 230 138 230 c 0,117,118
 127 230 127 230 125 231 c 1,119,120
 120 231 120 231 119 232 c 1,121,-1
 119 132 l 1,122,123
 126 132 126 132 130 133 c 1,124,125
 133 133 133 133 142.5 133.5 c 128,-1,126
 152 134 152 134 158 134 c 0,127,128
 167 134 167 134 208.5 134.5 c 128,-1,129
 250 135 250 135 276 135 c 0,130,131
 292 135 292 135 336.5 134 c 128,-1,132
 381 133 381 133 402 133 c 0,133,134
 412 133 412 133 426 133.5 c 128,-1,135
 440 134 440 134 444 134 c 0,136,137
 456 134 456 134 460 128.5 c 128,-1,138
 464 123 464 123 464 113 c 0,139,140
 464 110 464 110 463.5 103 c 128,-1,141
 463 96 463 96 463 93 c 0,142,143
 463 84 463 84 462.5 61.5 c 128,-1,144
 462 39 462 39 462 23 c 0,145,146
 462 16 462 16 460 11.5 c 128,-1,147
 458 7 458 7 456.5 4.5 c 128,-1,148
 455 2 455 2 449.5 1 c 128,-1,149
 444 0 444 0 441 0 c 128,-1,150
 438 0 438 0 428.5 0.5 c 128,-1,151
 419 1 419 1 414 1 c 0,152,153
 399 1 399 1 331 2 c 128,-1,154
 263 3 263 3 238 3 c 0,155,156
 210 3 210 3 146.5 1 c 128,-1,157
 83 -1 83 -1 80 -1 c 0,158,159
 79 -1 79 -1 77 -1.5 c 128,-1,160
 75 -2 75 -2 74 -2 c 0,161,162
 70 -2 70 -2 68 1 c 128,-1,163
 66 4 66 4 66 6.5 c 128,-1,164
 66 9 66 9 66 15 c 1,165,166
 65 26 65 26 65 52 c 0,167,168
 65 57 65 57 64 70 c 128,-1,169
 63 83 63 83 63 95 c 2,170,-1
 63 232 l 2,23,24
EndSplineSet
Validated: 8388609
Substitution2: "Single Substitution lookup 21 subtable" edieresis
Substitution2: "'aalt' Access All Alternates lookup 0 subtable" edieresis
Position2: "'cpsp' Capital Spacing lookup 0 subtable" dx=5 dy=0 dh=10 dv=0
EndChar

StartChar: Edotaccent
Encoding: 278 278 34
Width: 524
Flags: MW
HStem: -1 136 3 130<130 262> 238 106<224 234 202 288> 552 147<100 193> 553 152<328 351 311 361> 676 20G<158 202> 720 120<252 278 246 279>
VStem: 63 56<132 232 132 232 132 262> 70 48<373 378 378 425> 205 127<764 795>
LayerCount: 2
UndoRedoHistory
Layer: 0
Undoes
EndUndoes
Redoes
EndRedoes
EndUndoRedoHistory
UndoRedoHistory
Layer: 1
Undoes
EndUndoes
Redoes
EndRedoes
EndUndoRedoHistory
Fore
SplineSet
332 786 m 0,0,1
 332 756 332 756 310.5 738 c 128,-1,2
 289 720 289 720 266 720 c 0,3,4
 244 720 244 720 224.5 737 c 128,-1,5
 205 754 205 754 205 781 c 0,6,7
 205 803 205 803 222 821.5 c 128,-1,8
 239 840 239 840 262 840 c 0,9,10
 289 840 289 840 310.5 825.5 c 128,-1,11
 332 811 332 811 332 786 c 0,0,1
63 232 m 2,12,13
 63 260 63 260 66.5 303.5 c 128,-1,14
 70 347 70 347 70 387.5 c 128,-1,15
 70 428 70 428 67.5 465.5 c 128,-1,16
 65 503 65 503 65 531 c 0,17,18
 65 595 65 595 68 678 c 0,19,20
 68 691 68 691 72.5 695.5 c 128,-1,21
 77 700 77 700 87 700 c 0,22,23
 89 700 89 700 94.5 699.5 c 128,-1,24
 100 699 100 699 102 699 c 0,25,26
 106 699 106 699 130 697.5 c 128,-1,27
 154 696 154 696 180 696 c 0,28,29
 202 696 202 696 256.5 700.5 c 128,-1,30
 311 705 311 705 330 705 c 0,31,32
 353 705 353 705 393.5 703 c 128,-1,33
 434 701 434 701 441 701 c 0,34,35
 454 701 454 701 458 694.5 c 128,-1,36
 462 688 462 688 462 673 c 0,37,38
 462 664 462 664 464 639 c 128,-1,39
 466 614 466 614 466 597 c 0,40,41
 466 577 466 577 463 560 c 1,42,43
 462 545 462 545 449 545 c 0,44,45
 445 545 445 545 436.5 547.5 c 128,-1,46
 428 550 428 550 427 550 c 0,47,48
 409 553 409 553 340 553 c 0,49,50
 327 553 327 553 301.5 554 c 128,-1,51
 276 555 276 555 264 555 c 0,52,53
 245 555 245 555 237 554 c 0,54,55
 199 552 199 552 184 552 c 0,56,57
 170 552 170 552 150 552 c 0,58,-1
 131 553 l 0,59,60
 129 553 129 553 127.5 553 c 128,-1,61
 126 553 126 553 125 552.5 c 128,-1,62
 124 552 124 552 123.5 551.5 c 128,-1,63
 123 551 123 551 122.5 549.5 c 128,-1,64
 122 548 122 548 121.5 547.5 c 128,-1,65
 121 547 121 547 121 545 c 128,-1,66
 121 543 121 543 121 542 c 128,-1,67
 121 541 121 541 121 538 c 128,-1,68
 121 535 121 535 121 533 c 0,69,70
 121 527 121 527 119.5 492 c 128,-1,71
 118 457 118 457 118 437 c 2,72,-1
 118 378 l 2,73,74
 118 357 118 357 119 346 c 1,75,76
 127 345 127 345 146 345 c 1,77,78
 163 344 163 344 216 344 c 0,79,80
 236 344 236 344 274 346 c 128,-1,81
 312 348 312 348 322 348 c 0,82,83
 336 348 336 348 351.5 346.5 c 128,-1,84
 367 345 367 345 371 345 c 0,85,86
 379 345 379 345 381.5 342 c 128,-1,87
 384 339 384 339 384 333 c 0,88,89
 384 331 384 331 383 322 c 128,-1,90
 382 313 382 313 382 302 c 0,91,92
 382 293 382 293 382.5 277.5 c 128,-1,93
 383 262 383 262 383 249 c 0,94,95
 383 233 383 233 374 233 c 0,96,97
 373 233 373 233 366.5 234.5 c 128,-1,98
 360 236 360 236 356 236 c 0,99,100
 354 236 354 236 323.5 237 c 128,-1,101
 293 238 293 238 256 238 c 0,102,103
 228 238 228 238 201 236 c 128,-1,104
 174 234 174 234 158 232 c 128,-1,105
 142 230 142 230 138 230 c 0,106,107
 127 230 127 230 125 231 c 1,108,109
 120 231 120 231 119 232 c 1,110,-1
 119 132 l 1,111,112
 126 132 126 132 130 133 c 1,113,114
 133 133 133 133 142.5 133.5 c 128,-1,115
 152 134 152 134 158 134 c 0,116,117
 167 134 167 134 208.5 134.5 c 128,-1,118
 250 135 250 135 276 135 c 0,119,120
 292 135 292 135 336.5 134 c 128,-1,121
 381 133 381 133 402 133 c 0,122,123
 412 133 412 133 426 133.5 c 128,-1,124
 440 134 440 134 444 134 c 0,125,126
 456 134 456 134 460 128.5 c 128,-1,127
 464 123 464 123 464 113 c 0,128,129
 464 110 464 110 463.5 103 c 128,-1,130
 463 96 463 96 463 93 c 0,131,132
 463 84 463 84 462.5 61.5 c 128,-1,133
 462 39 462 39 462 23 c 0,134,135
 462 16 462 16 460 11.5 c 128,-1,136
 458 7 458 7 456.5 4.5 c 128,-1,137
 455 2 455 2 449.5 1 c 128,-1,138
 444 0 444 0 441 0 c 128,-1,139
 438 0 438 0 428.5 0.5 c 128,-1,140
 419 1 419 1 414 1 c 0,141,142
 399 1 399 1 331 2 c 128,-1,143
 263 3 263 3 238 3 c 0,144,145
 210 3 210 3 146.5 1 c 128,-1,146
 83 -1 83 -1 80 -1 c 0,147,148
 79 -1 79 -1 77 -1.5 c 128,-1,149
 75 -2 75 -2 74 -2 c 0,150,151
 70 -2 70 -2 68 1 c 128,-1,152
 66 4 66 4 66 6.5 c 128,-1,153
 66 9 66 9 66 15 c 1,154,155
 65 26 65 26 65 52 c 0,156,157
 65 57 65 57 64 70 c 128,-1,158
 63 83 63 83 63 95 c 2,159,-1
 63 232 l 2,12,13
EndSplineSet
Validated: 8388609
Substitution2: "Single Substitution lookup 21 subtable" edotaccent
Substitution2: "'aalt' Access All Alternates lookup 0 subtable" edotaccent
Position2: "'cpsp' Capital Spacing lookup 0 subtable" dx=5 dy=0 dh=10 dv=0
EndChar

StartChar: Edotbelow
Encoding: 7864 7864 35
Width: 524
Flags: MW
HStem: -142 120<242 269 236 269> -1 136 3 130<130 262> 238 106<224 234 202 288> 552 147<100 193> 553 152<328 351 311 361> 676 20G<158 202>
VStem: 63 56<132 232 132 232 132 262> 70 48<373 378 378 425> 195 127<-98 -66>
LayerCount: 2
UndoRedoHistory
Layer: 0
Undoes
EndUndoes
Redoes
EndRedoes
EndUndoRedoHistory
UndoRedoHistory
Layer: 1
Undoes
EndUndoes
Redoes
EndRedoes
EndUndoRedoHistory
Fore
SplineSet
63 232 m 2,0,1
 63 260 63 260 66.5 303.5 c 128,-1,2
 70 347 70 347 70 387.5 c 128,-1,3
 70 428 70 428 67.5 465.5 c 128,-1,4
 65 503 65 503 65 531 c 0,5,6
 65 595 65 595 68 678 c 0,7,8
 68 691 68 691 72.5 695.5 c 128,-1,9
 77 700 77 700 87 700 c 0,10,11
 89 700 89 700 94.5 699.5 c 128,-1,12
 100 699 100 699 102 699 c 0,13,14
 106 699 106 699 130 697.5 c 128,-1,15
 154 696 154 696 180 696 c 0,16,17
 202 696 202 696 256.5 700.5 c 128,-1,18
 311 705 311 705 330 705 c 0,19,20
 353 705 353 705 393.5 703 c 128,-1,21
 434 701 434 701 441 701 c 0,22,23
 454 701 454 701 458 694.5 c 128,-1,24
 462 688 462 688 462 673 c 0,25,26
 462 664 462 664 464 639 c 128,-1,27
 466 614 466 614 466 597 c 0,28,29
 466 577 466 577 463 560 c 1,30,31
 462 545 462 545 449 545 c 0,32,33
 445 545 445 545 436.5 547.5 c 128,-1,34
 428 550 428 550 427 550 c 0,35,36
 409 553 409 553 340 553 c 0,37,38
 327 553 327 553 301.5 554 c 128,-1,39
 276 555 276 555 264 555 c 0,40,41
 245 555 245 555 237 554 c 0,42,43
 199 552 199 552 184 552 c 0,44,45
 170 552 170 552 150 552 c 0,46,-1
 131 553 l 0,47,48
 129 553 129 553 127.5 553 c 128,-1,49
 126 553 126 553 125 552.5 c 128,-1,50
 124 552 124 552 123.5 551.5 c 128,-1,51
 123 551 123 551 122.5 549.5 c 128,-1,52
 122 548 122 548 121.5 547.5 c 128,-1,53
 121 547 121 547 121 545 c 128,-1,54
 121 543 121 543 121 542 c 128,-1,55
 121 541 121 541 121 538 c 128,-1,56
 121 535 121 535 121 533 c 0,57,58
 121 527 121 527 119.5 492 c 128,-1,59
 118 457 118 457 118 437 c 2,60,-1
 118 378 l 2,61,62
 118 357 118 357 119 346 c 1,63,64
 127 345 127 345 146 345 c 1,65,66
 163 344 163 344 216 344 c 0,67,68
 236 344 236 344 274 346 c 128,-1,69
 312 348 312 348 322 348 c 0,70,71
 336 348 336 348 351.5 346.5 c 128,-1,72
 367 345 367 345 371 345 c 0,73,74
 379 345 379 345 381.5 342 c 128,-1,75
 384 339 384 339 384 333 c 0,76,77
 384 331 384 331 383 322 c 128,-1,78
 382 313 382 313 382 302 c 0,79,80
 382 293 382 293 382.5 277.5 c 128,-1,81
 383 262 383 262 383 249 c 0,82,83
 383 233 383 233 374 233 c 0,84,85
 373 233 373 233 366.5 234.5 c 128,-1,86
 360 236 360 236 356 236 c 0,87,88
 354 236 354 236 323.5 237 c 128,-1,89
 293 238 293 238 256 238 c 0,90,91
 228 238 228 238 201 236 c 128,-1,92
 174 234 174 234 158 232 c 128,-1,93
 142 230 142 230 138 230 c 0,94,95
 127 230 127 230 125 231 c 1,96,97
 120 231 120 231 119 232 c 1,98,-1
 119 132 l 1,99,100
 126 132 126 132 130 133 c 1,101,102
 133 133 133 133 142.5 133.5 c 128,-1,103
 152 134 152 134 158 134 c 0,104,105
 167 134 167 134 208.5 134.5 c 128,-1,106
 250 135 250 135 276 135 c 0,107,108
 292 135 292 135 336.5 134 c 128,-1,109
 381 133 381 133 402 133 c 0,110,111
 412 133 412 133 426 133.5 c 128,-1,112
 440 134 440 134 444 134 c 0,113,114
 456 134 456 134 460 128.5 c 128,-1,115
 464 123 464 123 464 113 c 0,116,117
 464 110 464 110 463.5 103 c 128,-1,118
 463 96 463 96 463 93 c 0,119,120
 463 84 463 84 462.5 61.5 c 128,-1,121
 462 39 462 39 462 23 c 0,122,123
 462 16 462 16 460 11.5 c 128,-1,124
 458 7 458 7 456.5 4.5 c 128,-1,125
 455 2 455 2 449.5 1 c 128,-1,126
 444 0 444 0 441 0 c 128,-1,127
 438 0 438 0 428.5 0.5 c 128,-1,128
 419 1 419 1 414 1 c 0,129,130
 399 1 399 1 331 2 c 128,-1,131
 263 3 263 3 238 3 c 0,132,133
 210 3 210 3 146.5 1 c 128,-1,134
 83 -1 83 -1 80 -1 c 0,135,136
 79 -1 79 -1 77 -1.5 c 128,-1,137
 75 -2 75 -2 74 -2 c 0,138,139
 70 -2 70 -2 68 1 c 128,-1,140
 66 4 66 4 66 6.5 c 128,-1,141
 66 9 66 9 66 15 c 1,142,143
 65 26 65 26 65 52 c 0,144,145
 65 57 65 57 64 70 c 128,-1,146
 63 83 63 83 63 95 c 2,147,-1
 63 232 l 2,0,1
322 -76 m 0,148,149
 322 -106 322 -106 300.5 -124 c 128,-1,150
 279 -142 279 -142 256 -142 c 0,151,152
 234 -142 234 -142 214.5 -124.5 c 128,-1,153
 195 -107 195 -107 195 -81 c 0,154,155
 195 -59 195 -59 212 -40.5 c 128,-1,156
 229 -22 229 -22 252 -22 c 0,157,158
 279 -22 279 -22 300.5 -36.5 c 128,-1,159
 322 -51 322 -51 322 -76 c 0,148,149
EndSplineSet
Validated: 8388609
Substitution2: "Single Substitution lookup 21 subtable" edotbelow
Substitution2: "'aalt' Access All Alternates lookup 0 subtable" edotbelow
Position2: "'cpsp' Capital Spacing lookup 0 subtable" dx=5 dy=0 dh=10 dv=0
EndChar

StartChar: Egrave
Encoding: 200 200 36
Width: 503
Flags: MW
HStem: -1 136 3 130<130 262> 238 106<224 234 202 288> 552 147<100 193> 553 152<328 351 311 361> 676 20G<158 202> 751 85
VStem: 63 56<132 232 132 232 132 262> 70 48<373 378 378 425>
LayerCount: 2
UndoRedoHistory
Layer: 0
Undoes
EndUndoes
Redoes
EndRedoes
EndUndoRedoHistory
UndoRedoHistory
Layer: 1
Undoes
EndUndoes
Redoes
EndRedoes
EndUndoRedoHistory
Fore
SplineSet
267 759 m 1,0,1
 245 769 245 769 227.5 773 c 128,-1,2
 210 777 210 777 205 780 c 1,3,4
 193 783 193 783 175 790.5 c 128,-1,5
 157 798 157 798 155 803 c 1,6,7
 152 809 152 809 152 814 c 0,8,9
 152 828 152 828 171 836 c 1,10,11
 186 844 186 844 193 844 c 0,12,13
 196 844 196 844 224 836 c 1,14,15
 270 816 270 816 310 807 c 0,16,17
 321 802 l 0,18,19
 332 798 332 798 338 795.5 c 128,-1,20
 344 793 344 793 351 787 c 128,-1,21
 358 781 358 781 360 774 c 0,22,23
 362 764 362 764 362 761 c 0,24,25
 362 749 362 749 351.5 746.5 c 128,-1,26
 341 744 341 744 324 747 c 1,27,28
 322 747 322 747 320 747 c 0,29,30
 309 747 309 747 289 751 c 1,31,-1
 267 759 l 1,0,1
63 232 m 2,32,33
 63 260 63 260 66.5 303.5 c 128,-1,34
 70 347 70 347 70 387.5 c 128,-1,35
 70 428 70 428 67.5 465.5 c 128,-1,36
 65 503 65 503 65 531 c 0,37,38
 65 595 65 595 68 678 c 0,39,40
 68 691 68 691 72.5 695.5 c 128,-1,41
 77 700 77 700 87 700 c 0,42,43
 89 700 89 700 94.5 699.5 c 128,-1,44
 100 699 100 699 102 699 c 0,45,46
 106 699 106 699 130 697.5 c 128,-1,47
 154 696 154 696 180 696 c 0,48,49
 202 696 202 696 256.5 700.5 c 128,-1,50
 311 705 311 705 330 705 c 0,51,52
 353 705 353 705 393.5 703 c 128,-1,53
 434 701 434 701 441 701 c 0,54,55
 454 701 454 701 458 694.5 c 128,-1,56
 462 688 462 688 462 673 c 0,57,58
 462 664 462 664 464 639 c 128,-1,59
 466 614 466 614 466 597 c 0,60,61
 466 577 466 577 463 560 c 1,62,63
 462 545 462 545 449 545 c 0,64,65
 445 545 445 545 436.5 547.5 c 128,-1,66
 428 550 428 550 427 550 c 0,67,68
 409 553 409 553 340 553 c 0,69,70
 327 553 327 553 301.5 554 c 128,-1,71
 276 555 276 555 264 555 c 0,72,73
 245 555 245 555 237 554 c 0,74,75
 199 552 199 552 184 552 c 0,76,77
 170 552 170 552 150 552 c 0,78,-1
 131 553 l 0,79,80
 129 553 129 553 127.5 553 c 128,-1,81
 126 553 126 553 125 552.5 c 128,-1,82
 124 552 124 552 123.5 551.5 c 128,-1,83
 123 551 123 551 122.5 549.5 c 128,-1,84
 122 548 122 548 121.5 547.5 c 128,-1,85
 121 547 121 547 121 545 c 128,-1,86
 121 543 121 543 121 542 c 128,-1,87
 121 541 121 541 121 538 c 128,-1,88
 121 535 121 535 121 533 c 0,89,90
 121 527 121 527 119.5 492 c 128,-1,91
 118 457 118 457 118 437 c 2,92,-1
 118 378 l 2,93,94
 118 357 118 357 119 346 c 1,95,96
 127 345 127 345 146 345 c 1,97,98
 163 344 163 344 216 344 c 0,99,100
 236 344 236 344 274 346 c 128,-1,101
 312 348 312 348 322 348 c 0,102,103
 336 348 336 348 351.5 346.5 c 128,-1,104
 367 345 367 345 371 345 c 0,105,106
 379 345 379 345 381.5 342 c 128,-1,107
 384 339 384 339 384 333 c 0,108,109
 384 331 384 331 383 322 c 128,-1,110
 382 313 382 313 382 302 c 0,111,112
 382 293 382 293 382.5 277.5 c 128,-1,113
 383 262 383 262 383 249 c 0,114,115
 383 233 383 233 374 233 c 0,116,117
 373 233 373 233 366.5 234.5 c 128,-1,118
 360 236 360 236 356 236 c 0,119,120
 354 236 354 236 323.5 237 c 128,-1,121
 293 238 293 238 256 238 c 0,122,123
 228 238 228 238 201 236 c 128,-1,124
 174 234 174 234 158 232 c 128,-1,125
 142 230 142 230 138 230 c 0,126,127
 127 230 127 230 125 231 c 1,128,129
 120 231 120 231 119 232 c 1,130,-1
 119 132 l 1,131,132
 126 132 126 132 130 133 c 1,133,134
 133 133 133 133 142.5 133.5 c 128,-1,135
 152 134 152 134 158 134 c 0,136,137
 167 134 167 134 208.5 134.5 c 128,-1,138
 250 135 250 135 276 135 c 0,139,140
 292 135 292 135 336.5 134 c 128,-1,141
 381 133 381 133 402 133 c 0,142,143
 412 133 412 133 426 133.5 c 128,-1,144
 440 134 440 134 444 134 c 0,145,146
 456 134 456 134 460 128.5 c 128,-1,147
 464 123 464 123 464 113 c 0,148,149
 464 110 464 110 463.5 103 c 128,-1,150
 463 96 463 96 463 93 c 0,151,152
 463 84 463 84 462.5 61.5 c 128,-1,153
 462 39 462 39 462 23 c 0,154,155
 462 16 462 16 460 11.5 c 128,-1,156
 458 7 458 7 456.5 4.5 c 128,-1,157
 455 2 455 2 449.5 1 c 128,-1,158
 444 0 444 0 441 0 c 128,-1,159
 438 0 438 0 428.5 0.5 c 128,-1,160
 419 1 419 1 414 1 c 0,161,162
 399 1 399 1 331 2 c 128,-1,163
 263 3 263 3 238 3 c 0,164,165
 210 3 210 3 146.5 1 c 128,-1,166
 83 -1 83 -1 80 -1 c 0,167,168
 79 -1 79 -1 77 -1.5 c 128,-1,169
 75 -2 75 -2 74 -2 c 0,170,171
 70 -2 70 -2 68 1 c 128,-1,172
 66 4 66 4 66 6.5 c 128,-1,173
 66 9 66 9 66 15 c 1,174,175
 65 26 65 26 65 52 c 0,176,177
 65 57 65 57 64 70 c 128,-1,178
 63 83 63 83 63 95 c 2,179,-1
 63 232 l 2,32,33
EndSplineSet
Validated: 8388609
Substitution2: "Single Substitution lookup 21 subtable" egrave
Substitution2: "'aalt' Access All Alternates lookup 0 subtable" egrave
Position2: "'cpsp' Capital Spacing lookup 0 subtable" dx=5 dy=0 dh=10 dv=0
EndChar

StartChar: Emacron
Encoding: 274 274 37
Width: 524
Flags: MW
HStem: -1 136 3 130<130 262> 238 106<224 234 202 288> 552 147<100 193> 553 152<328 351 311 361> 676 20G<158 202> 775 56<175 179 179 311>
VStem: 63 56<132 232 132 232 132 262> 70 48<373 378 378 425>
LayerCount: 2
UndoRedoHistory
Layer: 0
Undoes
EndUndoes
Redoes
EndRedoes
EndUndoRedoHistory
UndoRedoHistory
Layer: 1
Undoes
EndUndoes
Redoes
EndRedoes
EndUndoRedoHistory
Fore
SplineSet
399 831 m 2,0,1
 400 831 400 831 402.5 831.5 c 128,-1,2
 405 832 405 832 406 832 c 0,3,4
 411 832 411 832 413.5 829.5 c 128,-1,5
 416 827 416 827 416.5 824 c 128,-1,6
 417 821 417 821 417 815 c 2,7,-1
 417 785 l 2,8,9
 417 778 417 778 413 775 c 128,-1,10
 409 772 409 772 395 772 c 0,11,12
 387 772 387 772 355.5 773.5 c 128,-1,13
 324 775 324 775 311 775 c 2,14,-1
 179 775 l 2,15,16
 133 775 133 775 128 772 c 1,17,18
 120 772 120 772 120 785 c 2,19,-1
 120 812 l 2,20,21
 120 822 120 822 122.5 826.5 c 128,-1,22
 125 831 125 831 131 831 c 2,23,-1
 399 831 l 2,0,1
63 232 m 2,24,25
 63 260 63 260 66.5 303.5 c 128,-1,26
 70 347 70 347 70 387.5 c 128,-1,27
 70 428 70 428 67.5 465.5 c 128,-1,28
 65 503 65 503 65 531 c 0,29,30
 65 595 65 595 68 678 c 0,31,32
 68 691 68 691 72.5 695.5 c 128,-1,33
 77 700 77 700 87 700 c 0,34,35
 89 700 89 700 94.5 699.5 c 128,-1,36
 100 699 100 699 102 699 c 0,37,38
 106 699 106 699 130 697.5 c 128,-1,39
 154 696 154 696 180 696 c 0,40,41
 202 696 202 696 256.5 700.5 c 128,-1,42
 311 705 311 705 330 705 c 0,43,44
 353 705 353 705 393.5 703 c 128,-1,45
 434 701 434 701 441 701 c 0,46,47
 454 701 454 701 458 694.5 c 128,-1,48
 462 688 462 688 462 673 c 0,49,50
 462 664 462 664 464 639 c 128,-1,51
 466 614 466 614 466 597 c 0,52,53
 466 577 466 577 463 560 c 1,54,55
 462 545 462 545 449 545 c 0,56,57
 445 545 445 545 436.5 547.5 c 128,-1,58
 428 550 428 550 427 550 c 0,59,60
 409 553 409 553 340 553 c 0,61,62
 327 553 327 553 301.5 554 c 128,-1,63
 276 555 276 555 264 555 c 0,64,65
 245 555 245 555 237 554 c 0,66,67
 199 552 199 552 184 552 c 0,68,69
 170 552 170 552 150 552 c 0,70,-1
 131 553 l 0,71,72
 129 553 129 553 127.5 553 c 128,-1,73
 126 553 126 553 125 552.5 c 128,-1,74
 124 552 124 552 123.5 551.5 c 128,-1,75
 123 551 123 551 122.5 549.5 c 128,-1,76
 122 548 122 548 121.5 547.5 c 128,-1,77
 121 547 121 547 121 545 c 128,-1,78
 121 543 121 543 121 542 c 128,-1,79
 121 541 121 541 121 538 c 128,-1,80
 121 535 121 535 121 533 c 0,81,82
 121 527 121 527 119.5 492 c 128,-1,83
 118 457 118 457 118 437 c 2,84,-1
 118 378 l 2,85,86
 118 357 118 357 119 346 c 1,87,88
 127 345 127 345 146 345 c 1,89,90
 163 344 163 344 216 344 c 0,91,92
 236 344 236 344 274 346 c 128,-1,93
 312 348 312 348 322 348 c 0,94,95
 336 348 336 348 351.5 346.5 c 128,-1,96
 367 345 367 345 371 345 c 0,97,98
 379 345 379 345 381.5 342 c 128,-1,99
 384 339 384 339 384 333 c 0,100,101
 384 331 384 331 383 322 c 128,-1,102
 382 313 382 313 382 302 c 0,103,104
 382 293 382 293 382.5 277.5 c 128,-1,105
 383 262 383 262 383 249 c 0,106,107
 383 233 383 233 374 233 c 0,108,109
 373 233 373 233 366.5 234.5 c 128,-1,110
 360 236 360 236 356 236 c 0,111,112
 354 236 354 236 323.5 237 c 128,-1,113
 293 238 293 238 256 238 c 0,114,115
 228 238 228 238 201 236 c 128,-1,116
 174 234 174 234 158 232 c 128,-1,117
 142 230 142 230 138 230 c 0,118,119
 127 230 127 230 125 231 c 1,120,121
 120 231 120 231 119 232 c 1,122,-1
 119 132 l 1,123,124
 126 132 126 132 130 133 c 1,125,126
 133 133 133 133 142.5 133.5 c 128,-1,127
 152 134 152 134 158 134 c 0,128,129
 167 134 167 134 208.5 134.5 c 128,-1,130
 250 135 250 135 276 135 c 0,131,132
 292 135 292 135 336.5 134 c 128,-1,133
 381 133 381 133 402 133 c 0,134,135
 412 133 412 133 426 133.5 c 128,-1,136
 440 134 440 134 444 134 c 0,137,138
 456 134 456 134 460 128.5 c 128,-1,139
 464 123 464 123 464 113 c 0,140,141
 464 110 464 110 463.5 103 c 128,-1,142
 463 96 463 96 463 93 c 0,143,144
 463 84 463 84 462.5 61.5 c 128,-1,145
 462 39 462 39 462 23 c 0,146,147
 462 16 462 16 460 11.5 c 128,-1,148
 458 7 458 7 456.5 4.5 c 128,-1,149
 455 2 455 2 449.5 1 c 128,-1,150
 444 0 444 0 441 0 c 128,-1,151
 438 0 438 0 428.5 0.5 c 128,-1,152
 419 1 419 1 414 1 c 0,153,154
 399 1 399 1 331 2 c 128,-1,155
 263 3 263 3 238 3 c 0,156,157
 210 3 210 3 146.5 1 c 128,-1,158
 83 -1 83 -1 80 -1 c 0,159,160
 79 -1 79 -1 77 -1.5 c 128,-1,161
 75 -2 75 -2 74 -2 c 0,162,163
 70 -2 70 -2 68 1 c 128,-1,164
 66 4 66 4 66 6.5 c 128,-1,165
 66 9 66 9 66 15 c 1,166,167
 65 26 65 26 65 52 c 0,168,169
 65 57 65 57 64 70 c 128,-1,170
 63 83 63 83 63 95 c 2,171,-1
 63 232 l 2,24,25
EndSplineSet
Validated: 8388609
Substitution2: "Single Substitution lookup 21 subtable" emacron
Substitution2: "'aalt' Access All Alternates lookup 0 subtable" emacron
Position2: "'cpsp' Capital Spacing lookup 0 subtable" dx=5 dy=0 dh=10 dv=0
EndChar

StartChar: Eogonek
Encoding: 280 280 38
Width: 524
Flags: MW
HStem: -171 74 -1 21G<79 85> 1 132<398 411> 238 106<224 234 202 288> 552 147<100 193> 553 152<328 351 311 361> 676 20G<158 202>
VStem: 63 56<132 132 132 232> 70 48<373 378 378 425> 169 71<-91 -53>
LayerCount: 2
UndoRedoHistory
Layer: 0
Undoes
EndUndoes
Redoes
EndRedoes
EndUndoRedoHistory
UndoRedoHistory
Layer: 1
Undoes
EndUndoes
Redoes
EndRedoes
EndUndoRedoHistory
Fore
SplineSet
119 132 m 1,0,1
 126 132 126 132 130 133 c 1,2,3
 133 133 133 133 142.5 133.5 c 128,-1,4
 152 134 152 134 158 134 c 0,5,6
 167 134 167 134 208.5 134.5 c 128,-1,7
 250 135 250 135 276 135 c 0,8,9
 292 135 292 135 336.5 134 c 128,-1,10
 381 133 381 133 402 133 c 0,11,12
 412 133 412 133 426 133.5 c 128,-1,13
 440 134 440 134 444 134 c 0,14,15
 456 134 456 134 460 128.5 c 128,-1,16
 464 123 464 123 464 113 c 0,17,18
 464 110 464 110 463.5 103 c 128,-1,19
 463 96 463 96 463 93 c 0,20,21
 463 84 463 84 462.5 61.5 c 128,-1,22
 462 39 462 39 462 23 c 0,23,24
 462 16 462 16 460 11.5 c 128,-1,25
 458 7 458 7 456.5 4.5 c 128,-1,26
 455 2 455 2 449.5 1 c 128,-1,27
 444 0 444 0 441 0 c 128,-1,28
 438 0 438 0 428.5 0.5 c 128,-1,29
 419 1 419 1 414 1 c 0,30,31
 401 1 401 1 337 2 c 128,-1,32
 273 3 273 3 246 3 c 1,33,34
 246 -2 246 -2 244 -16 c 128,-1,35
 242 -30 242 -30 241 -38 c 0,36,37
 240 -44 240 -44 240 -56 c 0,38,39
 240 -96 240 -96 260 -97 c 0,40,41
 265 -97 265 -97 270 -97 c 0,42,43
 284 -97 284 -97 296 -95 c 0,44,45
 312 -92 312 -92 319 -87.5 c 128,-1,46
 326 -83 326 -83 331 -78.5 c 128,-1,47
 336 -74 336 -74 339 -74 c 0,48,49
 345 -74 345 -74 352 -83 c 128,-1,50
 359 -92 359 -92 359 -99 c 0,51,52
 359 -119 359 -119 319 -144 c 128,-1,53
 279 -169 279 -169 251 -171 c 1,54,55
 249 -171 249 -171 247 -171 c 0,56,57
 210 -171 210 -171 191 -155 c 0,58,59
 171 -138 171 -138 169 -91 c 1,60,61
 169 -74 169 -74 178 -45 c 0,62,63
 185 -24 185 -24 192 -8 c 1,64,-1
 197 2 l 1,65,66
 177 2 177 2 149 1 c 128,-1,67
 121 0 121 0 102.5 -0.5 c 128,-1,68
 84 -1 84 -1 80 -1 c 0,69,70
 79 -1 79 -1 77 -1.5 c 128,-1,71
 75 -2 75 -2 74 -2 c 0,72,73
 70 -2 70 -2 68 1 c 128,-1,74
 66 4 66 4 66 6.5 c 128,-1,75
 66 9 66 9 66 15 c 1,76,77
 65 26 65 26 65 52 c 0,78,79
 65 57 65 57 64 70 c 128,-1,80
 63 83 63 83 63 95 c 2,81,-1
 63 232 l 2,82,83
 63 260 63 260 66.5 303.5 c 128,-1,84
 70 347 70 347 70 387.5 c 128,-1,85
 70 428 70 428 67.5 465.5 c 128,-1,86
 65 503 65 503 65 531 c 0,87,88
 65 595 65 595 68 678 c 0,89,90
 68 691 68 691 72.5 695.5 c 128,-1,91
 77 700 77 700 87 700 c 0,92,93
 89 700 89 700 94.5 699.5 c 128,-1,94
 100 699 100 699 102 699 c 0,95,96
 106 699 106 699 130 697.5 c 128,-1,97
 154 696 154 696 180 696 c 0,98,99
 202 696 202 696 256.5 700.5 c 128,-1,100
 311 705 311 705 330 705 c 0,101,102
 353 705 353 705 393.5 703 c 128,-1,103
 434 701 434 701 441 701 c 0,104,105
 454 701 454 701 458 694.5 c 128,-1,106
 462 688 462 688 462 673 c 0,107,108
 462 664 462 664 464 639 c 128,-1,109
 466 614 466 614 466 597 c 0,110,111
 466 577 466 577 463 560 c 1,112,113
 462 545 462 545 449 545 c 0,114,115
 445 545 445 545 436.5 547.5 c 128,-1,116
 428 550 428 550 427 550 c 0,117,118
 409 553 409 553 340 553 c 0,119,120
 327 553 327 553 301.5 554 c 128,-1,121
 276 555 276 555 264 555 c 0,122,123
 245 555 245 555 237 554 c 0,124,125
 199 552 199 552 184 552 c 0,126,127
 170 552 170 552 150 552 c 0,128,-1
 131 553 l 0,129,130
 129 553 129 553 127.5 553 c 128,-1,131
 126 553 126 553 125 552.5 c 128,-1,132
 124 552 124 552 123.5 551.5 c 128,-1,133
 123 551 123 551 122.5 549.5 c 128,-1,134
 122 548 122 548 121.5 547.5 c 128,-1,135
 121 547 121 547 121 545 c 128,-1,136
 121 543 121 543 121 542 c 128,-1,137
 121 541 121 541 121 538 c 128,-1,138
 121 535 121 535 121 533 c 0,139,140
 121 527 121 527 119.5 492 c 128,-1,141
 118 457 118 457 118 437 c 2,142,-1
 118 378 l 2,143,144
 118 357 118 357 119 346 c 1,145,146
 127 345 127 345 146 345 c 1,147,148
 163 344 163 344 216 344 c 0,149,150
 236 344 236 344 274 346 c 128,-1,151
 312 348 312 348 322 348 c 0,152,153
 336 348 336 348 351.5 346.5 c 128,-1,154
 367 345 367 345 371 345 c 0,155,156
 379 345 379 345 381.5 342 c 128,-1,157
 384 339 384 339 384 333 c 0,158,159
 384 331 384 331 383 322 c 128,-1,160
 382 313 382 313 382 302 c 0,161,162
 382 293 382 293 382.5 277.5 c 128,-1,163
 383 262 383 262 383 249 c 0,164,165
 383 233 383 233 374 233 c 0,166,167
 373 233 373 233 366.5 234.5 c 128,-1,168
 360 236 360 236 356 236 c 0,169,170
 354 236 354 236 323.5 237 c 128,-1,171
 293 238 293 238 256 238 c 0,172,173
 228 238 228 238 201 236 c 128,-1,174
 174 234 174 234 158 232 c 128,-1,175
 142 230 142 230 138 230 c 0,176,177
 127 230 127 230 125 231 c 1,178,179
 120 231 120 231 119 232 c 1,180,-1
 119 132 l 1,0,1
EndSplineSet
Validated: 8388609
Substitution2: "Single Substitution lookup 21 subtable" eogonek
Substitution2: "'aalt' Access All Alternates lookup 0 subtable" eogonek
Position2: "'cpsp' Capital Spacing lookup 0 subtable" dx=5 dy=0 dh=10 dv=0
EndChar

StartChar: Etilde
Encoding: 7868 7868 39
Width: 524
Flags: MW
HStem: -1 136 3 130<130 262> 238 106<224 234 202 288> 552 147<100 193> 553 152<328 351 311 361> 676 20G<158 202> 764 50<161 175 161 181> 783 48<356 364 326 368>
VStem: 63 56<132 232 132 232 132 262> 70 48<373 378 378 425>
LayerCount: 2
UndoRedoHistory
Layer: 0
Undoes
EndUndoes
Redoes
EndRedoes
EndUndoRedoHistory
UndoRedoHistory
Layer: 1
Undoes
EndUndoes
Redoes
EndRedoes
EndUndoRedoHistory
Fore
SplineSet
445 787 m 2,0,1
 445 771 445 771 422 771 c 0,2,3
 413 771 413 771 391 777 c 128,-1,4
 369 783 369 783 356 783 c 0,5,6
 329 783 329 783 295 778 c 128,-1,7
 261 773 261 773 251 772 c 0,8,9
 238 771 238 771 222 769 c 128,-1,10
 206 767 206 767 192 765.5 c 128,-1,11
 178 764 178 764 161 764 c 0,12,13
 95 764 95 764 95 787 c 2,14,-1
 95 800 l 2,15,16
 95 817 95 817 97 823 c 0,17,18
 98 828 98 828 104 828 c 0,19,20
 107 828 107 828 114.5 826 c 128,-1,21
 122 824 122 824 135 820 c 128,-1,22
 148 816 148 816 161 814 c 1,23,24
 180 814 180 814 233 823 c 0,25,26
 277 831 277 831 352 831 c 0,27,28
 391 831 391 831 416 827 c 1,29,30
 429 827 429 827 436 823.5 c 128,-1,31
 443 820 443 820 444 817 c 128,-1,32
 445 814 445 814 444.5 808.5 c 128,-1,33
 444 803 444 803 445 802 c 1,34,-1
 445 787 l 2,0,1
63 232 m 2,35,36
 63 260 63 260 66.5 303.5 c 128,-1,37
 70 347 70 347 70 387.5 c 128,-1,38
 70 428 70 428 67.5 465.5 c 128,-1,39
 65 503 65 503 65 531 c 0,40,41
 65 595 65 595 68 678 c 0,42,43
 68 691 68 691 72.5 695.5 c 128,-1,44
 77 700 77 700 87 700 c 0,45,46
 89 700 89 700 94.5 699.5 c 128,-1,47
 100 699 100 699 102 699 c 0,48,49
 106 699 106 699 130 697.5 c 128,-1,50
 154 696 154 696 180 696 c 0,51,52
 202 696 202 696 256.5 700.5 c 128,-1,53
 311 705 311 705 330 705 c 0,54,55
 353 705 353 705 393.5 703 c 128,-1,56
 434 701 434 701 441 701 c 0,57,58
 454 701 454 701 458 694.5 c 128,-1,59
 462 688 462 688 462 673 c 0,60,61
 462 664 462 664 464 639 c 128,-1,62
 466 614 466 614 466 597 c 0,63,64
 466 577 466 577 463 560 c 1,65,66
 462 545 462 545 449 545 c 0,67,68
 445 545 445 545 436.5 547.5 c 128,-1,69
 428 550 428 550 427 550 c 0,70,71
 409 553 409 553 340 553 c 0,72,73
 327 553 327 553 301.5 554 c 128,-1,74
 276 555 276 555 264 555 c 0,75,76
 245 555 245 555 237 554 c 0,77,78
 199 552 199 552 184 552 c 0,79,80
 170 552 170 552 150 552 c 0,81,-1
 131 553 l 0,82,83
 129 553 129 553 127.5 553 c 128,-1,84
 126 553 126 553 125 552.5 c 128,-1,85
 124 552 124 552 123.5 551.5 c 128,-1,86
 123 551 123 551 122.5 549.5 c 128,-1,87
 122 548 122 548 121.5 547.5 c 128,-1,88
 121 547 121 547 121 545 c 128,-1,89
 121 543 121 543 121 542 c 128,-1,90
 121 541 121 541 121 538 c 128,-1,91
 121 535 121 535 121 533 c 0,92,93
 121 527 121 527 119.5 492 c 128,-1,94
 118 457 118 457 118 437 c 2,95,-1
 118 378 l 2,96,97
 118 357 118 357 119 346 c 1,98,99
 127 345 127 345 146 345 c 1,100,101
 163 344 163 344 216 344 c 0,102,103
 236 344 236 344 274 346 c 128,-1,104
 312 348 312 348 322 348 c 0,105,106
 336 348 336 348 351.5 346.5 c 128,-1,107
 367 345 367 345 371 345 c 0,108,109
 379 345 379 345 381.5 342 c 128,-1,110
 384 339 384 339 384 333 c 0,111,112
 384 331 384 331 383 322 c 128,-1,113
 382 313 382 313 382 302 c 0,114,115
 382 293 382 293 382.5 277.5 c 128,-1,116
 383 262 383 262 383 249 c 0,117,118
 383 233 383 233 374 233 c 0,119,120
 373 233 373 233 366.5 234.5 c 128,-1,121
 360 236 360 236 356 236 c 0,122,123
 354 236 354 236 323.5 237 c 128,-1,124
 293 238 293 238 256 238 c 0,125,126
 228 238 228 238 201 236 c 128,-1,127
 174 234 174 234 158 232 c 128,-1,128
 142 230 142 230 138 230 c 0,129,130
 127 230 127 230 125 231 c 1,131,132
 120 231 120 231 119 232 c 1,133,-1
 119 132 l 1,134,135
 126 132 126 132 130 133 c 1,136,137
 133 133 133 133 142.5 133.5 c 128,-1,138
 152 134 152 134 158 134 c 0,139,140
 167 134 167 134 208.5 134.5 c 128,-1,141
 250 135 250 135 276 135 c 0,142,143
 292 135 292 135 336.5 134 c 128,-1,144
 381 133 381 133 402 133 c 0,145,146
 412 133 412 133 426 133.5 c 128,-1,147
 440 134 440 134 444 134 c 0,148,149
 456 134 456 134 460 128.5 c 128,-1,150
 464 123 464 123 464 113 c 0,151,152
 464 110 464 110 463.5 103 c 128,-1,153
 463 96 463 96 463 93 c 0,154,155
 463 84 463 84 462.5 61.5 c 128,-1,156
 462 39 462 39 462 23 c 0,157,158
 462 16 462 16 460 11.5 c 128,-1,159
 458 7 458 7 456.5 4.5 c 128,-1,160
 455 2 455 2 449.5 1 c 128,-1,161
 444 0 444 0 441 0 c 128,-1,162
 438 0 438 0 428.5 0.5 c 128,-1,163
 419 1 419 1 414 1 c 0,164,165
 399 1 399 1 331 2 c 128,-1,166
 263 3 263 3 238 3 c 0,167,168
 210 3 210 3 146.5 1 c 128,-1,169
 83 -1 83 -1 80 -1 c 0,170,171
 79 -1 79 -1 77 -1.5 c 128,-1,172
 75 -2 75 -2 74 -2 c 0,173,174
 70 -2 70 -2 68 1 c 128,-1,175
 66 4 66 4 66 6.5 c 128,-1,176
 66 9 66 9 66 15 c 1,177,178
 65 26 65 26 65 52 c 0,179,180
 65 57 65 57 64 70 c 128,-1,181
 63 83 63 83 63 95 c 2,182,-1
 63 232 l 2,35,36
EndSplineSet
Validated: 8388609
Substitution2: "Single Substitution lookup 21 subtable" etilde
Substitution2: "'aalt' Access All Alternates lookup 0 subtable" etilde
Position2: "'cpsp' Capital Spacing lookup 0 subtable" dx=5 dy=0 dh=10 dv=0
EndChar

StartChar: F
Encoding: 70 70 40
Width: 475
Flags: MW
HStem: 342 62<237 409> 624 70 624 76<360 367 356 387> 672 20G<81 90>
VStem: 62 174<147 161 143 190> 70 170<465 547>
LayerCount: 2
UndoRedoHistory
Layer: 0
Undoes
EndUndoes
Redoes
EndRedoes
EndUndoRedoHistory
UndoRedoHistory
Layer: 1
Undoes
EndUndoes
Redoes
EndRedoes
EndUndoRedoHistory
Fore
SplineSet
237 342 m 1,0,1
 237 317 237 317 238 304 c 1,2,3
 238 293 238 293 238.5 271 c 128,-1,4
 239 249 239 249 239 241 c 0,5,6
 239 223 239 223 237.5 192 c 128,-1,7
 236 161 236 161 236 143 c 2,8,-1
 237 25 l 2,9,10
 237 12 237 12 231.5 7 c 128,-1,11
 226 2 226 2 214 2 c 0,12,13
 209 2 209 2 191 4 c 0,14,15
 182 5 182 5 154 5 c 0,16,17
 137 5 137 5 110.5 4.5 c 128,-1,18
 84 4 84 4 81 4 c 0,19,20
 76 4 76 4 73 5 c 128,-1,21
 70 6 70 6 68.5 6.5 c 128,-1,22
 67 7 67 7 66 10 c 128,-1,23
 65 13 65 13 65 13.5 c 128,-1,24
 65 14 65 14 65 18.5 c 128,-1,25
 65 23 65 23 65 24 c 2,26,-1
 64 77 l 2,27,28
 64 81 64 81 63 112.5 c 128,-1,29
 62 144 62 144 62 169 c 0,30,31
 62 190 62 190 65 221 c 128,-1,32
 68 252 68 252 68 273.5 c 128,-1,33
 68 295 68 295 67.5 330.5 c 128,-1,34
 67 366 67 366 67 388 c 0,35,36
 67 409 67 409 68.5 454.5 c 128,-1,37
 70 500 70 500 70 524 c 0,38,39
 70 580 70 580 68 662 c 0,40,41
 68 680 68 680 72.5 686 c 128,-1,42
 77 692 77 692 86 692 c 0,43,44
 89 692 89 692 98.5 691 c 128,-1,45
 108 690 108 690 114 690 c 0,46,47
 126 690 126 690 185 692 c 128,-1,48
 244 694 244 694 254 694 c 0,49,50
 265 694 265 694 310.5 697 c 128,-1,51
 356 700 356 700 367 700 c 2,52,-1
 451 699 l 2,53,54
 474 699 474 699 474 684 c 2,55,-1
 474 634 l 2,56,57
 474 632 474 632 474 630.5 c 128,-1,58
 474 629 474 629 473.5 627.5 c 128,-1,59
 473 626 473 626 472.5 625.5 c 128,-1,60
 472 625 472 625 471.5 624.5 c 128,-1,61
 471 624 471 624 469.5 623.5 c 128,-1,62
 468 623 468 623 467.5 622.5 c 128,-1,63
 467 622 467 622 465 622 c 128,-1,64
 463 622 463 622 462.5 622 c 128,-1,65
 462 622 462 622 459.5 622 c 128,-1,66
 457 622 457 622 456 622 c 0,67,68
 453 622 453 622 421.5 623 c 128,-1,69
 390 624 390 624 369 624 c 0,70,71
 330 624 330 624 295 620 c 1,72,-1
 246 617 l 1,73,-1
 243 599 l 1,74,75
 241 577 241 577 241 564 c 0,76,77
 241 554 241 554 240.5 524.5 c 128,-1,78
 240 495 240 495 240 475 c 0,79,80
 240 465 240 465 239.5 448 c 128,-1,81
 239 431 239 431 239 424 c 2,82,-1
 239 400 l 1,83,84
 260 400 260 400 270 401 c 1,85,86
 279 401 279 401 295.5 401.5 c 128,-1,87
 312 402 312 402 318 402 c 0,88,89
 329 402 329 402 357.5 403 c 128,-1,90
 386 404 386 404 397 404 c 0,91,92
 413 404 413 404 418.5 400 c 128,-1,93
 424 396 424 396 424 387 c 0,94,95
 424 382 424 382 423.5 370.5 c 128,-1,96
 423 359 423 359 423 354 c 0,97,98
 423 346 423 346 418.5 343 c 128,-1,99
 414 340 414 340 400 340 c 0,100,101
 392 340 392 340 367 341 c 128,-1,102
 342 342 342 342 330 342 c 2,103,-1
 237 342 l 1,0,1
EndSplineSet
Validated: 8388609
Substitution2: "Single Substitution lookup 20 subtable" f
Substitution2: "'aalt' Access All Alternates lookup 0 subtable" f
Position2: "'cpsp' Capital Spacing lookup 0 subtable" dx=5 dy=0 dh=10 dv=0
EndChar

StartChar: G
Encoding: 71 71 41
Width: 591
Flags: MW
HStem: -14 21G<285 358> -14 204<285 315 266 358> 699 20G<275 386>
VStem: 41 195<314 371 314 512>
LayerCount: 2
UndoRedoHistory
Layer: 0
Undoes
EndUndoes
Redoes
EndRedoes
EndUndoRedoHistory
UndoRedoHistory
Layer: 1
Undoes
EndUndoes
Redoes
EndRedoes
EndUndoRedoHistory
Fore
SplineSet
342 294 m 1,0,1
 317 298 317 298 307 299 c 0,2,3
 288 301 288 301 288 313 c 0,4,5
 288 320 288 320 296 352 c 1,6,7
 299 363 299 363 303 368.5 c 128,-1,8
 307 374 307 374 311 374 c 128,-1,9
 315 374 315 374 321 373 c 0,10,11
 323 373 323 373 336 371 c 128,-1,12
 349 369 349 369 367 367 c 128,-1,13
 385 365 385 365 403 363 c 0,14,15
 416 362 416 362 466 354.5 c 128,-1,16
 516 347 516 347 533 346 c 129,-1,17
 550 345 550 345 556 328 c 1,18,19
 557 321 557 321 557 316 c 0,20,21
 557 313 557 313 557 311 c 1,22,23
 554 255 554 255 543 208.5 c 128,-1,24
 532 162 532 162 517 129 c 128,-1,25
 502 96 502 96 482 70 c 128,-1,26
 462 44 462 44 441.5 28.5 c 128,-1,27
 421 13 421 13 398 3 c 128,-1,28
 375 -7 375 -7 355 -10.5 c 128,-1,29
 335 -14 335 -14 316 -14 c 0,30,31
 300 -14 300 -14 280.5 -10.5 c 128,-1,32
 261 -7 261 -7 234 3.5 c 128,-1,33
 207 14 207 14 181 29.5 c 128,-1,34
 155 45 155 45 129.5 73 c 128,-1,35
 104 101 104 101 84.5 136.5 c 128,-1,36
 65 172 65 172 53 224 c 128,-1,37
 41 276 41 276 41 338 c 0,38,39
 41 409 41 409 52.5 468 c 128,-1,40
 64 527 64 527 82 565.5 c 128,-1,41
 100 604 100 604 125 633.5 c 128,-1,42
 150 663 150 663 174.5 678.5 c 128,-1,43
 199 694 199 694 226.5 704 c 128,-1,44
 254 714 254 714 273 716.5 c 128,-1,45
 292 719 292 719 311 719 c 0,46,47
 352 719 352 719 387.5 706 c 128,-1,48
 423 693 423 693 445 676.5 c 128,-1,49
 467 660 467 660 484.5 638.5 c 128,-1,50
 502 617 502 617 509 605 c 128,-1,51
 516 593 516 593 520 584 c 0,52,-1
 521 583 l 0,53,54
 523 577 523 577 528.5 562 c 128,-1,55
 534 547 534 547 536 543 c 0,56,57
 537 541 537 541 537 538 c 0,58,59
 537 536 537 536 536.5 535 c 128,-1,60
 536 534 536 534 534.5 533 c 128,-1,61
 533 532 533 532 531.5 531 c 128,-1,62
 530 530 530 530 526 528 c 128,-1,63
 522 526 522 526 519 525 c 0,64,65
 514 523 514 523 486 508 c 128,-1,66
 458 493 458 493 447 488 c 1,67,68
 443 486 443 486 392 452 c 1,69,70
 386 447 386 447 373 439 c 0,71,72
 369 436 369 436 365 436 c 1,73,74
 359 434 359 434 357 434 c 0,75,76
 354 434 354 434 351.5 437 c 128,-1,77
 349 440 349 440 346.5 445 c 128,-1,78
 344 450 344 450 342 452 c 0,79,80
 341 453 341 453 336 460.5 c 128,-1,81
 331 468 331 468 327.5 472.5 c 128,-1,82
 324 477 324 477 316.5 481.5 c 128,-1,83
 309 486 309 486 300 486 c 0,84,85
 279 486 279 486 264 461.5 c 128,-1,86
 249 437 249 437 242.5 405.5 c 128,-1,87
 236 374 236 374 236 342 c 0,88,89
 236 339 236 339 236 333 c 0,90,91
 236 313 236 313 236 302 c 128,-1,92
 236 291 236 291 237.5 271 c 128,-1,93
 239 251 239 251 243.5 239.5 c 128,-1,94
 248 228 248 228 254.5 215 c 128,-1,95
 261 202 261 202 272.5 196 c 128,-1,96
 284 190 284 190 299 190 c 0,97,98
 340 190 340 190 355 240 c 0,99,100
 362 261 362 261 362 290 c 1,101,-1
 342 294 l 1,0,1
EndSplineSet
Validated: 8388609
Substitution2: "Single Substitution lookup 20 subtable" g
Substitution2: "'aalt' Access All Alternates lookup 0 subtable" g
Position2: "'cpsp' Capital Spacing lookup 0 subtable" dx=5 dy=0 dh=10 dv=0
EndChar

StartChar: Gbreve
Encoding: 286 286 42
Width: 591
Flags: MW
HStem: -14 204<285 315 266 358> 699 20G<275 386> 738 54<305 312 303 329>
VStem: 41 195<314 371 314 512> 163 58<829 837>
LayerCount: 2
UndoRedoHistory
Layer: 0
Undoes
EndUndoes
Redoes
EndRedoes
EndUndoRedoHistory
UndoRedoHistory
Layer: 1
Undoes
EndUndoes
Redoes
EndRedoes
EndUndoRedoHistory
Fore
SplineSet
461 832 m 0,0,1
 461 791 461 791 440 775 c 0,2,3
 425 764 425 764 401 751 c 0,4,5
 375 738 375 738 305 738 c 1,6,7
 226 742 226 742 205 753 c 0,8,9
 185 763 185 763 178 780 c 0,10,11
 164 813 164 813 163 836 c 0,12,13
 163 838 163 838 167 838.5 c 128,-1,14
 171 839 171 839 192 839 c 128,-1,15
 213 839 213 839 217 837.5 c 128,-1,16
 221 836 221 836 221 829 c 1,17,18
 225 810 225 810 237 802 c 1,19,20
 248 795 248 795 303 792 c 1,21,22
 329 792 329 792 364 801 c 1,23,24
 400 811 400 811 401 831 c 1,25,26
 404 836 404 836 428 838 c 1,27,28
 461 836 461 836 461 832 c 0,0,1
342 294 m 1,29,30
 317 298 317 298 307 299 c 0,31,32
 288 301 288 301 288 313 c 0,33,34
 288 320 288 320 296 352 c 1,35,36
 299 363 299 363 303 368.5 c 128,-1,37
 307 374 307 374 311 374 c 128,-1,38
 315 374 315 374 321 373 c 0,39,40
 323 373 323 373 336 371 c 128,-1,41
 349 369 349 369 367 367 c 128,-1,42
 385 365 385 365 403 363 c 0,43,44
 416 362 416 362 466 354.5 c 128,-1,45
 516 347 516 347 533 346 c 129,-1,46
 550 345 550 345 556 328 c 1,47,48
 557 321 557 321 557 316 c 0,49,50
 557 313 557 313 557 311 c 1,51,52
 554 255 554 255 543 208.5 c 128,-1,53
 532 162 532 162 517 129 c 128,-1,54
 502 96 502 96 482 70 c 128,-1,55
 462 44 462 44 441.5 28.5 c 128,-1,56
 421 13 421 13 398 3 c 128,-1,57
 375 -7 375 -7 355 -10.5 c 128,-1,58
 335 -14 335 -14 316 -14 c 0,59,60
 300 -14 300 -14 280.5 -10.5 c 128,-1,61
 261 -7 261 -7 234 3.5 c 128,-1,62
 207 14 207 14 181 29.5 c 128,-1,63
 155 45 155 45 129.5 73 c 128,-1,64
 104 101 104 101 84.5 136.5 c 128,-1,65
 65 172 65 172 53 224 c 128,-1,66
 41 276 41 276 41 338 c 0,67,68
 41 409 41 409 52.5 468 c 128,-1,69
 64 527 64 527 82 565.5 c 128,-1,70
 100 604 100 604 125 633.5 c 128,-1,71
 150 663 150 663 174.5 678.5 c 128,-1,72
 199 694 199 694 226.5 704 c 128,-1,73
 254 714 254 714 273 716.5 c 128,-1,74
 292 719 292 719 311 719 c 0,75,76
 352 719 352 719 387.5 706 c 128,-1,77
 423 693 423 693 445 676.5 c 128,-1,78
 467 660 467 660 484.5 638.5 c 128,-1,79
 502 617 502 617 509 605 c 128,-1,80
 516 593 516 593 520 584 c 0,81,-1
 521 583 l 0,82,83
 523 577 523 577 528.5 562 c 128,-1,84
 534 547 534 547 536 543 c 0,85,86
 537 541 537 541 537 538 c 0,87,88
 537 536 537 536 536.5 535 c 128,-1,89
 536 534 536 534 534.5 533 c 128,-1,90
 533 532 533 532 531.5 531 c 128,-1,91
 530 530 530 530 526 528 c 128,-1,92
 522 526 522 526 519 525 c 0,93,94
 514 523 514 523 486 508 c 128,-1,95
 458 493 458 493 447 488 c 1,96,97
 443 486 443 486 392 452 c 1,98,99
 386 447 386 447 373 439 c 0,100,101
 369 436 369 436 365 436 c 1,102,103
 359 434 359 434 357 434 c 0,104,105
 354 434 354 434 351.5 437 c 128,-1,106
 349 440 349 440 346.5 445 c 128,-1,107
 344 450 344 450 342 452 c 0,108,109
 341 453 341 453 336 460.5 c 128,-1,110
 331 468 331 468 327.5 472.5 c 128,-1,111
 324 477 324 477 316.5 481.5 c 128,-1,112
 309 486 309 486 300 486 c 0,113,114
 279 486 279 486 264 461.5 c 128,-1,115
 249 437 249 437 242.5 405.5 c 128,-1,116
 236 374 236 374 236 342 c 0,117,118
 236 339 236 339 236 333 c 0,119,120
 236 313 236 313 236 302 c 128,-1,121
 236 291 236 291 237.5 271 c 128,-1,122
 239 251 239 251 243.5 239.5 c 128,-1,123
 248 228 248 228 254.5 215 c 128,-1,124
 261 202 261 202 272.5 196 c 128,-1,125
 284 190 284 190 299 190 c 0,126,127
 340 190 340 190 355 240 c 0,128,129
 362 261 362 261 362 290 c 1,130,-1
 342 294 l 1,29,30
EndSplineSet
Validated: 8388609
Substitution2: "Single Substitution lookup 20 subtable" gbreve
Substitution2: "'aalt' Access All Alternates lookup 0 subtable" gbreve
Position2: "'cpsp' Capital Spacing lookup 0 subtable" dx=5 dy=0 dh=10 dv=0
EndChar

StartChar: Gcircumflex
Encoding: 284 284 43
Width: 591
Flags: MW
HStem: -14 21G<285 358> -14 204<285 315 266 358> 699 20G<275 386>
VStem: 41 195<314 371 314 512>
LayerCount: 2
UndoRedoHistory
Layer: 0
Undoes
EndUndoes
Redoes
EndRedoes
EndUndoRedoHistory
UndoRedoHistory
Layer: 1
Undoes
EndUndoes
Redoes
EndRedoes
EndUndoRedoHistory
Fore
SplineSet
192 778 m 2,0,1
 193 779 193 779 199 781.5 c 128,-1,2
 205 784 205 784 209 786 c 128,-1,3
 213 788 213 788 221.5 793.5 c 128,-1,4
 230 799 230 799 240 807 c 1,5,6
 280 829 280 829 292 833 c 1,7,8
 301 837 301 837 310 837 c 1,9,10
 314 838 314 838 321 838 c 0,11,12
 326 838 326 838 331 836.5 c 128,-1,13
 336 835 336 835 338.5 834 c 128,-1,14
 341 833 341 833 348 829 c 128,-1,15
 355 825 355 825 359 823 c 1,16,17
 371 814 371 814 426 780 c 0,18,19
 430 778 l 0,20,21
 434 776 434 776 436.5 773.5 c 128,-1,22
 439 771 439 771 443 768.5 c 128,-1,23
 447 766 447 766 450 763.5 c 128,-1,24
 453 761 453 761 455.5 758 c 128,-1,25
 458 755 458 755 459 752 c 128,-1,26
 460 749 460 749 460 746 c 0,27,28
 456 731 456 731 444 731 c 0,29,30
 437 731 437 731 417 738 c 1,31,-1
 390 745 l 1,32,33
 376 750 376 750 355 763 c 1,34,-1
 323 778 l 1,35,-1
 277 757 l 1,36,37
 256 746 256 746 220 736 c 1,38,39
 200 733 200 733 182 733 c 0,40,41
 171 733 171 733 164.5 738 c 128,-1,42
 158 743 158 743 158 749 c 0,43,44
 158 757 158 757 165 761 c 2,45,-1
 192 778 l 2,0,1
342 294 m 1,46,47
 317 298 317 298 307 299 c 0,48,49
 288 301 288 301 288 313 c 0,50,51
 288 320 288 320 296 352 c 1,52,53
 299 363 299 363 303 368.5 c 128,-1,54
 307 374 307 374 311 374 c 128,-1,55
 315 374 315 374 321 373 c 0,56,57
 323 373 323 373 336 371 c 128,-1,58
 349 369 349 369 367 367 c 128,-1,59
 385 365 385 365 403 363 c 0,60,61
 416 362 416 362 466 354.5 c 128,-1,62
 516 347 516 347 533 346 c 129,-1,63
 550 345 550 345 556 328 c 1,64,65
 557 321 557 321 557 316 c 0,66,67
 557 313 557 313 557 311 c 1,68,69
 554 255 554 255 543 208.5 c 128,-1,70
 532 162 532 162 517 129 c 128,-1,71
 502 96 502 96 482 70 c 128,-1,72
 462 44 462 44 441.5 28.5 c 128,-1,73
 421 13 421 13 398 3 c 128,-1,74
 375 -7 375 -7 355 -10.5 c 128,-1,75
 335 -14 335 -14 316 -14 c 0,76,77
 300 -14 300 -14 280.5 -10.5 c 128,-1,78
 261 -7 261 -7 234 3.5 c 128,-1,79
 207 14 207 14 181 29.5 c 128,-1,80
 155 45 155 45 129.5 73 c 128,-1,81
 104 101 104 101 84.5 136.5 c 128,-1,82
 65 172 65 172 53 224 c 128,-1,83
 41 276 41 276 41 338 c 0,84,85
 41 409 41 409 52.5 468 c 128,-1,86
 64 527 64 527 82 565.5 c 128,-1,87
 100 604 100 604 125 633.5 c 128,-1,88
 150 663 150 663 174.5 678.5 c 128,-1,89
 199 694 199 694 226.5 704 c 128,-1,90
 254 714 254 714 273 716.5 c 128,-1,91
 292 719 292 719 311 719 c 0,92,93
 352 719 352 719 387.5 706 c 128,-1,94
 423 693 423 693 445 676.5 c 128,-1,95
 467 660 467 660 484.5 638.5 c 128,-1,96
 502 617 502 617 509 605 c 128,-1,97
 516 593 516 593 520 584 c 0,98,-1
 521 583 l 0,99,100
 523 577 523 577 528.5 562 c 128,-1,101
 534 547 534 547 536 543 c 0,102,103
 537 541 537 541 537 538 c 0,104,105
 537 536 537 536 536.5 535 c 128,-1,106
 536 534 536 534 534.5 533 c 128,-1,107
 533 532 533 532 531.5 531 c 128,-1,108
 530 530 530 530 526 528 c 128,-1,109
 522 526 522 526 519 525 c 0,110,111
 514 523 514 523 486 508 c 128,-1,112
 458 493 458 493 447 488 c 1,113,114
 443 486 443 486 392 452 c 1,115,116
 386 447 386 447 373 439 c 0,117,118
 369 436 369 436 365 436 c 1,119,120
 359 434 359 434 357 434 c 0,121,122
 354 434 354 434 351.5 437 c 128,-1,123
 349 440 349 440 346.5 445 c 128,-1,124
 344 450 344 450 342 452 c 0,125,126
 341 453 341 453 336 460.5 c 128,-1,127
 331 468 331 468 327.5 472.5 c 128,-1,128
 324 477 324 477 316.5 481.5 c 128,-1,129
 309 486 309 486 300 486 c 0,130,131
 279 486 279 486 264 461.5 c 128,-1,132
 249 437 249 437 242.5 405.5 c 128,-1,133
 236 374 236 374 236 342 c 0,134,135
 236 339 236 339 236 333 c 0,136,137
 236 313 236 313 236 302 c 128,-1,138
 236 291 236 291 237.5 271 c 128,-1,139
 239 251 239 251 243.5 239.5 c 128,-1,140
 248 228 248 228 254.5 215 c 128,-1,141
 261 202 261 202 272.5 196 c 128,-1,142
 284 190 284 190 299 190 c 0,143,144
 340 190 340 190 355 240 c 0,145,146
 362 261 362 261 362 290 c 1,147,-1
 342 294 l 1,46,47
EndSplineSet
Validated: 8388609
Substitution2: "Single Substitution lookup 20 subtable" gcircumflex
Substitution2: "'aalt' Access All Alternates lookup 0 subtable" gcircumflex
Position2: "'cpsp' Capital Spacing lookup 0 subtable" dx=5 dy=0 dh=10 dv=0
EndChar

StartChar: Gcommaaccent
Encoding: 290 290 44
Width: 591
Flags: MW
HStem: -211 170<235 350> -14 21G<285 358> -14 204<285 315 266 358> 699 20G<275 386>
VStem: 41 195<314 371 314 512>
LayerCount: 2
UndoRedoHistory
Layer: 0
Undoes
EndUndoes
Redoes
EndRedoes
EndUndoRedoHistory
UndoRedoHistory
Layer: 1
Undoes
EndUndoes
Redoes
EndRedoes
EndUndoRedoHistory
Fore
SplineSet
342 294 m 1,0,1
 317 298 317 298 307 299 c 0,2,3
 288 301 288 301 288 313 c 0,4,5
 288 320 288 320 296 352 c 1,6,7
 299 363 299 363 303 368.5 c 128,-1,8
 307 374 307 374 311 374 c 128,-1,9
 315 374 315 374 321 373 c 0,10,11
 323 373 323 373 336 371 c 128,-1,12
 349 369 349 369 367 367 c 128,-1,13
 385 365 385 365 403 363 c 0,14,15
 416 362 416 362 466 354.5 c 128,-1,16
 516 347 516 347 533 346 c 129,-1,17
 550 345 550 345 556 328 c 1,18,19
 557 321 557 321 557 316 c 0,20,21
 557 313 557 313 557 311 c 1,22,23
 554 255 554 255 543 208.5 c 128,-1,24
 532 162 532 162 517 129 c 128,-1,25
 502 96 502 96 482 70 c 128,-1,26
 462 44 462 44 441.5 28.5 c 128,-1,27
 421 13 421 13 398 3 c 128,-1,28
 375 -7 375 -7 355 -10.5 c 128,-1,29
 335 -14 335 -14 316 -14 c 0,30,31
 300 -14 300 -14 280.5 -10.5 c 128,-1,32
 261 -7 261 -7 234 3.5 c 128,-1,33
 207 14 207 14 181 29.5 c 128,-1,34
 155 45 155 45 129.5 73 c 128,-1,35
 104 101 104 101 84.5 136.5 c 128,-1,36
 65 172 65 172 53 224 c 128,-1,37
 41 276 41 276 41 338 c 0,38,39
 41 409 41 409 52.5 468 c 128,-1,40
 64 527 64 527 82 565.5 c 128,-1,41
 100 604 100 604 125 633.5 c 128,-1,42
 150 663 150 663 174.5 678.5 c 128,-1,43
 199 694 199 694 226.5 704 c 128,-1,44
 254 714 254 714 273 716.5 c 128,-1,45
 292 719 292 719 311 719 c 0,46,47
 352 719 352 719 387.5 706 c 128,-1,48
 423 693 423 693 445 676.5 c 128,-1,49
 467 660 467 660 484.5 638.5 c 128,-1,50
 502 617 502 617 509 605 c 128,-1,51
 516 593 516 593 520 584 c 0,52,-1
 521 583 l 0,53,54
 523 577 523 577 528.5 562 c 128,-1,55
 534 547 534 547 536 543 c 0,56,57
 537 541 537 541 537 538 c 0,58,59
 537 536 537 536 536.5 535 c 128,-1,60
 536 534 536 534 534.5 533 c 128,-1,61
 533 532 533 532 531.5 531 c 128,-1,62
 530 530 530 530 526 528 c 128,-1,63
 522 526 522 526 519 525 c 0,64,65
 514 523 514 523 486 508 c 128,-1,66
 458 493 458 493 447 488 c 1,67,68
 443 486 443 486 392 452 c 1,69,70
 386 447 386 447 373 439 c 0,71,72
 369 436 369 436 365 436 c 1,73,74
 359 434 359 434 357 434 c 0,75,76
 354 434 354 434 351.5 437 c 128,-1,77
 349 440 349 440 346.5 445 c 128,-1,78
 344 450 344 450 342 452 c 0,79,80
 341 453 341 453 336 460.5 c 128,-1,81
 331 468 331 468 327.5 472.5 c 128,-1,82
 324 477 324 477 316.5 481.5 c 128,-1,83
 309 486 309 486 300 486 c 0,84,85
 279 486 279 486 264 461.5 c 128,-1,86
 249 437 249 437 242.5 405.5 c 128,-1,87
 236 374 236 374 236 342 c 0,88,89
 236 339 236 339 236 333 c 0,90,91
 236 313 236 313 236 302 c 128,-1,92
 236 291 236 291 237.5 271 c 128,-1,93
 239 251 239 251 243.5 239.5 c 128,-1,94
 248 228 248 228 254.5 215 c 128,-1,95
 261 202 261 202 272.5 196 c 128,-1,96
 284 190 284 190 299 190 c 0,97,98
 340 190 340 190 355 240 c 0,99,100
 362 261 362 261 362 290 c 1,101,-1
 342 294 l 1,0,1
350 -41 m 2,102,103
 356 -41 356 -41 356 -45 c 0,104,105
 356 -47 356 -47 355 -49 c 1,106,107
 354 -60 354 -60 350 -66 c 1,108,109
 350 -70 350 -70 346 -80 c 128,-1,110
 342 -90 342 -90 340 -96 c 2,111,-1
 328 -134 l 2,112,113
 320 -160 320 -160 314 -176 c 1,114,115
 309 -195 309 -195 309 -198 c 1,116,117
 306 -207 306 -207 301 -211 c 1,118,119
 298 -212 298 -212 271 -212 c 128,-1,120
 244 -212 244 -212 239 -211 c 0,121,122
 237 -211 237 -211 235.5 -210.5 c 128,-1,123
 234 -210 234 -210 234 -209 c 0,124,125
 233 -207 233 -207 232 -206 c 2,126,-1
 233 -201 l 1,127,-1
 264 -103 l 1,128,-1
 272 -71 l 1,129,-1
 279 -51 l 1,130,131
 280 -41 280 -41 294 -41 c 2,132,-1
 350 -41 l 2,102,103
EndSplineSet
Validated: 8388609
Substitution2: "Single Substitution lookup 20 subtable" gcommaaccent
Substitution2: "'aalt' Access All Alternates lookup 0 subtable" gcommaaccent
Position2: "'cpsp' Capital Spacing lookup 0 subtable" dx=5 dy=0 dh=10 dv=0
EndChar

StartChar: Gdotaccent
Encoding: 288 288 45
Width: 591
Flags: MW
HStem: -14 204<285 315 266 358> 486 203<292 312> 669 20G<292 349> 720 120<295 321 289 322>
VStem: 41 195<314 367> 248 127<764 795>
LayerCount: 2
UndoRedoHistory
Layer: 0
Undoes
EndUndoes
Redoes
EndRedoes
EndUndoRedoHistory
UndoRedoHistory
Layer: 1
Undoes
EndUndoes
Redoes
EndRedoes
EndUndoRedoHistory
Fore
SplineSet
375 786 m 0,0,1
 375 756 375 756 353.5 738 c 128,-1,2
 332 720 332 720 309 720 c 0,3,4
 287 720 287 720 267.5 737 c 128,-1,5
 248 754 248 754 248 781 c 0,6,7
 248 803 248 803 265 821.5 c 128,-1,8
 282 840 282 840 305 840 c 0,9,10
 332 840 332 840 353.5 825.5 c 128,-1,11
 375 811 375 811 375 786 c 0,0,1
342 294 m 1,12,13
 317 298 317 298 307 299 c 0,14,15
 288 301 288 301 288 313 c 0,16,17
 288 320 288 320 296 352 c 1,18,19
 299 363 299 363 303 368.5 c 128,-1,20
 307 374 307 374 311 374 c 128,-1,21
 315 374 315 374 321 373 c 0,22,23
 323 373 323 373 336 371 c 128,-1,24
 349 369 349 369 367 367 c 128,-1,25
 385 365 385 365 403 363 c 0,26,27
 416 362 416 362 466 354.5 c 128,-1,28
 516 347 516 347 533 346 c 129,-1,29
 550 345 550 345 556 328 c 1,30,31
 557 321 557 321 557 316 c 0,32,33
 557 313 557 313 557 311 c 1,34,35
 554 255 554 255 543 208.5 c 128,-1,36
 532 162 532 162 517 129 c 128,-1,37
 502 96 502 96 482 70 c 128,-1,38
 462 44 462 44 441.5 28.5 c 128,-1,39
 421 13 421 13 398 3 c 128,-1,40
 375 -7 375 -7 355 -10.5 c 128,-1,41
 335 -14 335 -14 316 -14 c 0,42,43
 300 -14 300 -14 280.5 -10.5 c 128,-1,44
 261 -7 261 -7 234 3.5 c 128,-1,45
 207 14 207 14 181 29.5 c 128,-1,46
 155 45 155 45 129.5 73 c 128,-1,47
 104 101 104 101 84.5 136.5 c 128,-1,48
 65 172 65 172 53 224 c 128,-1,49
 41 276 41 276 41 338 c 0,50,51
 41 423 41 423 56 487 c 0,52,53
 70 545 70 545 91 576.5 c 128,-1,54
 112 608 112 608 145 632 c 1,55,56
 187 664 187 664 231 676.5 c 128,-1,57
 275 689 275 689 311 689 c 0,58,59
 371 689 371 689 403 682 c 128,-1,60
 435 675 435 675 464 653 c 0,61,62
 476 644 476 644 485.5 634.5 c 128,-1,63
 495 625 495 625 501 616 c 128,-1,64
 507 607 507 607 511 601 c 128,-1,65
 515 595 515 595 518 589 c 2,66,-1
 521 583 l 2,67,68
 523 577 523 577 528.5 562 c 128,-1,69
 534 547 534 547 536 543 c 0,70,71
 537 541 537 541 537 538 c 0,72,73
 537 536 537 536 536.5 535 c 128,-1,74
 536 534 536 534 534.5 533 c 128,-1,75
 533 532 533 532 531.5 531 c 128,-1,76
 530 530 530 530 526 528 c 128,-1,77
 522 526 522 526 519 525 c 0,78,79
 514 523 514 523 486 508 c 128,-1,80
 458 493 458 493 447 488 c 1,81,82
 443 486 443 486 392 452 c 1,83,84
 386 447 386 447 373 439 c 0,85,86
 369 436 369 436 365 436 c 1,87,88
 359 434 359 434 357 434 c 0,89,90
 354 434 354 434 351.5 437 c 128,-1,91
 349 440 349 440 346.5 445 c 128,-1,92
 344 450 344 450 342 452 c 0,93,94
 341 453 341 453 336 460.5 c 128,-1,95
 331 468 331 468 327.5 472.5 c 128,-1,96
 324 477 324 477 316.5 481.5 c 128,-1,97
 309 486 309 486 300 486 c 0,98,99
 279 486 279 486 264 461.5 c 128,-1,100
 249 437 249 437 242.5 405.5 c 128,-1,101
 236 374 236 374 236 342 c 0,102,103
 236 339 236 339 236 333 c 0,104,105
 236 313 236 313 236 302 c 128,-1,106
 236 291 236 291 237.5 271 c 128,-1,107
 239 251 239 251 243.5 239.5 c 128,-1,108
 248 228 248 228 254.5 215 c 128,-1,109
 261 202 261 202 272.5 196 c 128,-1,110
 284 190 284 190 299 190 c 0,111,112
 340 190 340 190 355 240 c 0,113,114
 362 261 362 261 362 290 c 1,115,-1
 342 294 l 1,12,13
EndSplineSet
Validated: 8388609
Substitution2: "Single Substitution lookup 20 subtable" gdotaccent
Substitution2: "'aalt' Access All Alternates lookup 0 subtable" gdotaccent
Position2: "'cpsp' Capital Spacing lookup 0 subtable" dx=5 dy=0 dh=10 dv=0
EndChar

